{"glyphs":{"0":{"ha":887,"x_min":54,"x_max":832,"o":"m 439 -25 q 161 121 268 -25 q 54 502 54 268 q 161 884 54 739 q 444 1029 269 1029 q 725 884 617 1029 q 832 505 832 739 q 725 119 832 264 q 439 -25 617 -25 m 441 100 q 619 502 619 100 q 444 903 619 903 q 268 503 268 903 q 441 100 268 100 z "},"1":{"ha":887,"x_min":180,"x_max":783,"o":"m 180 0 l 180 117 l 381 117 l 381 858 l 180 808 l 180 928 l 583 1029 l 583 117 l 783 117 l 783 0 l 180 0 z "},"2":{"ha":887,"x_min":85,"x_max":760,"o":"m 85 0 l 85 159 l 96 174 q 262 355 177 281 l 344 428 q 547 742 547 607 q 499 858 547 816 q 368 899 452 899 q 111 825 257 899 l 111 972 q 408 1029 264 1029 q 664 953 568 1029 q 760 751 760 878 q 713 591 760 663 q 549 425 667 519 l 481 370 q 313 159 339 256 l 756 159 l 756 0 l 85 0 z "},"3":{"ha":887,"x_min":122,"x_max":777,"o":"m 122 7 l 122 158 q 368 100 271 100 q 513 146 458 100 q 568 269 568 193 q 277 468 568 468 l 215 468 l 215 588 l 267 589 q 473 632 406 589 q 540 767 540 676 q 372 903 540 903 q 136 847 261 903 l 136 984 q 414 1029 268 1029 q 657 966 570 1029 q 745 789 745 902 q 524 538 745 612 q 777 267 777 480 q 675 54 777 132 q 399 -25 574 -25 q 122 7 250 -25 z "},"4":{"ha":887,"x_min":50,"x_max":812,"o":"m 519 0 l 519 268 l 50 268 l 50 418 l 511 1004 l 694 1004 l 694 418 l 812 418 l 812 268 l 694 268 l 694 0 l 519 0 m 211 418 l 523 418 l 523 812 l 211 418 z "},"5":{"ha":887,"x_min":158,"x_max":772,"o":"m 158 4 l 158 150 q 372 100 286 100 q 508 152 458 100 q 559 290 559 203 q 478 450 559 394 q 249 506 398 506 q 176 500 212 506 l 176 1004 l 752 1004 l 752 845 l 322 845 l 312 629 q 651 540 529 629 q 772 292 772 451 q 666 60 772 144 q 374 -25 559 -25 q 158 4 296 -25 z "},"6":{"ha":887,"x_min":55,"x_max":816,"o":"m 264 532 q 505 646 358 646 q 728 558 640 646 q 816 334 816 469 q 714 76 816 176 q 452 -25 612 -25 q 160 108 265 -25 q 55 479 55 241 q 220 932 55 779 q 511 1029 323 1029 q 763 993 612 1029 l 763 846 q 517 904 626 904 q 330 806 397 904 q 264 532 264 709 m 615 301 q 570 463 615 404 q 448 523 525 523 q 323 469 374 523 q 273 334 273 414 q 322 165 273 229 q 452 100 372 100 q 571 155 526 100 q 615 301 615 210 z "},"7":{"ha":887,"x_min":151,"x_max":837,"o":"m 193 0 q 249 199 208 113 q 437 497 291 284 l 673 841 l 151 841 l 151 1004 l 837 1004 l 837 841 q 528 369 640 592 q 416 0 416 145 l 193 0 z "},"8":{"ha":887,"x_min":82,"x_max":821,"o":"m 283 538 q 138 768 138 633 q 229 957 138 885 q 469 1029 321 1029 q 693 968 609 1029 q 777 803 777 906 q 607 551 777 670 q 821 270 821 439 q 717 56 821 138 q 443 -25 612 -25 q 181 50 281 -25 q 82 246 82 124 q 283 538 82 423 m 503 608 q 603 775 603 686 q 562 868 603 833 q 452 903 520 903 q 350 873 389 903 q 311 793 311 842 q 350 707 311 744 q 503 608 389 670 m 382 471 q 273 279 273 380 q 327 149 273 200 q 466 98 382 98 q 590 138 540 98 q 640 238 640 178 q 606 326 640 290 q 475 418 572 363 l 382 471 z "},"9":{"ha":887,"x_min":74,"x_max":833,"o":"m 127 7 l 127 153 q 366 100 255 100 q 554 199 485 100 q 623 468 623 298 q 387 353 527 353 q 164 445 254 353 q 74 671 74 536 q 176 928 74 827 q 437 1029 278 1029 q 728 897 623 1029 q 833 532 833 764 q 666 76 833 234 q 367 -25 558 -25 q 127 7 274 -25 m 275 702 q 320 537 275 597 q 442 477 365 477 q 566 532 515 477 q 616 667 616 587 q 567 838 616 773 q 437 903 517 903 q 319 849 363 903 q 275 702 275 795 z "},"":{"ha":694,"x_min":100,"x_max":595,"o":"m 595 0 l 100 0 l 100 1053 l 595 1053 l 595 0 m 493 951 l 201 951 l 201 102 l 493 102 l 493 951 z "}," ":{"ha":443,"x_min":0,"x_max":0,"o":""},"!":{"ha":435,"x_min":117,"x_max":318,"o":"m 117 0 l 117 168 l 318 168 l 318 0 l 117 0 m 151 284 l 117 803 l 117 1004 l 318 1004 l 318 803 l 285 284 l 151 284 z "},"\"":{"ha":627,"x_min":67,"x_max":569,"o":"m 100 669 l 67 1071 l 268 1071 l 226 669 l 100 669 m 401 669 l 368 1071 l 569 1071 l 528 669 l 401 669 z "},"#":{"ha":887,"x_min":12,"x_max":875,"o":"m 125 0 l 198 289 l 12 289 l 32 389 l 223 389 l 279 615 l 77 615 l 97 715 l 304 715 l 377 1004 l 480 1004 l 408 715 l 586 715 l 658 1004 l 762 1004 l 690 715 l 875 715 l 855 615 l 665 615 l 608 389 l 810 389 l 790 289 l 583 289 l 511 0 l 407 0 l 479 289 l 301 289 l 229 0 l 125 0 m 326 389 l 505 389 l 561 615 l 383 615 l 326 389 z "},"$":{"ha":887,"x_min":123,"x_max":755,"o":"m 397 -109 l 397 3 q 123 53 284 3 l 123 201 q 397 125 274 132 l 397 448 l 363 471 q 195 613 238 555 q 151 754 151 671 q 217 922 151 855 q 397 1003 283 989 l 397 1113 l 507 1113 l 507 1003 q 722 960 613 998 l 722 824 q 507 886 611 876 l 507 582 l 537 562 q 710 421 665 479 q 755 279 755 363 q 689 95 755 169 q 507 2 622 20 l 507 -109 l 397 -109 m 486 134 q 583 253 583 164 q 486 390 583 321 l 486 134 m 418 639 l 418 880 q 325 769 325 849 q 418 639 325 699 z "},"%":{"ha":1088,"x_min":17,"x_max":1071,"o":"m 81 -25 l 871 1029 l 1006 1029 l 218 -25 l 81 -25 m 253 502 q 80 569 144 502 q 17 753 17 637 q 81 937 17 870 q 256 1004 144 1004 q 430 937 366 1004 q 494 753 494 870 q 430 569 494 635 q 253 502 366 502 m 254 602 q 343 753 343 602 q 256 903 343 903 q 168 753 168 903 q 254 602 168 602 m 830 0 q 657 67 721 0 q 594 251 594 135 q 658 435 594 368 q 833 502 722 502 q 1007 435 944 502 q 1071 252 1071 368 q 1007 66 1071 133 q 830 0 943 0 m 831 100 q 920 252 920 100 q 833 401 920 401 q 745 251 745 401 q 831 100 745 100 z "},"&":{"ha":1034,"x_min":46,"x_max":981,"o":"m 961 0 l 725 0 l 680 54 q 419 -25 562 -25 q 152 66 257 -25 q 46 296 46 157 q 296 607 46 504 q 224 813 224 733 q 304 967 224 905 q 502 1029 384 1029 q 688 969 615 1029 q 762 817 762 909 q 540 569 762 672 q 743 268 626 410 q 812 544 812 367 l 812 559 l 981 559 q 821 166 981 338 q 961 0 887 80 m 365 503 q 241 333 241 447 q 303 171 241 237 q 454 104 365 104 q 600 152 533 104 q 389 462 488 294 l 365 503 m 477 663 q 594 812 594 725 q 505 903 594 903 q 415 816 415 903 q 477 663 415 757 z "},"'":{"ha":343,"x_min":67,"x_max":285,"o":"m 109 652 l 67 1071 l 285 1071 l 235 652 l 109 652 z "},"(":{"ha":515,"x_min":83,"x_max":448,"o":"m 448 1079 l 448 949 q 267 435 267 768 q 448 -79 267 102 l 448 -209 q 183 56 283 -120 q 83 435 83 233 q 181 812 83 638 q 448 1079 279 985 z "},")":{"ha":515,"x_min":67,"x_max":431,"o":"m 67 -209 l 67 -79 q 247 433 247 102 q 67 949 247 768 l 67 1079 q 332 814 232 991 q 431 435 431 637 q 333 59 431 233 q 67 -209 235 -115 z "},"*":{"ha":648,"x_min":58,"x_max":589,"o":"m 370 801 l 544 897 l 589 758 l 391 734 q 393 747 393 743 q 370 801 393 777 m 388 722 l 533 585 l 414 499 l 330 680 q 388 722 368 687 m 317 680 l 233 499 l 115 585 l 260 722 q 317 680 279 687 m 256 734 l 58 758 l 104 897 l 277 801 q 255 747 255 777 q 256 734 255 743 m 250 1004 l 397 1004 l 359 808 q 323 817 341 817 q 288 808 306 817 l 250 1004 z "},"+":{"ha":1105,"x_min":151,"x_max":954,"o":"m 494 0 l 494 343 l 151 343 l 151 460 l 494 460 l 494 803 l 611 803 l 611 460 l 954 460 l 954 343 l 611 343 l 611 0 l 494 0 z "},",":{"ha":343,"x_min":63,"x_max":281,"o":"m 146 0 l 63 0 l 63 218 l 281 218 l 281 49 q 63 -218 281 -218 l 63 -142 q 124 -109 101 -142 q 146 -22 146 -76 l 146 0 z "},"-":{"ha":804,"x_min":100,"x_max":703,"o":"m 100 368 l 100 502 l 703 502 l 703 368 l 100 368 z "},".":{"ha":343,"x_min":63,"x_max":281,"o":"m 63 0 l 63 218 l 281 218 l 281 0 l 63 0 z "},"/":{"ha":785,"x_min":151,"x_max":634,"o":"m 151 -201 l 512 1004 l 634 1004 l 273 -201 l 151 -201 z "},":":{"ha":343,"x_min":71,"x_max":272,"o":"m 71 0 l 71 201 l 272 201 l 272 0 l 71 0 m 71 544 l 71 745 l 272 745 l 272 544 l 71 544 z "},";":{"ha":343,"x_min":71,"x_max":272,"o":"m 146 0 l 71 0 l 71 201 l 272 201 l 272 50 q 221 -141 272 -74 q 71 -218 170 -209 l 71 -142 q 146 -21 146 -121 l 146 0 m 71 544 l 71 745 l 272 745 l 272 544 l 71 544 z "},"<":{"ha":1105,"x_min":151,"x_max":954,"o":"m 954 0 l 151 401 l 954 803 l 954 672 l 414 402 l 414 401 l 954 131 l 954 0 z "},"=":{"ha":1105,"x_min":151,"x_max":954,"o":"m 151 210 l 151 326 l 954 326 l 954 210 l 151 210 m 151 477 l 151 594 l 954 594 l 954 477 l 151 477 z "},">":{"ha":1105,"x_min":151,"x_max":954,"o":"m 151 0 l 151 131 l 690 401 l 690 402 l 151 672 l 151 803 l 954 401 l 151 0 z "},"?":{"ha":690,"x_min":42,"x_max":653,"o":"m 189 0 l 189 168 l 391 168 l 391 0 l 189 0 m 391 284 l 189 284 l 189 303 q 290 524 189 412 l 338 576 q 435 769 435 684 q 277 895 435 895 q 42 835 174 895 l 42 988 q 306 1029 177 1029 q 560 967 467 1029 q 653 799 653 905 q 541 595 653 701 l 496 552 q 411 450 432 492 q 391 342 391 408 l 391 284 z "},"@":{"ha":1173,"x_min":41,"x_max":1120,"o":"m 720 31 q 483 -25 602 -25 q 165 93 290 -25 q 41 392 41 210 q 206 810 41 621 q 419 971 295 913 q 674 1029 544 1029 q 992 908 865 1029 q 1120 605 1120 787 q 1016 317 1120 434 q 760 201 912 201 q 650 275 650 201 q 688 431 650 307 l 673 431 q 545 265 621 330 q 401 201 469 201 q 280 357 280 201 q 390 656 280 518 q 627 795 499 795 q 671 791 643 795 q 760 785 711 785 l 850 785 l 775 407 q 768 341 768 372 q 820 295 768 295 q 966 389 901 295 q 1032 598 1032 483 q 929 843 1032 744 q 673 941 825 941 q 276 758 439 941 q 128 394 128 592 q 228 156 128 249 q 481 62 327 62 q 690 111 586 62 l 720 31 m 686 559 l 711 685 q 615 710 657 710 q 488 648 536 710 q 401 389 401 538 q 450 305 401 305 q 556 381 486 305 q 686 559 627 456 z "},"A":{"ha":1023,"x_min":16,"x_max":1006,"o":"m 16 0 l 406 1004 l 615 1004 l 1006 0 l 791 0 l 687 268 l 272 268 l 168 0 l 16 0 m 323 401 l 635 401 l 479 802 l 323 401 z "},"B":{"ha":875,"x_min":125,"x_max":817,"o":"m 125 0 l 125 1004 l 467 1004 q 697 947 618 1004 q 776 781 776 890 q 535 524 776 600 q 817 248 817 456 q 734 64 817 128 q 498 0 652 0 l 125 0 m 326 586 l 372 586 q 512 629 460 586 q 564 747 564 673 q 522 841 564 817 q 364 866 480 866 l 326 866 l 326 586 m 326 142 l 367 142 q 548 171 498 142 q 598 273 598 199 q 531 401 598 350 q 363 452 465 452 l 326 452 l 326 142 z "},"C":{"ha":989,"x_min":63,"x_max":933,"o":"m 933 40 q 585 -25 787 -25 q 201 114 338 -25 q 63 502 63 253 q 202 892 63 755 q 597 1029 340 1029 q 924 990 762 1029 l 924 827 q 616 891 740 891 q 371 790 457 891 q 285 505 285 690 q 377 221 285 323 q 635 119 470 119 q 933 194 783 119 l 933 40 z "},"D":{"ha":1101,"x_min":125,"x_max":1039,"o":"m 125 0 l 125 1004 l 557 1004 q 915 880 791 1004 q 1039 523 1039 756 q 907 137 1039 275 q 539 0 776 0 l 125 0 m 334 142 l 490 142 q 745 245 672 142 q 817 511 817 347 q 752 750 817 654 q 644 841 707 816 q 460 866 581 866 l 334 866 l 334 142 z "},"E":{"ha":834,"x_min":125,"x_max":785,"o":"m 125 0 l 125 1004 l 753 1004 l 753 866 l 334 866 l 334 586 l 677 586 l 677 448 l 334 448 l 334 142 l 785 142 l 785 0 l 125 0 z "},"F":{"ha":798,"x_min":125,"x_max":757,"o":"m 125 0 l 125 1004 l 757 1004 l 757 866 l 334 866 l 334 561 l 682 561 l 682 422 l 334 422 l 334 0 l 125 0 z "},"G":{"ha":1036,"x_min":63,"x_max":927,"o":"m 927 24 q 602 -25 739 -25 q 202 112 342 -25 q 63 503 63 248 q 202 892 63 756 q 600 1029 342 1029 q 926 990 764 1029 l 926 827 q 618 891 739 891 q 372 789 458 891 q 285 501 285 688 q 378 218 285 321 q 634 115 471 115 q 718 125 670 115 l 718 456 l 927 456 l 927 24 z "},"H":{"ha":1084,"x_min":125,"x_max":958,"o":"m 125 0 l 125 1004 l 334 1004 l 334 596 l 749 596 l 749 1004 l 958 1004 l 958 0 l 749 0 l 749 458 l 334 458 l 334 0 l 125 0 z "},"I":{"ha":460,"x_min":125,"x_max":334,"o":"m 125 0 l 125 1004 l 334 1004 l 334 0 l 125 0 z "},"J":{"ha":581,"x_min":-47,"x_max":456,"o":"m -46 -176 l -47 -27 q 120 -59 34 -59 q 219 -19 192 -59 q 246 125 246 21 l 246 1004 l 456 1004 l 456 147 q 380 -119 456 -38 q 134 -201 305 -201 q -46 -176 49 -201 z "},"K":{"ha":986,"x_min":125,"x_max":968,"o":"m 125 0 l 125 1004 l 326 1004 l 326 517 l 710 1004 l 884 1004 l 536 553 l 968 0 l 707 0 l 326 494 l 326 0 l 125 0 z "},"L":{"ha":808,"x_min":125,"x_max":787,"o":"m 125 0 l 125 1004 l 334 1004 l 334 142 l 787 142 l 787 0 l 125 0 z "},"M":{"ha":1261,"x_min":125,"x_max":1135,"o":"m 125 0 l 125 1004 l 402 1004 l 644 298 l 892 1004 l 1135 1004 l 1135 0 l 943 0 l 943 758 l 698 67 l 530 67 l 290 768 l 290 0 l 125 0 z "},"N":{"ha":1067,"x_min":125,"x_max":942,"o":"m 125 0 l 125 1004 l 309 1004 l 774 318 l 774 1004 l 942 1004 l 942 0 l 755 0 l 293 686 l 293 0 l 125 0 z "},"O":{"ha":1143,"x_min":63,"x_max":1081,"o":"m 566 -25 q 200 119 337 -25 q 63 502 63 262 q 201 886 63 744 q 572 1029 338 1029 q 943 886 805 1029 q 1081 504 1081 744 q 943 117 1081 258 q 566 -25 805 -25 m 568 113 q 781 219 703 113 q 859 505 859 324 q 781 785 859 680 q 572 891 702 891 q 363 785 441 891 q 285 503 285 680 q 363 220 285 327 q 568 113 441 113 z "},"P":{"ha":852,"x_min":125,"x_max":815,"o":"m 125 0 l 125 1004 l 475 1004 q 737 942 659 1004 q 815 737 815 881 q 710 484 815 574 q 417 393 606 393 l 330 393 l 330 0 l 125 0 m 330 531 l 371 531 q 540 581 478 531 q 602 716 602 631 q 412 866 602 866 l 330 866 l 330 531 z "},"Q":{"ha":1144,"x_min":63,"x_max":1213,"o":"m 1078 -201 q 638 -22 808 -130 q 565 -25 589 -25 q 200 119 337 -25 q 63 502 63 262 q 201 886 63 744 q 572 1029 338 1029 q 944 886 806 1029 q 1081 500 1081 743 q 813 23 1081 158 q 1213 -66 1010 -45 l 1078 -201 m 569 113 q 781 218 703 113 q 859 504 859 323 q 781 785 859 680 q 572 891 703 891 q 363 785 441 891 q 285 503 285 680 q 363 220 285 327 q 569 113 441 113 z "},"R":{"ha":958,"x_min":125,"x_max":941,"o":"m 125 0 l 125 1004 l 501 1004 q 729 940 650 1004 q 807 755 807 877 q 755 586 807 662 q 612 469 703 509 l 941 0 l 686 0 l 437 410 l 322 410 l 322 0 l 125 0 m 322 548 l 370 548 q 597 732 597 548 q 395 866 597 866 l 322 866 l 322 548 z "},"S":{"ha":793,"x_min":67,"x_max":740,"o":"m 69 9 l 69 181 q 347 113 231 113 q 474 149 427 113 q 520 247 520 185 q 491 329 520 296 q 380 409 462 363 l 313 446 q 123 592 178 522 q 67 754 67 661 q 158 954 67 878 q 399 1029 250 1029 q 670 994 519 1029 l 670 833 q 427 891 516 891 q 316 860 357 891 q 274 779 274 829 q 303 707 274 738 q 413 630 332 675 l 485 590 q 685 440 630 509 q 740 273 740 372 q 636 54 740 134 q 350 -25 532 -25 q 69 9 229 -25 z "},"T":{"ha":958,"x_min":15,"x_max":943,"o":"m 374 0 l 374 866 l 15 866 l 15 1004 l 943 1004 l 943 866 l 584 866 l 584 0 l 374 0 z "},"U":{"ha":1023,"x_min":117,"x_max":905,"o":"m 117 1004 l 326 1004 l 326 389 q 374 178 326 243 q 530 113 422 113 q 678 175 632 113 q 724 374 724 237 l 724 1004 l 905 1004 l 905 387 q 879 175 905 248 q 783 49 852 102 q 526 -25 687 -25 q 248 54 353 -25 q 146 182 175 108 q 117 389 117 256 l 117 1004 z "},"V":{"ha":970,"x_min":17,"x_max":956,"o":"m 388 0 l 17 1004 l 240 1004 l 528 227 l 806 1004 l 956 1004 l 597 0 l 388 0 z "},"W":{"ha":1255,"x_min":14,"x_max":1243,"o":"m 264 0 l 14 1004 l 212 1004 l 395 269 l 568 1004 l 742 1004 l 906 273 l 1099 1004 l 1243 1004 l 980 0 l 781 0 l 626 688 l 464 0 l 264 0 z "},"X":{"ha":926,"x_min":33,"x_max":896,"o":"m 33 0 l 355 494 l 47 1004 l 291 1004 l 495 666 l 716 1004 l 885 1004 l 577 530 l 896 0 l 653 0 l 435 359 l 202 0 l 33 0 z "},"Y":{"ha":954,"x_min":27,"x_max":924,"o":"m 364 0 l 364 420 l 27 1004 l 258 1004 l 503 580 l 758 1004 l 924 1004 l 573 422 l 573 0 l 364 0 z "},"Z":{"ha":895,"x_min":72,"x_max":814,"o":"m 72 0 l 72 142 l 571 866 l 100 866 l 100 1004 l 814 1004 l 814 866 l 315 142 l 814 142 l 814 0 l 72 0 z "},"[":{"ha":515,"x_min":134,"x_max":448,"o":"m 134 -201 l 134 1071 l 448 1071 l 448 954 l 301 954 l 301 -83 l 448 -83 l 448 -201 l 134 -201 z "},"\\":{"ha":785,"x_min":151,"x_max":634,"o":"m 634 -201 l 512 -201 l 151 1004 l 273 1004 l 634 -201 z "},"]":{"ha":515,"x_min":67,"x_max":381,"o":"m 381 -201 l 67 -201 l 67 -83 l 214 -83 l 214 954 l 67 954 l 67 1071 l 381 1071 l 381 -201 z "},"^":{"ha":920,"x_min":58,"x_max":861,"o":"m 861 268 l 730 268 l 460 808 l 459 808 l 189 268 l 58 268 l 460 1071 l 861 268 z "},"_":{"ha":694,"x_min":0,"x_max":694,"o":"m 0 -117 l 0 0 l 694 0 l 694 -117 l 0 -117 z "},"`":{"ha":887,"x_min":241,"x_max":588,"o":"m 588 870 l 458 870 l 241 1088 l 425 1088 l 588 870 z "},"a":{"ha":817,"x_min":56,"x_max":770,"o":"m 490 80 q 275 -17 390 -17 q 117 43 178 -17 q 56 197 56 102 q 154 388 56 321 q 437 454 253 454 l 490 454 l 490 522 q 358 638 490 638 q 121 572 241 638 l 121 710 q 391 762 257 762 q 683 529 683 762 l 683 199 q 736 112 683 112 q 770 119 749 112 l 770 2 q 658 -17 707 -17 q 499 80 534 -17 l 490 80 m 490 188 l 490 339 l 443 339 q 300 307 352 339 q 248 217 248 274 q 276 148 248 176 q 346 119 304 119 q 490 188 416 119 z "},"b":{"ha":920,"x_min":125,"x_max":858,"o":"m 125 0 l 125 1071 l 326 1071 l 326 604 q 570 762 404 762 q 781 663 704 762 q 858 393 858 565 q 771 95 858 206 q 539 -17 684 -17 q 326 75 414 -17 l 289 0 l 125 0 m 326 195 q 482 113 399 113 q 600 185 556 113 q 644 376 644 256 q 497 604 644 604 q 326 490 408 604 l 326 195 z "},"c":{"ha":739,"x_min":58,"x_max":675,"o":"m 675 16 q 444 -17 550 -17 q 162 88 265 -17 q 58 373 58 193 q 165 659 58 555 q 459 762 271 762 q 669 732 550 762 l 669 587 q 471 627 545 627 q 326 558 381 627 q 271 374 271 489 q 331 186 271 257 q 489 116 390 116 q 675 155 579 116 l 675 16 z "},"d":{"ha":920,"x_min":63,"x_max":795,"o":"m 594 0 l 594 140 q 351 -17 517 -17 q 140 81 216 -17 q 63 352 63 180 q 150 650 63 539 q 382 762 236 762 q 594 669 498 762 l 594 1071 l 795 1071 l 795 0 l 594 0 m 594 550 q 439 631 522 631 q 321 560 365 631 q 277 369 277 489 q 423 140 277 140 q 594 255 513 140 l 594 550 z "},"e":{"ha":814,"x_min":58,"x_max":732,"o":"m 732 25 q 460 -17 589 -17 q 166 89 274 -17 q 58 378 58 195 q 157 656 58 551 q 418 762 256 762 q 656 659 581 762 q 732 332 732 555 l 270 332 q 504 119 290 119 q 732 166 605 119 l 732 25 m 267 446 l 534 446 q 412 636 534 636 q 267 446 287 636 z "},"f":{"ha":576,"x_min":44,"x_max":604,"o":"m 146 0 l 146 619 l 44 619 l 44 745 l 146 745 l 146 798 q 421 1088 146 1088 q 604 1062 510 1088 l 604 926 q 451 962 519 962 q 371 927 394 962 q 347 806 347 892 l 347 745 l 536 745 l 536 619 l 347 619 l 347 0 l 146 0 z "},"g":{"ha":916,"x_min":63,"x_max":795,"o":"m 131 -231 l 147 -85 q 384 -142 271 -142 q 545 -95 495 -142 q 594 59 594 -47 l 594 161 q 352 0 521 0 q 141 99 219 0 q 63 368 63 199 q 151 654 63 547 q 383 762 238 762 q 594 669 497 762 l 615 745 l 795 745 l 795 176 q 775 -69 795 6 q 694 -197 754 -144 q 412 -284 594 -284 q 131 -231 282 -284 m 594 277 l 594 552 q 442 634 522 634 q 321 565 366 634 q 277 379 277 496 q 417 161 277 161 q 594 277 514 161 z "},"h":{"ha":912,"x_min":125,"x_max":795,"o":"m 125 0 l 125 1071 l 326 1071 l 326 604 q 580 762 425 762 q 737 699 680 762 q 795 526 795 635 l 795 0 l 594 0 l 594 477 q 510 604 594 604 q 326 469 414 604 l 326 0 l 125 0 z "},"i":{"ha":452,"x_min":125,"x_max":326,"o":"m 125 0 l 125 745 l 326 745 l 326 0 l 125 0 m 125 870 l 125 1038 l 326 1038 l 326 870 l 125 870 z "},"j":{"ha":463,"x_min":-121,"x_max":337,"o":"m -121 -253 l -121 -119 q 28 -159 -34 -159 q 112 -122 87 -159 q 136 0 136 -86 l 136 745 l 337 745 l 337 14 q 268 -214 337 -142 q 45 -285 198 -285 q -121 -253 -22 -285 m 136 870 l 136 1038 l 337 1038 l 337 870 l 136 870 z "},"k":{"ha":879,"x_min":125,"x_max":848,"o":"m 125 0 l 125 1071 l 326 1071 l 326 397 l 339 397 l 604 745 l 771 745 l 526 426 l 848 0 l 604 0 l 339 372 l 326 372 l 326 0 l 125 0 z "},"l":{"ha":452,"x_min":125,"x_max":326,"o":"m 125 0 l 125 1071 l 326 1071 l 326 0 l 125 0 z "},"m":{"ha":1347,"x_min":125,"x_max":1230,"o":"m 125 0 l 125 745 l 318 745 l 318 604 q 569 762 406 762 q 707 720 653 762 q 774 604 762 679 q 1026 762 878 762 q 1230 536 1230 762 l 1230 0 l 1038 0 l 1038 471 q 949 603 1038 603 q 774 473 859 603 l 774 0 l 581 0 l 581 471 q 492 604 581 604 q 318 473 404 604 l 318 0 l 125 0 z "},"n":{"ha":912,"x_min":125,"x_max":795,"o":"m 125 0 l 125 745 l 326 745 l 326 604 q 580 762 425 762 q 737 699 680 762 q 795 526 795 635 l 795 0 l 594 0 l 594 477 q 510 604 594 604 q 326 469 414 604 l 326 0 l 125 0 z "},"o":{"ha":887,"x_min":58,"x_max":828,"o":"m 438 -17 q 161 89 264 -17 q 58 372 58 194 q 162 657 58 553 q 443 762 265 762 q 725 657 621 762 q 828 374 828 553 q 724 87 828 191 q 438 -17 621 -17 m 441 109 q 569 179 523 109 q 614 374 614 249 q 569 566 614 495 q 443 636 523 636 q 318 566 363 636 q 272 372 272 495 q 317 180 272 251 q 441 109 363 109 z "},"p":{"ha":920,"x_min":125,"x_max":858,"o":"m 125 -268 l 125 745 l 326 745 l 326 604 q 570 762 404 762 q 781 663 704 762 q 858 393 858 565 q 771 94 858 205 q 538 -17 684 -17 q 326 75 421 -17 l 326 -268 l 125 -268 m 326 195 q 482 113 399 113 q 600 185 556 113 q 644 376 644 256 q 497 604 644 604 q 326 490 408 604 l 326 195 z "},"q":{"ha":920,"x_min":63,"x_max":795,"o":"m 594 -268 l 594 140 q 351 -17 517 -17 q 140 81 216 -17 q 63 352 63 180 q 150 650 63 539 q 382 762 236 762 q 594 669 498 762 l 619 745 l 795 745 l 795 -268 l 594 -268 m 594 550 q 439 631 522 631 q 321 560 365 631 q 277 369 277 489 q 423 140 277 140 q 594 255 513 140 l 594 550 z "},"r":{"ha":631,"x_min":125,"x_max":601,"o":"m 125 0 l 125 745 l 326 745 l 326 604 q 564 762 404 762 q 601 758 583 762 l 601 578 q 522 594 558 594 q 326 473 401 594 l 326 0 l 125 0 z "},"s":{"ha":785,"x_min":106,"x_max":691,"o":"m 106 24 l 106 171 q 361 109 255 109 q 484 193 484 109 q 382 288 484 247 l 315 315 q 157 411 204 359 q 109 538 109 463 q 190 703 109 644 q 416 762 271 762 q 632 735 507 762 l 632 594 q 432 636 511 636 q 307 559 307 636 q 399 473 307 508 l 458 450 q 640 350 589 401 q 691 219 691 299 q 604 48 691 114 q 377 -17 517 -17 q 106 24 243 -17 z "},"t":{"ha":563,"x_min":52,"x_max":509,"o":"m 509 4 q 396 -17 437 -17 q 197 41 260 -17 q 135 227 135 100 l 135 619 l 52 619 l 52 745 l 135 745 l 135 870 l 336 893 l 336 745 l 495 745 l 495 619 l 336 619 l 336 254 q 448 117 336 117 q 509 126 473 117 l 509 4 z "},"u":{"ha":912,"x_min":117,"x_max":787,"o":"m 586 0 l 586 140 q 332 -17 488 -17 q 175 46 233 -17 q 117 218 117 109 l 117 745 l 318 745 l 318 268 q 403 141 318 141 q 586 276 498 141 l 586 745 l 787 745 l 787 0 l 586 0 z "},"v":{"ha":824,"x_min":25,"x_max":797,"o":"m 309 0 l 25 745 l 237 745 l 445 208 l 652 745 l 797 745 l 510 0 l 309 0 z "},"w":{"ha":1198,"x_min":50,"x_max":1151,"o":"m 257 0 l 50 745 l 237 745 l 383 223 l 539 745 l 713 745 l 853 220 l 1011 745 l 1151 745 l 930 0 l 737 0 l 602 511 l 450 0 l 257 0 z "},"x":{"ha":821,"x_min":46,"x_max":779,"o":"m 46 0 l 302 374 l 57 745 l 286 745 l 446 509 l 599 745 l 762 745 l 528 379 l 779 0 l 550 0 l 383 246 l 212 0 l 46 0 z "},"y":{"ha":810,"x_min":21,"x_max":793,"o":"m 128 -268 l 297 0 l 21 745 l 237 745 l 421 247 l 640 745 l 793 745 l 333 -268 l 128 -268 z "},"z":{"ha":821,"x_min":83,"x_max":745,"o":"m 83 0 l 83 134 l 500 619 l 102 619 l 102 745 l 737 745 l 737 619 l 321 134 l 745 134 l 745 0 l 83 0 z "},"{":{"ha":515,"x_min":67,"x_max":431,"o":"m 67 502 l 100 502 q 194 590 194 502 q 181 687 194 637 l 165 749 q 151 865 151 810 q 225 1016 151 961 q 431 1071 300 1071 l 431 954 q 343 931 368 949 q 319 867 319 912 q 326 806 319 847 l 336 748 q 343 652 343 701 q 210 435 343 513 q 343 218 343 357 q 336 122 343 169 l 326 64 q 319 3 319 23 q 343 -61 319 -42 q 431 -83 368 -79 l 431 -201 q 225 -146 300 -201 q 151 5 151 -91 q 165 121 151 60 l 181 183 q 194 281 194 233 q 100 368 194 368 l 67 368 l 67 502 z "},"|":{"ha":536,"x_min":209,"x_max":326,"o":"m 209 -201 l 209 1071 l 326 1071 l 326 -201 l 209 -201 z "},"}":{"ha":515,"x_min":67,"x_max":431,"o":"m 431 502 l 431 368 l 397 368 q 304 280 304 368 q 317 183 304 233 l 332 121 q 348 5 348 60 q 273 -146 348 -91 q 67 -201 198 -201 l 67 -83 q 155 -61 131 -79 q 180 3 180 -42 q 173 64 180 23 l 163 122 q 155 218 155 169 q 288 435 155 357 q 155 652 155 513 q 163 748 155 701 l 173 806 q 180 867 180 847 q 155 931 180 912 q 67 954 131 949 l 67 1071 q 273 1016 199 1071 q 348 865 348 961 q 332 749 348 810 l 317 687 q 304 589 304 637 q 397 502 304 502 l 431 502 z "},"~":{"ha":887,"x_min":75,"x_max":812,"o":"m 75 284 q 125 467 75 401 q 262 534 174 534 q 426 478 318 534 l 507 435 l 574 400 q 621 389 597 389 q 674 421 654 389 q 694 504 694 453 l 694 515 l 812 515 q 763 330 812 397 q 627 264 714 264 q 454 323 569 264 l 371 366 l 308 399 q 267 408 288 408 q 193 284 193 408 l 75 284 z "},"Ä":{"ha":1023,"x_min":16,"x_max":1006,"o":"m 16 0 l 406 1004 l 615 1004 l 1006 0 l 791 0 l 687 268 l 272 268 l 168 0 l 16 0 m 323 401 l 635 401 l 479 802 l 323 401 m 292 1088 l 292 1239 l 443 1239 l 443 1088 l 292 1088 m 576 1088 l 576 1239 l 727 1239 l 727 1088 l 576 1088 z "},"Å":{"ha":1023,"x_min":16,"x_max":1006,"o":"m 16 0 l 406 1004 l 615 1004 l 1006 0 l 791 0 l 687 268 l 272 268 l 168 0 l 16 0 m 323 401 l 635 401 l 479 802 l 323 401 m 508 1005 q 400 1050 445 1005 q 356 1159 356 1095 q 401 1268 356 1223 q 510 1313 446 1313 q 619 1268 574 1313 q 664 1159 664 1223 q 619 1049 664 1094 q 508 1005 574 1005 m 509 1072 q 571 1097 546 1072 q 597 1160 597 1122 q 571 1221 597 1196 q 510 1246 546 1246 q 449 1221 474 1246 q 423 1159 423 1196 q 448 1098 423 1123 q 509 1072 473 1072 z "},"Ç":{"ha":989,"x_min":63,"x_max":933,"o":"m 933 40 q 585 -25 787 -25 q 201 114 338 -25 q 63 502 63 253 q 202 892 63 755 q 597 1029 340 1029 q 924 990 762 1029 l 924 827 q 616 891 740 891 q 371 790 457 891 q 285 505 285 690 q 377 221 285 323 q 635 119 470 119 q 933 194 783 119 l 933 40 m 514 0 l 606 0 l 555 -77 q 712 -182 712 -94 q 663 -261 712 -229 q 543 -293 614 -293 q 416 -273 488 -293 l 416 -211 q 495 -221 463 -221 q 578 -180 578 -221 q 446 -123 578 -123 l 432 -123 l 514 0 z "},"É":{"ha":834,"x_min":125,"x_max":785,"o":"m 125 0 l 125 1004 l 753 1004 l 753 866 l 334 866 l 334 586 l 677 586 l 677 448 l 334 448 l 334 142 l 785 142 l 785 0 l 125 0 m 335 1088 l 498 1306 l 682 1306 l 465 1088 l 335 1088 z "},"Ñ":{"ha":1067,"x_min":125,"x_max":942,"o":"m 125 0 l 125 1004 l 309 1004 l 774 318 l 774 1004 l 942 1004 l 942 0 l 755 0 l 293 686 l 293 0 l 125 0 m 410 1088 l 309 1088 q 446 1306 309 1306 q 532 1277 490 1306 l 557 1259 l 578 1244 q 640 1214 622 1214 q 686 1306 686 1214 l 786 1306 q 650 1088 786 1088 q 564 1118 606 1088 l 538 1135 q 517 1150 522 1147 q 455 1181 475 1181 q 410 1088 410 1181 z "},"Ö":{"ha":1143,"x_min":63,"x_max":1081,"o":"m 566 -25 q 200 119 337 -25 q 63 502 63 262 q 201 886 63 744 q 572 1029 338 1029 q 943 886 805 1029 q 1081 504 1081 744 q 943 117 1081 258 q 566 -25 805 -25 m 568 113 q 781 219 703 113 q 859 505 859 324 q 781 785 859 680 q 572 891 702 891 q 363 785 441 891 q 285 503 285 680 q 363 220 285 327 q 568 113 441 113 m 355 1088 l 355 1239 l 505 1239 l 505 1088 l 355 1088 m 639 1088 l 639 1239 l 789 1239 l 789 1088 l 639 1088 z "},"Ü":{"ha":1023,"x_min":117,"x_max":905,"o":"m 117 1004 l 326 1004 l 326 389 q 374 178 326 243 q 530 113 422 113 q 678 175 632 113 q 724 374 724 237 l 724 1004 l 905 1004 l 905 387 q 879 175 905 248 q 783 49 852 102 q 526 -25 687 -25 q 248 54 353 -25 q 146 182 175 108 q 117 389 117 256 l 117 1004 m 308 1088 l 308 1239 l 458 1239 l 458 1088 l 308 1088 m 592 1088 l 592 1239 l 743 1239 l 743 1088 l 592 1088 z "},"á":{"ha":817,"x_min":56,"x_max":770,"o":"m 490 80 q 275 -17 390 -17 q 117 43 178 -17 q 56 197 56 102 q 154 388 56 321 q 437 454 253 454 l 490 454 l 490 522 q 358 638 490 638 q 121 572 241 638 l 121 710 q 391 762 257 762 q 683 529 683 762 l 683 199 q 736 112 683 112 q 770 119 749 112 l 770 2 q 658 -17 707 -17 q 499 80 534 -17 l 490 80 m 490 188 l 490 339 l 443 339 q 300 307 352 339 q 248 217 248 274 q 276 148 248 176 q 346 119 304 119 q 490 188 416 119 m 270 870 l 433 1088 l 617 1088 l 399 870 l 270 870 z "},"à":{"ha":817,"x_min":56,"x_max":770,"o":"m 490 80 q 275 -17 390 -17 q 117 43 178 -17 q 56 197 56 102 q 154 388 56 321 q 437 454 253 454 l 490 454 l 490 522 q 358 638 490 638 q 121 572 241 638 l 121 710 q 391 762 257 762 q 683 529 683 762 l 683 199 q 736 112 683 112 q 770 119 749 112 l 770 2 q 658 -17 707 -17 q 499 80 534 -17 l 490 80 m 490 188 l 490 339 l 443 339 q 300 307 352 339 q 248 217 248 274 q 276 148 248 176 q 346 119 304 119 q 490 188 416 119 m 530 870 l 401 870 l 183 1088 l 367 1088 l 530 870 z "},"â":{"ha":817,"x_min":56,"x_max":770,"o":"m 490 80 q 275 -17 390 -17 q 117 43 178 -17 q 56 197 56 102 q 154 388 56 321 q 437 454 253 454 l 490 454 l 490 522 q 358 638 490 638 q 121 572 241 638 l 121 710 q 391 762 257 762 q 683 529 683 762 l 683 199 q 736 112 683 112 q 770 119 749 112 l 770 2 q 658 -17 707 -17 q 499 80 534 -17 l 490 80 m 490 188 l 490 339 l 443 339 q 300 307 352 339 q 248 217 248 274 q 276 148 248 176 q 346 119 304 119 q 490 188 416 119 m 148 870 l 311 1088 l 496 1088 l 660 870 l 538 870 l 404 1004 l 403 1004 l 269 870 l 148 870 z "},"ä":{"ha":817,"x_min":56,"x_max":770,"o":"m 490 80 q 275 -17 390 -17 q 117 43 178 -17 q 56 197 56 102 q 154 388 56 321 q 437 454 253 454 l 490 454 l 490 522 q 358 638 490 638 q 121 572 241 638 l 121 710 q 391 762 257 762 q 683 529 683 762 l 683 199 q 736 112 683 112 q 770 119 749 112 l 770 2 q 658 -17 707 -17 q 499 80 534 -17 l 490 80 m 490 188 l 490 339 l 443 339 q 300 307 352 339 q 248 217 248 274 q 276 148 248 176 q 346 119 304 119 q 490 188 416 119 m 182 870 l 182 1021 l 332 1021 l 332 870 l 182 870 m 466 870 l 466 1021 l 616 1021 l 616 870 l 466 870 z "},"ã":{"ha":817,"x_min":56,"x_max":770,"o":"m 490 80 q 275 -17 390 -17 q 117 43 178 -17 q 56 197 56 102 q 154 388 56 321 q 437 454 253 454 l 490 454 l 490 522 q 358 638 490 638 q 121 572 241 638 l 121 710 q 391 762 257 762 q 683 529 683 762 l 683 199 q 736 112 683 112 q 770 119 749 112 l 770 2 q 658 -17 707 -17 q 499 80 534 -17 l 490 80 m 490 188 l 490 339 l 443 339 q 300 307 352 339 q 248 217 248 274 q 276 148 248 176 q 346 119 304 119 q 490 188 416 119 m 248 870 l 147 870 q 283 1088 147 1088 q 370 1059 328 1088 l 395 1041 l 416 1026 q 478 996 460 996 q 524 1088 524 996 l 624 1088 q 488 870 624 870 q 402 899 444 870 l 376 917 q 355 932 359 928 q 293 962 313 962 q 248 870 248 962 z "},"å":{"ha":817,"x_min":56,"x_max":770,"o":"m 490 80 q 275 -17 390 -17 q 117 43 178 -17 q 56 197 56 102 q 154 388 56 321 q 437 454 253 454 l 490 454 l 490 522 q 358 638 490 638 q 121 572 241 638 l 121 710 q 391 762 257 762 q 683 529 683 762 l 683 199 q 736 112 683 112 q 770 119 749 112 l 770 2 q 658 -17 707 -17 q 499 80 534 -17 l 490 80 m 490 188 l 490 339 l 443 339 q 300 307 352 339 q 248 217 248 274 q 276 148 248 176 q 346 119 304 119 q 490 188 416 119 m 397 870 q 290 915 334 870 q 245 1024 245 960 q 290 1133 245 1088 q 399 1178 335 1178 q 508 1133 463 1178 q 553 1024 553 1088 q 508 915 553 959 q 397 870 463 870 m 398 937 q 461 962 435 937 q 486 1025 486 987 q 461 1086 486 1061 q 399 1111 435 1111 q 338 1086 363 1111 q 313 1024 313 1061 q 338 963 313 988 q 398 937 363 937 z "},"ç":{"ha":739,"x_min":58,"x_max":675,"o":"m 675 16 q 444 -17 550 -17 q 162 88 265 -17 q 58 373 58 193 q 165 659 58 555 q 459 762 271 762 q 669 732 550 762 l 669 587 q 471 627 545 627 q 326 558 381 627 q 271 374 271 489 q 331 186 271 257 q 489 116 390 116 q 675 155 579 116 l 675 16 m 374 0 l 467 0 l 415 -77 q 572 -182 572 -94 q 524 -261 572 -229 q 404 -293 475 -293 q 276 -273 348 -293 l 276 -211 q 355 -221 323 -221 q 438 -180 438 -221 q 306 -123 438 -123 l 292 -123 l 374 0 z "},"é":{"ha":814,"x_min":58,"x_max":732,"o":"m 732 25 q 460 -17 589 -17 q 166 89 274 -17 q 58 378 58 195 q 157 656 58 551 q 418 762 256 762 q 656 659 581 762 q 732 332 732 555 l 270 332 q 504 119 290 119 q 732 166 605 119 l 732 25 m 267 446 l 534 446 q 412 636 534 636 q 267 446 287 636 m 286 870 l 449 1088 l 633 1088 l 415 870 l 286 870 z "},"è":{"ha":814,"x_min":58,"x_max":732,"o":"m 732 25 q 460 -17 589 -17 q 166 89 274 -17 q 58 378 58 195 q 157 656 58 551 q 418 762 256 762 q 656 659 581 762 q 732 332 732 555 l 270 332 q 504 119 290 119 q 732 166 605 119 l 732 25 m 267 446 l 534 446 q 412 636 534 636 q 267 446 287 636 m 544 870 l 414 870 l 197 1088 l 380 1088 l 544 870 z "},"ê":{"ha":814,"x_min":58,"x_max":732,"o":"m 732 25 q 460 -17 589 -17 q 166 89 274 -17 q 58 378 58 195 q 157 656 58 551 q 418 762 256 762 q 656 659 581 762 q 732 332 732 555 l 270 332 q 504 119 290 119 q 732 166 605 119 l 732 25 m 267 446 l 534 446 q 412 636 534 636 q 267 446 287 636 m 159 870 l 322 1088 l 507 1088 l 671 870 l 549 870 l 415 1004 l 414 1004 l 280 870 l 159 870 z "},"ë":{"ha":814,"x_min":58,"x_max":732,"o":"m 732 25 q 460 -17 589 -17 q 166 89 274 -17 q 58 378 58 195 q 157 656 58 551 q 418 762 256 762 q 656 659 581 762 q 732 332 732 555 l 270 332 q 504 119 290 119 q 732 166 605 119 l 732 25 m 267 446 l 534 446 q 412 636 534 636 q 267 446 287 636 m 197 870 l 197 1021 l 348 1021 l 348 870 l 197 870 m 481 870 l 481 1021 l 632 1021 l 632 870 l 481 870 z "},"í":{"ha":452,"x_min":96,"x_max":444,"o":"m 125 0 l 125 745 l 326 745 l 326 0 l 125 0 m 96 870 l 260 1088 l 444 1088 l 226 870 l 96 870 z "},"ì":{"ha":452,"x_min":9,"x_max":357,"o":"m 125 0 l 125 745 l 326 745 l 326 0 l 125 0 m 357 870 l 227 870 l 9 1088 l 193 1088 l 357 870 z "},"î":{"ha":452,"x_min":-28,"x_max":484,"o":"m 125 0 l 125 745 l 326 745 l 326 0 l 125 0 m -28 870 l 135 1088 l 320 1088 l 484 870 l 362 870 l 228 1004 l 227 1004 l 93 870 l -28 870 z "},"ï":{"ha":452,"x_min":8,"x_max":443,"o":"m 125 0 l 125 745 l 326 745 l 326 0 l 125 0 m 8 870 l 8 1021 l 159 1021 l 159 870 l 8 870 m 292 870 l 292 1021 l 443 1021 l 443 870 l 292 870 z "},"ñ":{"ha":912,"x_min":125,"x_max":795,"o":"m 125 0 l 125 745 l 326 745 l 326 604 q 580 762 425 762 q 737 699 680 762 q 795 526 795 635 l 795 0 l 594 0 l 594 477 q 510 604 594 604 q 326 469 414 604 l 326 0 l 125 0 m 317 870 l 217 870 q 353 1088 217 1088 q 439 1059 397 1088 l 465 1041 l 486 1026 q 548 996 530 996 q 593 1088 593 996 l 694 1088 q 557 870 694 870 q 472 899 513 870 l 446 917 q 425 932 429 928 q 363 962 383 962 q 317 870 317 962 z "},"ó":{"ha":887,"x_min":58,"x_max":828,"o":"m 438 -17 q 161 89 264 -17 q 58 372 58 194 q 162 657 58 553 q 443 762 265 762 q 725 657 621 762 q 828 374 828 553 q 724 87 828 191 q 438 -17 621 -17 m 441 109 q 569 179 523 109 q 614 374 614 249 q 569 566 614 495 q 443 636 523 636 q 318 566 363 636 q 272 372 272 495 q 317 180 272 251 q 441 109 363 109 m 314 870 l 477 1088 l 661 1088 l 444 870 l 314 870 z "},"ò":{"ha":887,"x_min":58,"x_max":828,"o":"m 438 -17 q 161 89 264 -17 q 58 372 58 194 q 162 657 58 553 q 443 762 265 762 q 725 657 621 762 q 828 374 828 553 q 724 87 828 191 q 438 -17 621 -17 m 441 109 q 569 179 523 109 q 614 374 614 249 q 569 566 614 495 q 443 636 523 636 q 318 566 363 636 q 272 372 272 495 q 317 180 272 251 q 441 109 363 109 m 573 870 l 444 870 l 226 1088 l 410 1088 l 573 870 z "},"ô":{"ha":887,"x_min":58,"x_max":828,"o":"m 438 -17 q 161 89 264 -17 q 58 372 58 194 q 162 657 58 553 q 443 762 265 762 q 725 657 621 762 q 828 374 828 553 q 724 87 828 191 q 438 -17 621 -17 m 441 109 q 569 179 523 109 q 614 374 614 249 q 569 566 614 495 q 443 636 523 636 q 318 566 363 636 q 272 372 272 495 q 317 180 272 251 q 441 109 363 109 m 187 870 l 351 1088 l 536 1088 l 699 870 l 578 870 l 444 1004 l 442 1004 l 309 870 l 187 870 z "},"ö":{"ha":887,"x_min":58,"x_max":828,"o":"m 438 -17 q 161 89 264 -17 q 58 372 58 194 q 162 657 58 553 q 443 762 265 762 q 725 657 621 762 q 828 374 828 553 q 724 87 828 191 q 438 -17 621 -17 m 441 109 q 569 179 523 109 q 614 374 614 249 q 569 566 614 495 q 443 636 523 636 q 318 566 363 636 q 272 372 272 495 q 317 180 272 251 q 441 109 363 109 m 226 870 l 226 1021 l 376 1021 l 376 870 l 226 870 m 510 870 l 510 1021 l 661 1021 l 661 870 l 510 870 z "},"õ":{"ha":887,"x_min":58,"x_max":828,"o":"m 438 -17 q 161 89 264 -17 q 58 372 58 194 q 162 657 58 553 q 443 762 265 762 q 725 657 621 762 q 828 374 828 553 q 724 87 828 191 q 438 -17 621 -17 m 441 109 q 569 179 523 109 q 614 374 614 249 q 569 566 614 495 q 443 636 523 636 q 318 566 363 636 q 272 372 272 495 q 317 180 272 251 q 441 109 363 109 m 305 870 l 205 870 q 341 1088 205 1088 q 427 1059 385 1088 l 453 1041 l 474 1026 q 536 996 517 996 q 581 1088 581 996 l 682 1088 q 545 870 682 870 q 460 899 501 870 l 433 917 q 412 932 417 928 q 351 962 371 962 q 305 870 305 962 z "},"ú":{"ha":912,"x_min":117,"x_max":787,"o":"m 586 0 l 586 140 q 332 -17 488 -17 q 175 46 233 -17 q 117 218 117 109 l 117 745 l 318 745 l 318 268 q 403 141 318 141 q 586 276 498 141 l 586 745 l 787 745 l 787 0 l 586 0 m 322 870 l 486 1088 l 669 1088 l 452 870 l 322 870 z "},"ù":{"ha":912,"x_min":117,"x_max":787,"o":"m 586 0 l 586 140 q 332 -17 488 -17 q 175 46 233 -17 q 117 218 117 109 l 117 745 l 318 745 l 318 268 q 403 141 318 141 q 586 276 498 141 l 586 745 l 787 745 l 787 0 l 586 0 m 583 870 l 454 870 l 236 1088 l 420 1088 l 583 870 z "},"û":{"ha":912,"x_min":117,"x_max":787,"o":"m 586 0 l 586 140 q 332 -17 488 -17 q 175 46 233 -17 q 117 218 117 109 l 117 745 l 318 745 l 318 268 q 403 141 318 141 q 586 276 498 141 l 586 745 l 787 745 l 787 0 l 586 0 m 195 870 l 359 1088 l 544 1088 l 707 870 l 586 870 l 452 1004 l 450 1004 l 317 870 l 195 870 z "},"ü":{"ha":912,"x_min":117,"x_max":787,"o":"m 586 0 l 586 140 q 332 -17 488 -17 q 175 46 233 -17 q 117 218 117 109 l 117 745 l 318 745 l 318 268 q 403 141 318 141 q 586 276 498 141 l 586 745 l 787 745 l 787 0 l 586 0 m 234 870 l 234 1021 l 385 1021 l 385 870 l 234 870 m 518 870 l 518 1021 l 669 1021 l 669 870 l 518 870 z "},"":{"ha":887,"x_min":121,"x_max":766,"o":"m 343 -201 l 360 544 l 121 527 l 121 677 l 360 661 l 343 1004 l 544 1004 l 527 661 l 766 677 l 766 527 l 527 544 l 544 -201 l 343 -201 z "},"°":{"ha":435,"x_min":67,"x_max":368,"o":"m 216 728 q 111 772 155 728 q 67 879 67 817 q 111 985 67 942 q 218 1029 155 1029 q 325 985 281 1029 q 368 879 368 942 q 324 771 368 815 q 216 728 280 728 m 217 795 q 276 820 251 795 q 301 878 301 844 q 276 937 301 912 q 218 962 251 962 q 159 937 184 962 q 134 878 134 912 q 159 820 134 845 q 217 795 184 795 z "},"¢":{"ha":887,"x_min":100,"x_max":741,"o":"m 461 0 l 461 119 q 196 233 292 129 q 100 510 100 336 q 192 785 100 686 q 461 900 285 885 l 461 1004 l 570 1004 l 570 899 q 741 871 658 892 l 741 725 q 570 769 647 764 l 570 254 q 741 291 656 259 l 741 154 q 570 122 655 128 l 570 0 l 461 0 m 461 265 l 461 767 q 315 520 315 723 q 461 265 315 318 z "},"£":{"ha":887,"x_min":153,"x_max":782,"o":"m 153 0 l 153 159 q 257 219 227 176 q 286 350 286 261 l 286 473 l 176 473 l 176 598 l 286 598 l 286 713 q 591 1029 286 1029 q 772 1013 672 1029 l 772 876 q 615 903 690 903 q 487 758 487 903 l 487 598 l 619 598 l 619 473 l 487 473 q 459 280 487 339 q 340 159 431 220 l 782 159 l 782 0 l 153 0 z "},"§":{"ha":887,"x_min":127,"x_max":773,"o":"m 134 -189 l 134 -40 q 418 -100 305 -100 q 587 -5 587 -100 q 564 51 587 30 q 463 106 540 73 l 359 151 q 183 261 235 204 q 131 401 131 319 q 233 608 131 507 q 127 782 127 675 q 219 962 127 894 q 464 1029 312 1029 q 727 1002 587 1029 l 727 863 q 481 903 593 903 q 359 878 404 903 q 313 811 313 853 q 421 710 313 754 l 512 673 q 707 558 652 616 q 762 410 762 500 q 664 202 762 309 q 773 15 773 132 q 676 -164 773 -102 q 397 -227 580 -227 q 134 -189 286 -227 m 570 254 q 610 353 610 308 q 582 425 610 397 q 473 489 553 453 l 327 555 q 288 460 288 505 q 429 317 288 380 l 570 254 z "},"":{"ha":870,"x_min":151,"x_max":720,"o":"m 151 405 q 235 603 151 520 q 435 686 319 686 q 636 603 553 686 q 720 401 720 519 q 636 201 720 284 q 436 117 553 117 q 233 201 316 117 q 151 405 151 284 z "},"¶":{"ha":887,"x_min":100,"x_max":686,"o":"m 368 -201 l 368 502 q 100 780 100 538 q 165 952 100 900 q 380 1004 231 1004 l 686 1004 l 686 -201 l 577 -201 l 577 912 l 477 912 l 477 -201 l 368 -201 z "},"ß":{"ha":918,"x_min":125,"x_max":890,"o":"m 125 0 l 125 767 q 429 1088 125 1088 q 637 1040 560 1088 q 714 911 714 992 q 670 783 714 845 l 629 725 q 581 629 581 659 q 652 528 581 587 l 745 452 q 858 333 826 385 q 890 213 890 280 q 820 45 890 108 q 631 -17 749 -17 q 426 20 536 -17 l 426 159 q 607 109 531 109 q 682 132 653 109 q 710 193 710 155 q 627 304 710 236 l 527 388 q 418 562 418 479 q 444 659 418 612 l 475 714 l 509 773 q 538 871 538 823 q 432 964 538 964 q 326 820 326 964 l 326 0 l 125 0 z "},"®":{"ha":1167,"x_min":56,"x_max":1110,"o":"m 577 -25 q 210 131 363 -25 q 56 502 56 286 q 211 874 56 720 q 583 1029 366 1029 q 956 874 801 1029 q 1110 503 1110 720 q 955 129 1110 282 q 577 -25 800 -25 m 577 62 q 919 220 792 62 q 1023 503 1023 349 q 919 783 1023 654 q 583 941 792 941 q 248 783 374 941 q 144 502 144 654 q 272 193 144 323 q 577 62 401 62 m 374 218 l 374 788 l 602 788 q 793 647 793 788 q 672 484 793 534 l 840 218 l 691 218 l 563 451 l 490 451 l 490 218 l 374 218 m 490 529 l 521 529 q 668 633 668 529 q 536 709 668 709 l 490 709 l 490 529 z "},"©":{"ha":1167,"x_min":56,"x_max":1110,"o":"m 797 230 q 608 201 695 201 q 384 284 469 201 q 298 503 298 368 q 380 719 298 639 q 603 799 463 799 q 797 774 692 799 l 797 684 q 616 724 699 724 q 477 662 530 724 q 424 502 424 601 q 482 344 424 404 q 635 284 541 284 q 797 320 729 284 l 797 230 m 577 -25 q 210 131 363 -25 q 56 502 56 286 q 211 874 56 720 q 583 1029 366 1029 q 956 874 801 1029 q 1110 503 1110 720 q 955 129 1110 282 q 577 -25 800 -25 m 577 62 q 919 220 792 62 q 1023 503 1023 349 q 919 783 1023 654 q 583 941 792 941 q 248 783 374 941 q 144 502 144 654 q 272 193 144 323 q 577 62 401 62 z "},"":{"ha":1389,"x_min":134,"x_max":1255,"o":"m 315 502 l 315 920 l 134 920 l 134 1004 l 631 1004 l 631 920 l 450 920 l 450 502 l 315 502 m 720 502 l 720 1004 l 892 1004 l 998 684 l 1105 1004 l 1255 1004 l 1255 502 l 1133 502 l 1133 853 l 1025 536 l 927 536 l 820 862 l 820 502 l 720 502 z "},"´":{"ha":887,"x_min":314,"x_max":661,"o":"m 314 870 l 477 1088 l 661 1088 l 444 870 l 314 870 z "},"¨":{"ha":887,"x_min":226,"x_max":661,"o":"m 226 870 l 226 1021 l 376 1021 l 376 870 l 226 870 m 510 870 l 510 1021 l 661 1021 l 661 870 l 510 870 z "},"≠":{"ha":1105,"x_min":151,"x_max":954,"o":"m 382 33 l 441 210 l 151 210 l 151 326 l 479 326 l 530 477 l 151 477 l 151 594 l 569 594 l 627 770 l 733 770 l 675 594 l 954 594 l 954 477 l 636 477 l 586 326 l 954 326 l 954 210 l 547 210 l 488 33 l 382 33 z "},"Æ":{"ha":1330,"x_min":14,"x_max":1280,"o":"m 14 0 l 583 1004 l 1249 1004 l 1249 866 l 827 866 l 827 586 l 1174 586 l 1174 448 l 827 448 l 827 142 l 1280 142 l 1280 0 l 621 0 l 621 259 l 325 259 l 177 0 l 14 0 m 397 389 l 621 389 l 621 783 l 397 389 z "},"Ø":{"ha":1143,"x_min":62,"x_max":1080,"o":"m 324 288 l 762 807 q 570 891 689 891 q 362 785 440 891 q 283 503 283 679 q 324 288 283 391 m 62 -25 l 189 127 q 62 503 62 273 q 199 886 62 744 q 570 1029 337 1029 q 876 943 745 1029 l 949 1029 l 1080 1029 l 951 877 q 1080 500 1080 732 q 942 117 1080 260 q 571 -25 804 -25 q 265 61 397 -25 l 193 -25 l 62 -25 m 379 197 q 571 113 453 113 q 780 219 701 113 q 858 503 858 326 q 817 717 858 615 l 379 197 z "},"∞":{"ha":1180,"x_min":83,"x_max":1096,"o":"m 610 524 q 861 703 730 703 q 1028 622 960 703 q 1096 423 1096 541 q 1022 193 1096 285 q 837 100 947 100 q 566 266 718 100 q 325 100 460 100 q 152 179 220 100 q 83 381 83 258 q 159 609 83 514 q 342 703 235 703 q 610 524 482 703 m 485 366 q 304 513 375 513 q 241 471 266 513 q 216 366 216 430 q 245 262 216 301 q 326 224 275 224 q 396 252 365 224 q 485 366 427 279 m 691 416 q 869 281 798 281 q 970 432 970 281 q 938 531 970 491 q 861 571 907 571 q 784 541 817 571 q 691 416 751 511 z "},"±":{"ha":1105,"x_min":151,"x_max":954,"o":"m 151 0 l 151 117 l 954 117 l 954 0 l 151 0 m 494 201 l 494 444 l 151 444 l 151 561 l 494 561 l 494 803 l 611 803 l 611 561 l 954 561 l 954 444 l 611 444 l 611 201 l 494 201 z "},"≤":{"ha":1105,"x_min":151,"x_max":954,"o":"m 954 161 l 151 482 l 954 803 l 954 677 l 467 483 l 467 481 l 954 287 l 954 161 m 151 0 l 151 117 l 954 117 l 954 0 l 151 0 z "},"≥":{"ha":1105,"x_min":151,"x_max":954,"o":"m 151 161 l 151 287 l 637 481 l 637 483 l 151 677 l 151 803 l 954 482 l 151 161 m 954 0 l 151 0 l 151 117 l 954 117 l 954 0 z "},"¥":{"ha":887,"x_min":28,"x_max":867,"o":"m 338 0 l 338 205 l 162 205 l 162 305 l 338 305 l 338 406 l 162 406 l 162 506 l 332 506 l 28 1004 l 254 1004 l 479 635 l 718 1004 l 867 1004 l 545 506 l 715 506 l 715 406 l 539 406 l 539 305 l 715 305 l 715 205 l 539 205 l 539 0 l 338 0 z "},"µ":{"ha":920,"x_min":121,"x_max":791,"o":"m 590 142 q 475 38 544 77 q 333 0 406 0 l 322 0 l 322 -201 l 121 -201 l 121 745 l 322 745 l 322 268 q 407 141 322 141 q 590 276 502 141 l 590 745 l 791 745 l 791 0 l 590 0 l 590 142 z "},"∂":{"ha":887,"x_min":115,"x_max":759,"o":"m 138 865 q 267 1036 198 984 q 435 1088 336 1088 q 671 965 583 1088 q 759 636 759 843 q 718 369 759 505 q 611 140 677 232 q 328 -17 498 -17 q 173 46 230 -17 q 115 217 115 109 q 234 555 115 399 q 492 710 353 710 q 632 658 558 710 l 632 680 q 558 874 632 799 q 369 949 485 949 q 138 865 259 949 m 624 522 q 529 571 581 571 q 390 464 454 571 q 326 231 326 357 q 391 141 326 141 q 534 250 468 141 q 624 522 601 358 z "},"∑":{"ha":973,"x_min":45,"x_max":948,"o":"m 45 -201 l 45 -27 l 452 380 l 87 866 l 87 1004 l 915 1004 l 915 866 l 337 866 l 678 411 l 234 -33 l 948 -33 l 948 -201 l 45 -201 z "},"∏":{"ha":1120,"x_min":77,"x_max":1043,"o":"m 144 -201 l 144 866 l 77 866 l 77 1004 l 1043 1004 l 1043 866 l 976 866 l 976 -201 l 767 -201 l 767 866 l 353 866 l 353 -201 l 144 -201 z "},"π":{"ha":1100,"x_min":50,"x_max":1050,"o":"m 239 0 l 239 602 l 210 602 q 50 558 126 602 l 50 714 q 226 745 125 745 l 1050 745 l 1050 602 l 900 602 l 900 200 q 951 0 900 86 l 743 0 q 699 205 699 98 l 699 602 l 439 602 l 439 0 l 239 0 z "},"∫":{"ha":887,"x_min":154,"x_max":734,"o":"m 585 913 q 515 793 515 882 q 521 711 515 760 q 543 473 536 569 l 551 339 q 491 -48 566 104 q 288 -201 417 -201 q 193 -166 231 -201 q 154 -81 154 -132 q 178 -12 154 -40 q 235 17 201 17 q 311 -54 311 17 q 301 -90 311 -70 q 354 -49 339 -77 q 369 33 369 -22 q 363 119 369 66 q 343 375 343 329 l 341 508 q 410 907 341 791 q 599 1029 482 1029 q 695 994 656 1029 q 734 905 734 958 q 650 803 734 803 q 577 873 577 803 q 585 913 577 886 z "},"ª":{"ha":669,"x_min":125,"x_max":576,"o":"m 384 610 q 267 558 332 558 q 165 596 205 558 q 125 693 125 634 q 359 849 125 849 l 391 849 l 391 881 q 311 945 391 945 q 165 904 235 945 l 165 1000 q 334 1029 247 1029 q 533 888 533 1029 l 533 692 q 560 652 533 652 q 576 654 568 652 l 576 568 q 501 558 533 558 q 393 610 420 558 l 384 610 m 391 691 l 391 768 l 360 768 q 267 705 267 768 q 318 652 267 652 q 391 691 355 652 z "},"º":{"ha":669,"x_min":89,"x_max":581,"o":"m 332 558 q 154 622 220 558 q 89 793 89 685 q 155 966 89 903 q 335 1029 220 1029 q 515 966 449 1029 q 581 794 581 903 q 515 621 581 683 q 332 558 449 558 m 334 645 q 420 795 420 645 q 397 902 420 861 q 335 943 373 943 q 273 902 296 943 q 249 793 249 861 q 272 686 249 728 q 334 645 296 645 z "},"Ω":{"ha":1163,"x_min":46,"x_max":1118,"o":"m 46 0 l 46 138 l 328 138 q 80 578 80 323 q 220 903 80 778 q 582 1029 359 1029 q 944 903 804 1029 q 1084 578 1084 778 q 836 138 1084 324 l 1118 138 l 1118 0 l 659 0 l 659 138 q 862 563 862 290 q 787 803 862 715 q 582 891 712 891 q 377 803 452 891 q 302 562 302 715 q 505 138 302 290 l 505 0 l 46 0 z "},"æ":{"ha":1226,"x_min":56,"x_max":1145,"o":"m 543 130 q 279 -17 439 -17 q 117 42 179 -17 q 56 197 56 101 q 154 386 56 320 q 437 452 253 452 l 490 452 l 490 522 q 358 638 490 638 q 121 572 241 638 l 121 710 q 387 762 257 762 q 612 680 504 762 q 837 762 715 762 q 1070 657 995 762 q 1145 332 1145 553 l 683 332 q 918 119 704 119 q 1145 166 1018 119 l 1145 25 q 861 -17 1002 -17 q 677 16 749 -17 q 543 130 606 50 m 490 188 l 490 339 l 443 339 q 301 306 353 339 q 248 217 248 273 q 276 148 248 176 q 346 119 304 119 q 490 188 416 119 m 681 446 l 947 446 q 825 638 947 638 q 681 446 700 638 z "},"ø":{"ha":887,"x_min":60,"x_max":829,"o":"m 225 38 l 180 -17 l 60 -17 l 154 96 q 60 373 60 208 q 163 657 60 553 q 444 762 267 762 q 664 707 568 762 l 709 762 l 829 762 l 735 648 q 829 372 829 538 q 726 87 829 192 q 446 -17 623 -17 q 225 38 319 -17 m 330 163 q 445 109 374 109 q 570 179 524 109 q 616 372 616 250 q 602 489 616 430 l 330 163 m 559 581 q 444 636 515 636 q 319 566 365 636 q 273 373 273 495 q 288 256 273 314 l 559 581 z "},"¿":{"ha":690,"x_min":38,"x_max":649,"o":"m 501 745 l 501 577 l 300 577 l 300 745 l 501 745 m 300 460 l 501 460 l 501 441 q 401 221 501 332 l 353 168 q 256 -24 256 60 q 414 -151 256 -151 q 649 -90 517 -151 l 649 -243 q 385 -284 513 -284 q 131 -222 224 -284 q 38 -54 38 -161 q 149 149 38 43 l 195 193 q 279 295 258 253 q 300 403 300 336 l 300 460 z "},"¡":{"ha":435,"x_min":117,"x_max":318,"o":"m 318 745 l 318 577 l 117 577 l 117 745 l 318 745 m 285 460 l 318 -58 l 318 -259 l 117 -259 l 117 -58 l 151 460 l 285 460 z "},"¬":{"ha":1105,"x_min":151,"x_max":954,"o":"m 151 486 l 151 602 l 954 602 l 954 201 l 837 201 l 837 486 l 151 486 z "},"√":{"ha":1121,"x_min":120,"x_max":1137,"o":"m 157 304 l 120 378 l 329 484 l 568 5 l 568 5 l 1067 1252 l 1137 1246 l 585 -134 l 507 -134 l 262 356 l 157 304 z "},"":{"ha":887,"x_min":149,"x_max":853,"o":"m 149 -201 l 283 473 l 182 473 l 182 598 l 307 598 l 321 659 q 708 1029 400 1029 q 853 1017 789 1029 l 853 878 q 707 904 770 904 q 535 718 571 904 l 512 598 l 632 598 l 632 473 l 487 473 l 353 -201 l 149 -201 z "},"≈":{"ha":1105,"x_min":151,"x_max":954,"o":"m 151 452 q 199 612 151 554 q 336 669 248 669 q 498 631 405 669 l 551 610 l 614 585 l 677 561 q 788 531 751 531 q 887 646 887 531 l 887 652 l 954 652 q 768 435 954 435 q 606 473 699 435 l 553 494 l 491 519 q 427 544 445 536 q 316 573 353 573 q 218 458 218 573 l 218 452 l 151 452 m 151 151 q 199 311 151 253 q 336 368 248 368 q 498 330 405 368 l 551 309 l 614 284 l 677 260 q 788 230 751 230 q 887 345 887 230 l 887 351 l 954 351 q 768 134 954 134 q 606 172 699 134 l 553 193 l 491 218 q 427 243 445 235 q 316 272 353 272 q 218 157 218 272 l 218 151 l 151 151 z "},"∆":{"ha":1023,"x_min":17,"x_max":1006,"o":"m 17 0 l 17 174 l 419 1004 l 618 1004 l 1006 174 l 1006 0 l 17 0 m 176 174 l 785 174 l 485 819 l 176 174 z "},"«":{"ha":791,"x_min":58,"x_max":745,"o":"m 745 602 l 566 372 l 745 142 l 650 71 l 368 372 l 650 673 l 745 602 m 435 600 l 257 372 l 435 142 l 340 71 l 58 372 l 340 673 l 435 600 z "},"»":{"ha":791,"x_min":46,"x_max":732,"o":"m 46 142 l 224 372 l 46 602 l 140 673 l 422 372 l 140 71 l 46 142 m 355 144 l 534 372 l 355 602 l 450 673 l 732 372 l 450 71 l 355 144 z "},"":{"ha":1389,"x_min":123,"x_max":1266,"o":"m 123 0 l 123 218 l 340 218 l 340 0 l 123 0 m 586 0 l 586 218 l 803 218 l 803 0 l 586 0 m 1048 0 l 1048 218 l 1266 218 l 1266 0 l 1048 0 z "}," ":{"ha":443,"x_min":0,"x_max":0,"o":""},"À":{"ha":1023,"x_min":16,"x_max":1006,"o":"m 16 0 l 406 1004 l 615 1004 l 1006 0 l 791 0 l 687 268 l 272 268 l 168 0 l 16 0 m 323 401 l 635 401 l 479 802 l 323 401 m 641 1088 l 511 1088 l 294 1306 l 477 1306 l 641 1088 z "},"Ã":{"ha":1023,"x_min":16,"x_max":1006,"o":"m 16 0 l 406 1004 l 615 1004 l 1006 0 l 791 0 l 687 268 l 272 268 l 168 0 l 16 0 m 323 401 l 635 401 l 479 802 l 323 401 m 372 1088 l 271 1088 q 408 1306 271 1306 q 494 1277 452 1306 l 519 1259 l 541 1244 q 602 1214 584 1214 q 648 1306 648 1214 l 748 1306 q 612 1088 748 1088 q 526 1118 568 1088 l 500 1135 q 479 1150 484 1147 q 417 1181 437 1181 q 372 1088 372 1181 z "},"Õ":{"ha":1143,"x_min":63,"x_max":1081,"o":"m 566 -25 q 200 119 337 -25 q 63 502 63 262 q 201 886 63 744 q 572 1029 338 1029 q 943 886 805 1029 q 1081 504 1081 744 q 943 117 1081 258 q 566 -25 805 -25 m 568 113 q 781 219 703 113 q 859 505 859 324 q 781 785 859 680 q 572 891 702 891 q 363 785 441 891 q 285 503 285 680 q 363 220 285 327 q 568 113 441 113 m 434 1088 l 334 1088 q 470 1306 334 1306 q 556 1277 514 1306 l 582 1259 l 603 1244 q 665 1214 646 1214 q 710 1306 710 1214 l 810 1306 q 674 1088 810 1088 q 589 1118 630 1088 l 562 1135 q 541 1150 546 1147 q 479 1181 500 1181 q 434 1088 434 1181 z "},"":{"ha":1471,"x_min":63,"x_max":1421,"o":"m 762 25 q 562 -25 660 -25 q 200 119 336 -25 q 63 502 63 264 q 200 885 63 742 q 566 1029 337 1029 q 762 979 666 1029 l 762 1004 l 1390 1004 l 1390 866 l 972 866 l 972 586 l 1314 586 l 1314 448 l 972 448 l 972 142 l 1421 142 l 1421 0 l 762 0 l 762 25 m 762 403 l 762 602 q 716 823 762 755 q 567 891 671 891 q 363 784 441 891 q 285 502 285 676 q 363 220 285 328 q 568 113 441 113 q 717 181 671 113 q 762 403 762 248 z "},"":{"ha":1333,"x_min":63,"x_max":1252,"o":"m 690 94 q 573 5 623 27 q 437 -17 522 -17 q 164 88 265 -17 q 63 372 63 193 q 165 654 63 547 q 433 762 267 762 q 697 642 586 762 q 947 762 793 762 q 1178 657 1104 762 q 1252 332 1252 553 l 789 332 q 1024 119 810 119 q 1252 166 1125 119 l 1252 25 q 968 -17 1107 -17 q 690 94 808 -17 m 444 109 q 590 372 590 109 q 446 636 590 636 q 322 565 368 636 q 276 372 276 494 q 321 180 276 252 q 444 109 367 109 m 787 446 l 1054 446 q 932 638 1054 638 q 787 446 807 638 z "},"":{"ha":694,"x_min":58,"x_max":635,"o":"m 58 364 l 58 473 l 635 473 l 635 364 l 58 364 z "},"":{"ha":1389,"x_min":54,"x_max":1335,"o":"m 54 364 l 54 448 l 1335 448 l 1335 364 l 54 364 z "},"":{"ha":627,"x_min":63,"x_max":565,"o":"m 189 853 l 264 853 l 264 652 l 63 652 l 63 804 q 114 995 63 927 q 264 1071 165 1062 l 264 996 q 189 875 189 975 l 189 853 m 490 853 l 565 853 l 565 652 l 364 652 l 364 804 q 415 995 364 927 q 565 1071 466 1062 l 565 996 q 490 875 490 975 l 490 853 z "},"":{"ha":627,"x_min":63,"x_max":565,"o":"m 138 870 l 63 870 l 63 1071 l 264 1071 l 264 920 q 213 729 264 796 q 63 652 162 661 l 63 728 q 138 849 138 749 l 138 870 m 439 870 l 364 870 l 364 1071 l 565 1071 l 565 920 q 514 729 565 796 q 364 652 464 661 l 364 728 q 439 849 439 749 l 439 870 z "},"":{"ha":343,"x_min":63,"x_max":281,"o":"m 197 853 l 281 853 l 281 636 l 63 636 l 63 804 q 281 1071 63 1071 l 281 996 q 220 963 243 996 q 197 875 197 930 l 197 853 z "},"":{"ha":343,"x_min":63,"x_max":281,"o":"m 146 853 l 63 853 l 63 1071 l 281 1071 l 281 903 q 63 636 281 636 l 63 711 q 124 744 101 711 q 146 832 146 777 l 146 853 z "},"÷":{"ha":1105,"x_min":151,"x_max":954,"o":"m 151 343 l 151 460 l 954 460 l 954 343 l 151 343 m 469 636 l 469 803 l 636 803 l 636 636 l 469 636 m 469 0 l 469 168 l 636 168 l 636 0 l 469 0 z "},"◊":{"ha":1105,"x_min":151,"x_max":954,"o":"m 552 0 l 151 401 l 552 804 l 954 401 l 552 0 m 552 154 l 800 401 l 552 650 l 304 401 l 552 154 z "},"ÿ":{"ha":810,"x_min":21,"x_max":793,"o":"m 128 -268 l 297 0 l 21 745 l 237 745 l 421 247 l 640 745 l 793 745 l 333 -268 l 128 -268 m 204 870 l 204 1021 l 355 1021 l 355 870 l 204 870 m 488 870 l 488 1021 l 639 1021 l 639 870 l 488 870 z "},"":{"ha":954,"x_min":27,"x_max":924,"o":"m 364 0 l 364 420 l 27 1004 l 258 1004 l 503 580 l 758 1004 l 924 1004 l 573 422 l 573 0 l 364 0 m 275 1088 l 275 1239 l 425 1239 l 425 1088 l 275 1088 m 559 1088 l 559 1239 l 709 1239 l 709 1088 l 559 1088 z "},"¤":{"ha":887,"x_min":59,"x_max":828,"o":"m 610 752 l 745 886 l 828 804 l 693 669 q 745 502 745 589 q 693 335 745 415 l 827 200 l 745 117 l 610 252 l 610 252 q 444 201 529 201 q 276 252 357 201 l 276 252 l 142 117 l 59 200 l 193 335 q 142 502 142 415 q 193 669 142 589 l 59 804 l 142 886 l 276 752 q 444 803 357 803 q 610 752 529 803 m 445 652 q 337 608 381 652 q 292 501 292 564 q 337 395 292 439 q 444 351 381 351 q 550 395 505 351 q 594 502 594 439 q 550 608 594 564 q 445 652 506 652 z "},"":{"ha":481,"x_min":58,"x_max":435,"o":"m 435 602 l 257 372 l 435 142 l 340 71 l 58 372 l 340 673 l 435 602 z "},"":{"ha":481,"x_min":46,"x_max":422,"o":"m 46 142 l 224 372 l 46 602 l 140 673 l 422 372 l 140 71 l 46 142 z "},"":{"ha":887,"x_min":121,"x_max":766,"o":"m 343 -201 l 360 142 l 121 125 l 121 276 l 360 259 l 360 544 l 121 527 l 121 677 l 360 661 l 343 1004 l 544 1004 l 527 661 l 766 677 l 766 527 l 527 544 l 527 259 l 766 276 l 766 125 l 527 142 l 544 -201 l 343 -201 z "},"":{"ha":343,"x_min":63,"x_max":281,"o":"m 146 0 l 63 0 l 63 218 l 281 218 l 281 49 q 63 -218 281 -218 l 63 -142 q 124 -109 101 -142 q 146 -22 146 -76 l 146 0 z "},"":{"ha":627,"x_min":63,"x_max":565,"o":"m 138 0 l 63 0 l 63 201 l 264 201 l 264 50 q 213 -141 264 -74 q 63 -218 162 -209 l 63 -142 q 138 -21 138 -121 l 138 0 m 439 0 l 364 0 l 364 201 l 565 201 l 565 50 q 514 -141 565 -74 q 364 -218 463 -209 l 364 -142 q 439 -21 439 -121 l 439 0 z "},"":{"ha":1615,"x_min":17,"x_max":1598,"o":"m 81 -25 l 871 1029 l 1006 1029 l 218 -25 l 81 -25 m 253 502 q 80 569 144 502 q 17 753 17 637 q 81 937 17 870 q 256 1004 144 1004 q 430 937 366 1004 q 494 753 494 870 q 430 569 494 635 q 253 502 366 502 m 254 602 q 343 753 343 602 q 256 903 343 903 q 168 753 168 903 q 254 602 168 602 m 830 0 q 657 67 721 0 q 594 251 594 135 q 658 435 594 368 q 833 502 722 502 q 1007 435 944 502 q 1071 252 1071 368 q 1007 66 1071 133 q 830 0 943 0 m 831 100 q 920 252 920 100 q 833 401 920 401 q 745 251 745 401 q 831 100 745 100 m 1357 0 q 1185 67 1248 0 q 1122 251 1122 135 q 1185 435 1122 368 q 1360 502 1249 502 q 1535 435 1471 502 q 1598 252 1598 368 q 1534 66 1598 133 q 1357 0 1470 0 m 1358 100 q 1448 252 1448 100 q 1360 401 1448 401 q 1272 251 1272 401 q 1358 100 1272 100 z "},"Â":{"ha":1023,"x_min":16,"x_max":1006,"o":"m 16 0 l 406 1004 l 615 1004 l 1006 0 l 791 0 l 687 268 l 272 268 l 168 0 l 16 0 m 323 401 l 635 401 l 479 802 l 323 401 m 255 1088 l 418 1306 l 604 1306 l 767 1088 l 646 1088 l 511 1222 l 510 1222 l 376 1088 l 255 1088 z "},"Ê":{"ha":834,"x_min":125,"x_max":785,"o":"m 125 0 l 125 1004 l 753 1004 l 753 866 l 334 866 l 334 586 l 677 586 l 677 448 l 334 448 l 334 142 l 785 142 l 785 0 l 125 0 m 193 1088 l 356 1306 l 541 1306 l 705 1088 l 583 1088 l 449 1222 l 448 1222 l 314 1088 l 193 1088 z "},"Á":{"ha":1023,"x_min":16,"x_max":1006,"o":"m 16 0 l 406 1004 l 615 1004 l 1006 0 l 791 0 l 687 268 l 272 268 l 168 0 l 16 0 m 323 401 l 635 401 l 479 802 l 323 401 m 380 1088 l 544 1306 l 728 1306 l 510 1088 l 380 1088 z "},"Ë":{"ha":834,"x_min":125,"x_max":785,"o":"m 125 0 l 125 1004 l 753 1004 l 753 866 l 334 866 l 334 586 l 677 586 l 677 448 l 334 448 l 334 142 l 785 142 l 785 0 l 125 0 m 234 1088 l 234 1239 l 385 1239 l 385 1088 l 234 1088 m 518 1088 l 518 1239 l 669 1239 l 669 1088 l 518 1088 z "},"È":{"ha":834,"x_min":125,"x_max":785,"o":"m 125 0 l 125 1004 l 753 1004 l 753 866 l 334 866 l 334 586 l 677 586 l 677 448 l 334 448 l 334 142 l 785 142 l 785 0 l 125 0 m 578 1088 l 448 1088 l 231 1306 l 414 1306 l 578 1088 z "},"Í":{"ha":460,"x_min":101,"x_max":448,"o":"m 125 0 l 125 1004 l 334 1004 l 334 0 l 125 0 m 101 1088 l 264 1306 l 448 1306 l 231 1088 l 101 1088 z "},"Î":{"ha":460,"x_min":-24,"x_max":488,"o":"m 125 0 l 125 1004 l 334 1004 l 334 0 l 125 0 m -24 1088 l 139 1306 l 324 1306 l 488 1088 l 366 1088 l 232 1222 l 231 1222 l 97 1088 l -24 1088 z "},"Ï":{"ha":460,"x_min":13,"x_max":448,"o":"m 125 0 l 125 1004 l 334 1004 l 334 0 l 125 0 m 13 1088 l 13 1239 l 163 1239 l 163 1088 l 13 1088 m 297 1088 l 297 1239 l 448 1239 l 448 1088 l 297 1088 z "},"Ì":{"ha":460,"x_min":12,"x_max":359,"o":"m 125 0 l 125 1004 l 334 1004 l 334 0 l 125 0 m 359 1088 l 230 1088 l 12 1306 l 196 1306 l 359 1088 z "},"Ó":{"ha":1143,"x_min":63,"x_max":1081,"o":"m 566 -25 q 200 119 337 -25 q 63 502 63 262 q 201 886 63 744 q 572 1029 338 1029 q 943 886 805 1029 q 1081 504 1081 744 q 943 117 1081 258 q 566 -25 805 -25 m 568 113 q 781 219 703 113 q 859 505 859 324 q 781 785 859 680 q 572 891 702 891 q 363 785 441 891 q 285 503 285 680 q 363 220 285 327 q 568 113 441 113 m 441 1088 l 605 1306 l 789 1306 l 571 1088 l 441 1088 z "},"Ô":{"ha":1143,"x_min":63,"x_max":1081,"o":"m 566 -25 q 200 119 337 -25 q 63 502 63 262 q 201 886 63 744 q 572 1029 338 1029 q 943 886 805 1029 q 1081 504 1081 744 q 943 117 1081 258 q 566 -25 805 -25 m 568 113 q 781 219 703 113 q 859 505 859 324 q 781 785 859 680 q 572 891 702 891 q 363 785 441 891 q 285 503 285 680 q 363 220 285 327 q 568 113 441 113 m 316 1088 l 479 1306 l 665 1306 l 828 1088 l 707 1088 l 572 1222 l 571 1222 l 437 1088 l 316 1088 z "},"Ò":{"ha":1143,"x_min":63,"x_max":1081,"o":"m 566 -25 q 200 119 337 -25 q 63 502 63 262 q 201 886 63 744 q 572 1029 338 1029 q 943 886 805 1029 q 1081 504 1081 744 q 943 117 1081 258 q 566 -25 805 -25 m 568 113 q 781 219 703 113 q 859 505 859 324 q 781 785 859 680 q 572 891 702 891 q 363 785 441 891 q 285 503 285 680 q 363 220 285 327 q 568 113 441 113 m 702 1088 l 572 1088 l 355 1306 l 538 1306 l 702 1088 z "},"Ú":{"ha":1023,"x_min":117,"x_max":905,"o":"m 117 1004 l 326 1004 l 326 389 q 374 178 326 243 q 530 113 422 113 q 678 175 632 113 q 724 374 724 237 l 724 1004 l 905 1004 l 905 387 q 879 175 905 248 q 783 49 852 102 q 526 -25 687 -25 q 248 54 353 -25 q 146 182 175 108 q 117 389 117 256 l 117 1004 m 400 1088 l 564 1306 l 747 1306 l 530 1088 l 400 1088 z "},"Û":{"ha":1023,"x_min":117,"x_max":905,"o":"m 117 1004 l 326 1004 l 326 389 q 374 178 326 243 q 530 113 422 113 q 678 175 632 113 q 724 374 724 237 l 724 1004 l 905 1004 l 905 387 q 879 175 905 248 q 783 49 852 102 q 526 -25 687 -25 q 248 54 353 -25 q 146 182 175 108 q 117 389 117 256 l 117 1004 m 269 1088 l 433 1306 l 618 1306 l 781 1088 l 660 1088 l 526 1222 l 524 1222 l 391 1088 l 269 1088 z "},"Ù":{"ha":1023,"x_min":117,"x_max":905,"o":"m 117 1004 l 326 1004 l 326 389 q 374 178 326 243 q 530 113 422 113 q 678 175 632 113 q 724 374 724 237 l 724 1004 l 905 1004 l 905 387 q 879 175 905 248 q 783 49 852 102 q 526 -25 687 -25 q 248 54 353 -25 q 146 182 175 108 q 117 389 117 256 l 117 1004 m 660 1088 l 530 1088 l 313 1306 l 496 1306 l 660 1088 z "},"ı":{"ha":452,"x_min":125,"x_max":326,"o":"m 125 0 l 125 745 l 326 745 l 326 0 l 125 0 z "},"":{"ha":887,"x_min":187,"x_max":699,"o":"m 187 870 l 351 1088 l 536 1088 l 699 870 l 578 870 l 444 1004 l 442 1004 l 309 870 l 187 870 z "},"":{"ha":887,"x_min":205,"x_max":682,"o":"m 305 870 l 205 870 q 341 1088 205 1088 q 427 1059 385 1088 l 453 1041 l 474 1026 q 536 996 517 996 q 581 1088 581 996 l 682 1088 q 545 870 682 870 q 460 899 501 870 l 433 917 q 412 932 417 928 q 351 962 371 962 q 305 870 305 962 z "},"˘":{"ha":887,"x_min":203,"x_max":683,"o":"m 203 1088 l 304 1088 q 444 991 332 991 q 583 1088 555 991 l 683 1088 q 607 929 671 988 q 444 870 542 870 q 280 929 345 870 q 203 1088 215 987 z "},"˙":{"ha":887,"x_min":343,"x_max":544,"o":"m 343 870 l 343 1071 l 544 1071 l 544 870 l 343 870 z "},"˚":{"ha":887,"x_min":290,"x_max":597,"o":"m 441 870 q 334 915 378 870 q 290 1024 290 960 q 334 1133 290 1088 q 444 1178 379 1178 q 552 1133 507 1178 q 597 1024 597 1088 q 552 915 597 959 q 441 870 507 870 m 442 937 q 505 962 479 937 q 530 1025 530 987 q 505 1086 530 1061 q 444 1111 479 1111 q 382 1086 408 1111 q 357 1024 357 1061 q 382 963 357 988 q 442 937 407 937 z "},"¸":{"ha":887,"x_min":323,"x_max":619,"o":"m 421 0 l 513 0 l 462 -77 q 619 -182 619 -94 q 570 -261 619 -229 q 450 -293 522 -293 q 323 -273 395 -293 l 323 -211 q 402 -221 370 -221 q 485 -180 485 -221 q 353 -123 485 -123 l 339 -123 l 421 0 z "},"˝":{"ha":887,"x_min":201,"x_max":774,"o":"m 201 870 l 364 1088 l 519 1088 l 301 870 l 201 870 m 456 870 l 619 1088 l 774 1088 l 557 870 l 456 870 z "},"˛":{"ha":887,"x_min":302,"x_max":637,"o":"m 455 0 l 562 0 q 436 -122 436 -58 q 546 -186 436 -186 q 637 -176 604 -186 l 637 -231 q 503 -251 579 -251 q 357 -221 412 -251 q 302 -143 302 -191 q 455 0 302 -63 z "},"ˇ":{"ha":887,"x_min":187,"x_max":699,"o":"m 699 1088 l 536 870 l 351 870 l 187 1088 l 309 1088 l 442 954 l 444 954 l 578 1088 l 699 1088 z "},"":{"ha":0,"x_min":0,"x_max":0,"o":""},"":{"ha":1042,"x_min":0,"x_max":0,"o":""},"∕":{"ha":134,"x_min":-367,"x_max":501,"o":"m -367 -25 l 385 1029 l 501 1029 l -250 -25 l -367 -25 z "},"":{"ha":941,"x_min":44,"x_max":816,"o":"m 146 0 l 146 619 l 44 619 l 44 745 l 146 745 l 146 796 q 213 1012 146 937 q 404 1088 280 1088 q 565 1060 479 1088 l 565 923 q 440 960 481 960 q 347 791 347 960 l 347 745 l 816 745 l 816 0 l 615 0 l 615 619 l 347 619 l 347 0 l 146 0 m 648 870 l 648 1038 l 816 1038 l 816 870 l 648 870 z "},"":{"ha":941,"x_min":44,"x_max":816,"o":"m 519 619 l 347 619 l 347 0 l 146 0 l 146 619 l 44 619 l 44 745 l 146 745 l 146 791 q 430 1088 146 1088 q 609 1071 502 1088 l 816 1071 l 816 0 l 615 0 l 615 941 q 499 964 557 964 q 347 808 347 964 l 347 745 l 519 745 l 519 619 z "},"∙":{"ha":887,"x_min":335,"x_max":553,"o":"m 335 318 l 335 535 l 553 535 l 553 318 l 335 318 z "},"":{"ha":1389,"x_min":104,"x_max":1284,"o":"m 1248 894 q 1093 629 1093 784 q 1284 345 1093 444 q 1135 85 1233 196 q 957 -25 1038 -25 q 853 0 919 -25 l 832 8 q 718 33 768 33 q 616 14 671 33 l 589 4 l 556 -9 q 477 -25 517 -25 q 269 130 382 -25 q 104 615 104 353 q 207 916 104 802 q 478 1029 309 1029 q 596 1006 541 1029 l 621 996 l 648 985 q 705 970 683 970 q 766 983 732 970 l 801 997 l 827 1006 q 963 1029 888 1029 q 1248 894 1140 1029 m 968 1343 q 970 1306 970 1319 q 885 1100 970 1189 q 686 1012 800 1012 q 683 1050 683 1038 q 762 1237 683 1149 q 946 1339 842 1324 q 968 1343 954 1341 z "},"ˉ":{"ha":887,"x_min":193,"x_max":694,"o":"m 193 870 l 193 987 l 694 987 l 694 870 l 193 870 z "},"Ł":{"ha":816,"x_min":0,"x_max":795,"o":"m 134 0 l 134 404 l 0 335 l 0 466 l 134 536 l 134 1004 l 342 1004 l 342 648 l 510 739 l 510 605 l 342 515 l 342 142 l 795 142 l 795 0 l 134 0 z "},"ł":{"ha":494,"x_min":8,"x_max":494,"o":"m 151 0 l 151 429 l 8 353 l 8 487 l 151 564 l 151 1071 l 351 1071 l 351 671 l 494 746 l 494 614 l 351 538 l 351 0 l 151 0 z "},"":{"ha":793,"x_min":67,"x_max":740,"o":"m 69 9 l 69 181 q 347 113 231 113 q 474 149 427 113 q 520 247 520 185 q 491 329 520 296 q 380 409 462 363 l 313 446 q 123 592 178 522 q 67 754 67 661 q 158 954 67 878 q 399 1029 250 1029 q 670 994 519 1029 l 670 833 q 427 891 516 891 q 316 860 357 891 q 274 779 274 829 q 303 707 274 738 q 413 630 332 675 l 485 590 q 685 440 630 509 q 740 273 740 372 q 636 54 740 134 q 350 -25 532 -25 q 69 9 229 -25 m 657 1306 l 494 1088 l 309 1088 l 145 1306 l 267 1306 l 400 1172 l 401 1172 l 536 1306 l 657 1306 z "},"":{"ha":785,"x_min":106,"x_max":691,"o":"m 106 24 l 106 171 q 361 109 255 109 q 484 193 484 109 q 382 288 484 247 l 315 315 q 157 411 204 359 q 109 538 109 463 q 190 703 109 644 q 416 762 271 762 q 632 735 507 762 l 632 594 q 432 636 511 636 q 307 559 307 636 q 399 473 307 508 l 458 450 q 640 350 589 401 q 691 219 691 299 q 604 48 691 114 q 377 -17 517 -17 q 106 24 243 -17 m 671 1088 l 507 870 l 322 870 l 159 1088 l 280 1088 l 414 954 l 415 954 l 549 1088 l 671 1088 z "},"Ž":{"ha":895,"x_min":72,"x_max":814,"o":"m 72 0 l 72 142 l 571 866 l 100 866 l 100 1004 l 814 1004 l 814 866 l 315 142 l 814 142 l 814 0 l 72 0 m 713 1306 l 549 1088 l 364 1088 l 201 1306 l 322 1306 l 456 1172 l 457 1172 l 591 1306 l 713 1306 z "},"ž":{"ha":821,"x_min":83,"x_max":745,"o":"m 83 0 l 83 134 l 500 619 l 102 619 l 102 745 l 737 745 l 737 619 l 321 134 l 745 134 l 745 0 l 83 0 m 676 1088 l 513 870 l 328 870 l 164 1088 l 286 1088 l 419 954 l 420 954 l 555 1088 l 676 1088 z "},"¦":{"ha":536,"x_min":209,"x_max":326,"o":"m 209 -201 l 209 301 l 326 301 l 326 -201 l 209 -201 m 209 569 l 209 1071 l 326 1071 l 326 569 l 209 569 z "},"Ð":{"ha":1101,"x_min":0,"x_max":1039,"o":"m 125 0 l 125 437 l 0 437 l 0 571 l 125 571 l 125 1004 l 557 1004 q 915 880 791 1004 q 1039 523 1039 756 q 907 137 1039 275 q 539 0 776 0 l 125 0 m 334 142 l 490 142 q 745 245 672 142 q 817 511 817 347 q 752 750 817 654 q 644 841 707 816 q 460 866 581 866 l 334 866 l 334 571 l 477 571 l 477 437 l 334 437 l 334 142 z "},"ð":{"ha":888,"x_min":63,"x_max":823,"o":"m 201 723 l 127 811 l 256 918 q 85 945 165 945 l 63 945 l 63 1071 q 378 1020 231 1071 l 527 1147 l 602 1057 l 493 964 q 734 729 646 880 q 823 402 823 579 q 717 99 823 214 q 441 -17 612 -17 q 169 86 273 -17 q 65 357 65 190 q 165 623 65 517 q 418 728 265 728 q 513 715 458 728 q 371 861 468 802 l 201 723 m 446 109 q 574 179 527 109 q 621 370 621 250 q 450 603 621 603 q 324 536 371 603 q 277 355 277 469 q 323 176 277 243 q 446 109 369 109 z "},"Ý":{"ha":954,"x_min":27,"x_max":924,"o":"m 364 0 l 364 420 l 27 1004 l 258 1004 l 503 580 l 758 1004 l 924 1004 l 573 422 l 573 0 l 364 0 m 372 1088 l 536 1306 l 720 1306 l 502 1088 l 372 1088 z "},"ý":{"ha":810,"x_min":21,"x_max":793,"o":"m 128 -268 l 297 0 l 21 745 l 237 745 l 421 247 l 640 745 l 793 745 l 333 -268 l 128 -268 m 292 870 l 456 1088 l 640 1088 l 422 870 l 292 870 z "},"Þ":{"ha":852,"x_min":125,"x_max":811,"o":"m 125 0 l 125 1004 l 326 1004 l 326 812 l 471 812 q 733 750 654 812 q 811 546 811 688 q 706 292 811 382 q 413 201 601 201 l 326 201 l 326 0 l 125 0 m 326 339 l 376 339 q 539 389 481 339 q 598 529 598 439 q 408 673 598 673 l 326 673 l 326 339 z "},"þ":{"ha":920,"x_min":125,"x_max":858,"o":"m 125 -268 l 125 1071 l 326 1071 l 326 604 q 570 762 404 762 q 781 663 704 762 q 858 393 858 565 q 771 94 858 205 q 538 -17 684 -17 q 326 75 421 -17 l 326 -268 l 125 -268 m 326 195 q 482 113 399 113 q 600 185 556 113 q 644 376 644 256 q 497 604 644 604 q 326 490 408 604 l 326 195 z "},"−":{"ha":1105,"x_min":151,"x_max":954,"o":"m 151 343 l 151 460 l 954 460 l 954 343 l 151 343 z "},"×":{"ha":1105,"x_min":151,"x_max":954,"o":"m 151 83 l 469 401 l 151 720 l 233 803 l 552 484 l 871 803 l 954 720 l 635 401 l 954 83 l 871 0 l 552 319 l 233 0 l 151 83 z "},"¹":{"ha":669,"x_min":134,"x_max":585,"o":"m 134 417 l 134 505 l 284 505 l 284 901 l 134 863 l 134 954 l 435 1029 l 435 505 l 585 505 l 585 417 l 134 417 z "},"²":{"ha":669,"x_min":116,"x_max":553,"o":"m 116 412 l 116 526 q 122 532 121 531 l 136 548 q 192 599 156 570 l 246 644 q 393 854 393 764 q 290 938 393 938 q 132 896 222 938 l 132 998 q 324 1029 233 1029 q 491 984 429 1029 q 553 862 553 939 q 422 667 553 769 l 375 630 q 282 526 296 569 l 552 526 l 552 412 l 116 412 z "},"³":{"ha":669,"x_min":132,"x_max":557,"o":"m 132 416 l 132 518 q 292 483 224 483 q 401 570 401 483 q 229 684 401 684 l 188 684 l 188 770 l 219 770 q 345 793 306 770 q 383 869 383 817 q 290 943 383 943 q 140 909 217 943 l 140 1000 q 321 1029 239 1029 q 538 883 538 1029 q 399 732 538 774 q 557 568 557 696 q 491 442 557 488 q 309 397 426 397 q 132 416 222 397 z "},"½":{"ha":1320,"x_min":59,"x_max":1185,"o":"m 210 417 l 210 901 l 59 863 l 59 954 l 360 1029 l 360 417 l 210 417 m 137 -25 l 888 1029 l 1005 1029 l 254 -25 l 137 -25 m 748 1 l 748 116 q 754 122 753 121 l 768 138 q 824 189 788 159 l 878 233 q 1025 444 1025 354 q 922 528 1025 528 q 764 486 854 528 l 764 587 q 956 618 865 618 q 1123 573 1061 618 q 1185 452 1185 528 q 1055 257 1185 359 l 1007 220 q 914 116 928 159 l 1184 116 l 1184 1 l 748 1 z "},"¼":{"ha":1320,"x_min":68,"x_max":1185,"o":"m 219 417 l 219 901 l 68 863 l 68 954 l 370 1029 l 370 417 l 219 417 m 193 -25 l 944 1029 l 1061 1029 l 310 -25 l 193 -25 m 991 1 l 991 155 l 706 155 l 706 267 l 986 604 l 1122 604 l 1122 267 l 1185 267 l 1185 155 l 1122 155 l 1122 1 l 991 1 m 819 267 l 991 267 l 991 473 l 819 267 z "},"¾":{"ha":1320,"x_min":109,"x_max":1211,"o":"m 109 416 l 109 518 q 269 483 201 483 q 378 570 378 483 q 205 684 378 684 l 165 684 l 165 770 l 196 770 q 321 793 283 770 q 360 869 360 817 q 267 943 360 943 q 117 909 194 943 l 117 1000 q 298 1029 216 1029 q 515 883 515 1029 q 376 732 515 774 q 534 568 534 696 q 468 442 534 488 q 286 397 403 397 q 109 416 199 397 m 260 -25 l 1011 1029 l 1128 1029 l 377 -25 l 260 -25 m 1016 1 l 1016 155 l 731 155 l 731 267 l 1011 604 l 1147 604 l 1147 267 l 1211 267 l 1211 155 l 1147 155 l 1147 1 l 1016 1 m 844 267 l 1017 267 l 1017 473 l 844 267 z "},"₣":{"ha":887,"x_min":58,"x_max":811,"o":"m 201 0 l 201 193 l 58 193 l 58 309 l 201 309 l 201 1004 l 811 1004 l 811 866 l 401 866 l 401 585 l 749 585 l 749 452 l 401 452 l 401 309 l 552 309 l 552 193 l 401 193 l 401 0 l 201 0 z "},"Ğ":{"ha":1036,"x_min":63,"x_max":927,"o":"m 927 24 q 602 -25 739 -25 q 202 112 342 -25 q 63 503 63 248 q 202 892 63 756 q 600 1029 342 1029 q 926 990 764 1029 l 926 827 q 618 891 739 891 q 372 789 458 891 q 285 501 285 688 q 378 218 285 321 q 634 115 471 115 q 718 125 670 115 l 718 456 l 927 456 l 927 24 m 361 1306 l 462 1306 q 602 1210 490 1210 q 741 1306 713 1210 l 841 1306 q 765 1147 829 1206 q 602 1088 700 1088 q 438 1147 503 1088 q 361 1306 373 1206 z "},"ğ":{"ha":916,"x_min":63,"x_max":795,"o":"m 131 -231 l 147 -85 q 384 -142 271 -142 q 545 -95 495 -142 q 594 59 594 -47 l 594 161 q 352 0 521 0 q 141 99 219 0 q 63 368 63 199 q 151 654 63 547 q 383 762 238 762 q 594 669 497 762 l 615 745 l 795 745 l 795 176 q 775 -69 795 6 q 694 -197 754 -144 q 412 -284 594 -284 q 131 -231 282 -284 m 594 277 l 594 552 q 442 634 522 634 q 321 565 366 634 q 277 379 277 496 q 417 161 277 161 q 594 277 514 161 m 182 1088 l 282 1088 q 422 991 311 991 q 561 1088 533 991 l 661 1088 q 585 929 650 988 q 422 870 520 870 q 258 929 323 870 q 182 1088 193 987 z "},"İ":{"ha":460,"x_min":125,"x_max":334,"o":"m 125 0 l 125 1004 l 334 1004 l 334 0 l 125 0 m 125 1088 l 125 1289 l 326 1289 l 326 1088 l 125 1088 z "},"Ş":{"ha":793,"x_min":67,"x_max":740,"o":"m 69 9 l 69 181 q 347 113 231 113 q 474 149 427 113 q 520 247 520 185 q 491 329 520 296 q 380 409 462 363 l 313 446 q 123 592 178 522 q 67 754 67 661 q 158 954 67 878 q 399 1029 250 1029 q 670 994 519 1029 l 670 833 q 427 891 516 891 q 316 860 357 891 q 274 779 274 829 q 303 707 274 738 q 413 630 332 675 l 485 590 q 685 440 630 509 q 740 273 740 372 q 636 54 740 134 q 350 -25 532 -25 q 69 9 229 -25 m 271 -66 q 517 -182 517 -66 q 469 -260 517 -228 q 353 -293 421 -293 q 220 -284 298 -293 l 220 -218 q 297 -222 264 -222 q 382 -178 382 -222 q 271 -133 382 -133 l 271 -66 z "},"ş":{"ha":785,"x_min":106,"x_max":691,"o":"m 106 24 l 106 171 q 361 109 255 109 q 484 193 484 109 q 382 288 484 247 l 315 315 q 157 411 204 359 q 109 538 109 463 q 190 703 109 644 q 416 762 271 762 q 632 735 507 762 l 632 594 q 432 636 511 636 q 307 559 307 636 q 399 473 307 508 l 458 450 q 640 350 589 401 q 691 219 691 299 q 604 48 691 114 q 377 -17 517 -17 q 106 24 243 -17 m 285 -66 q 531 -182 531 -66 q 483 -260 531 -228 q 368 -293 435 -293 q 235 -284 313 -293 l 235 -218 q 311 -222 278 -222 q 397 -178 397 -222 q 285 -133 397 -133 l 285 -66 z "},"Ć":{"ha":989,"x_min":63,"x_max":933,"o":"m 933 40 q 585 -25 787 -25 q 201 114 338 -25 q 63 502 63 253 q 202 892 63 755 q 597 1029 340 1029 q 924 990 762 1029 l 924 827 q 616 891 740 891 q 371 790 457 891 q 285 505 285 690 q 377 221 285 323 q 635 119 470 119 q 933 194 783 119 l 933 40 m 469 1088 l 633 1306 l 817 1306 l 599 1088 l 469 1088 z "},"ć":{"ha":739,"x_min":58,"x_max":675,"o":"m 675 16 q 444 -17 550 -17 q 162 88 265 -17 q 58 373 58 193 q 165 659 58 555 q 459 762 271 762 q 669 732 550 762 l 669 587 q 471 627 545 627 q 326 558 381 627 q 271 374 271 489 q 331 186 271 257 q 489 116 390 116 q 675 155 579 116 l 675 16 m 318 870 l 481 1088 l 665 1088 l 448 870 l 318 870 z "},"Č":{"ha":989,"x_min":63,"x_max":933,"o":"m 933 40 q 585 -25 787 -25 q 201 114 338 -25 q 63 502 63 253 q 202 892 63 755 q 597 1029 340 1029 q 924 990 762 1029 l 924 827 q 616 891 740 891 q 371 790 457 891 q 285 505 285 690 q 377 221 285 323 q 635 119 470 119 q 933 194 783 119 l 933 40 m 854 1306 l 691 1088 l 506 1088 l 342 1306 l 464 1306 l 597 1172 l 599 1172 l 733 1306 l 854 1306 z "},"č":{"ha":739,"x_min":58,"x_max":705,"o":"m 675 16 q 444 -17 550 -17 q 162 88 265 -17 q 58 373 58 193 q 165 659 58 555 q 459 762 271 762 q 669 732 550 762 l 669 587 q 471 627 545 627 q 326 558 381 627 q 271 374 271 489 q 331 186 271 257 q 489 116 390 116 q 675 155 579 116 l 675 16 m 705 1088 l 541 870 l 356 870 l 193 1088 l 314 1088 l 448 954 l 449 954 l 583 1088 l 705 1088 z "},"đ":{"ha":920,"x_min":63,"x_max":921,"o":"m 795 0 l 594 0 l 594 140 q 351 -17 517 -17 q 141 81 218 -17 q 63 345 63 178 q 151 635 63 526 q 382 745 238 745 q 594 652 498 745 l 594 837 l 418 837 l 418 954 l 594 954 l 594 1071 l 795 1071 l 795 954 l 921 954 l 921 837 l 795 837 l 795 0 m 594 533 q 439 615 522 615 q 321 546 366 615 q 277 366 277 477 q 423 140 277 140 q 594 255 513 140 l 594 533 z "},"­":{"ha":804,"x_min":100,"x_max":703,"o":"m 100 368 l 100 502 l 703 502 l 703 368 l 100 368 z "},"Ā":{"ha":1023,"x_min":16,"x_max":1006,"o":"m 16 0 l 406 1004 l 615 1004 l 1006 0 l 791 0 l 687 268 l 272 268 l 168 0 l 16 0 m 323 401 l 635 401 l 479 802 l 323 401 m 259 1088 l 259 1206 l 761 1206 l 761 1088 l 259 1088 z "},"ā":{"ha":817,"x_min":56,"x_max":770,"o":"m 490 80 q 275 -17 390 -17 q 117 43 178 -17 q 56 197 56 102 q 154 388 56 321 q 437 454 253 454 l 490 454 l 490 522 q 358 638 490 638 q 121 572 241 638 l 121 710 q 391 762 257 762 q 683 529 683 762 l 683 199 q 736 112 683 112 q 770 119 749 112 l 770 2 q 658 -17 707 -17 q 499 80 534 -17 l 490 80 m 490 188 l 490 339 l 443 339 q 300 307 352 339 q 248 217 248 274 q 276 148 248 176 q 346 119 304 119 q 490 188 416 119 m 149 870 l 149 987 l 650 987 l 650 870 l 149 870 z "},"Ă":{"ha":1023,"x_min":16,"x_max":1006,"o":"m 16 0 l 406 1004 l 615 1004 l 1006 0 l 791 0 l 687 268 l 272 268 l 168 0 l 16 0 m 323 401 l 635 401 l 479 802 l 323 401 m 270 1306 l 370 1306 q 510 1210 399 1210 q 649 1306 621 1210 l 749 1306 q 673 1147 738 1206 q 510 1088 608 1088 q 347 1147 412 1088 q 270 1306 281 1206 z "},"ă":{"ha":817,"x_min":56,"x_max":770,"o":"m 490 80 q 275 -17 390 -17 q 117 43 178 -17 q 56 197 56 102 q 154 388 56 321 q 437 454 253 454 l 490 454 l 490 522 q 358 638 490 638 q 121 572 241 638 l 121 710 q 391 762 257 762 q 683 529 683 762 l 683 199 q 736 112 683 112 q 770 119 749 112 l 770 2 q 658 -17 707 -17 q 499 80 534 -17 l 490 80 m 490 188 l 490 339 l 443 339 q 300 307 352 339 q 248 217 248 274 q 276 148 248 176 q 346 119 304 119 q 490 188 416 119 m 159 1088 l 260 1088 q 399 991 288 991 q 538 1088 511 991 l 639 1088 q 563 929 627 988 q 399 870 498 870 q 236 929 301 870 q 159 1088 171 987 z "},"Ą":{"ha":1023,"x_min":16,"x_max":1006,"o":"m 16 0 l 406 1004 l 615 1004 l 1006 0 l 791 0 l 687 268 l 272 268 l 168 0 l 16 0 m 323 401 l 635 401 l 479 802 l 323 401 m 791 0 l 899 0 q 772 -122 772 -58 q 882 -186 772 -186 q 974 -176 940 -186 l 974 -231 q 839 -251 916 -251 q 694 -221 749 -251 q 639 -143 639 -191 q 791 0 639 -63 z "},"ą":{"ha":817,"x_min":56,"x_max":770,"o":"m 490 80 q 275 -17 390 -17 q 117 43 178 -17 q 56 197 56 102 q 154 388 56 321 q 437 454 253 454 l 490 454 l 490 522 q 358 638 490 638 q 121 572 241 638 l 121 710 q 391 762 257 762 q 683 529 683 762 l 683 199 q 736 112 683 112 q 770 119 749 112 l 770 2 q 658 -17 707 -17 q 499 80 534 -17 l 490 80 m 490 188 l 490 339 l 443 339 q 300 307 352 339 q 248 217 248 274 q 276 148 248 176 q 346 119 304 119 q 490 188 416 119 m 566 0 l 673 0 q 547 -122 547 -58 q 657 -186 547 -186 q 749 -176 715 -186 l 749 -231 q 614 -251 690 -251 q 469 -221 524 -251 q 414 -143 414 -191 q 566 0 414 -63 z "},"Ď":{"ha":1101,"x_min":125,"x_max":1039,"o":"m 125 0 l 125 1004 l 557 1004 q 915 880 791 1004 q 1039 523 1039 756 q 907 137 1039 275 q 539 0 776 0 l 125 0 m 334 142 l 490 142 q 745 245 672 142 q 817 511 817 347 q 752 750 817 654 q 644 841 707 816 q 460 866 581 866 l 334 866 l 334 142 m 805 1306 l 642 1088 l 456 1088 l 293 1306 l 414 1306 l 548 1172 l 549 1172 l 684 1306 l 805 1306 z "},"ď":{"ha":1121,"x_min":63,"x_max":1112,"o":"m 594 0 l 594 140 q 351 -17 517 -17 q 140 81 216 -17 q 63 352 63 180 q 150 650 63 539 q 382 762 236 762 q 594 669 498 762 l 594 1071 l 795 1071 l 795 0 l 594 0 m 594 550 q 439 631 522 631 q 321 560 365 631 q 277 369 277 489 q 423 140 277 140 q 594 255 513 140 l 594 550 m 989 870 l 911 870 l 911 1071 l 1112 1071 l 1112 916 q 911 669 1112 669 l 911 739 q 989 850 989 739 l 989 870 z "},"Đ":{"ha":1101,"x_min":0,"x_max":1039,"o":"m 125 0 l 125 437 l 0 437 l 0 571 l 125 571 l 125 1004 l 557 1004 q 915 880 791 1004 q 1039 523 1039 756 q 907 137 1039 275 q 539 0 776 0 l 125 0 m 334 142 l 490 142 q 745 245 672 142 q 817 511 817 347 q 752 750 817 654 q 644 841 707 816 q 460 866 581 866 l 334 866 l 334 571 l 477 571 l 477 437 l 334 437 l 334 142 z "},"Ē":{"ha":834,"x_min":125,"x_max":785,"o":"m 125 0 l 125 1004 l 753 1004 l 753 866 l 334 866 l 334 586 l 677 586 l 677 448 l 334 448 l 334 142 l 785 142 l 785 0 l 125 0 m 185 1088 l 185 1206 l 687 1206 l 687 1088 l 185 1088 z "},"ē":{"ha":814,"x_min":58,"x_max":732,"o":"m 732 25 q 460 -17 589 -17 q 166 89 274 -17 q 58 378 58 195 q 157 656 58 551 q 418 762 256 762 q 656 659 581 762 q 732 332 732 555 l 270 332 q 504 119 290 119 q 732 166 605 119 l 732 25 m 267 446 l 534 446 q 412 636 534 636 q 267 446 287 636 m 164 870 l 164 987 l 666 987 l 666 870 l 164 870 z "},"Ė":{"ha":834,"x_min":125,"x_max":785,"o":"m 125 0 l 125 1004 l 753 1004 l 753 866 l 334 866 l 334 586 l 677 586 l 677 448 l 334 448 l 334 142 l 785 142 l 785 0 l 125 0 m 336 1088 l 336 1289 l 536 1289 l 536 1088 l 336 1088 z "},"ė":{"ha":814,"x_min":58,"x_max":732,"o":"m 732 25 q 460 -17 589 -17 q 166 89 274 -17 q 58 378 58 195 q 157 656 58 551 q 418 762 256 762 q 656 659 581 762 q 732 332 732 555 l 270 332 q 504 119 290 119 q 732 166 605 119 l 732 25 m 267 446 l 534 446 q 412 636 534 636 q 267 446 287 636 m 315 870 l 315 1071 l 515 1071 l 515 870 l 315 870 z "},"Ę":{"ha":834,"x_min":125,"x_max":785,"o":"m 125 0 l 125 1004 l 753 1004 l 753 866 l 334 866 l 334 586 l 677 586 l 677 448 l 334 448 l 334 142 l 785 142 l 785 0 l 125 0 m 586 0 l 693 0 q 567 -122 567 -58 q 677 -186 567 -186 q 768 -176 734 -186 l 768 -231 q 633 -251 710 -251 q 488 -221 543 -251 q 433 -143 433 -191 q 586 0 433 -63 z "},"ę":{"ha":814,"x_min":58,"x_max":732,"o":"m 732 25 q 460 -17 589 -17 q 166 89 274 -17 q 58 378 58 195 q 157 656 58 551 q 418 762 256 762 q 656 659 581 762 q 732 332 732 555 l 270 332 q 504 119 290 119 q 732 166 605 119 l 732 25 m 267 446 l 534 446 q 412 636 534 636 q 267 446 287 636 m 429 0 l 536 0 q 410 -122 410 -58 q 520 -186 410 -186 q 612 -176 578 -186 l 612 -231 q 477 -251 553 -251 q 332 -221 387 -251 q 277 -143 277 -191 q 429 0 277 -63 z "},"Ě":{"ha":834,"x_min":125,"x_max":785,"o":"m 125 0 l 125 1004 l 753 1004 l 753 866 l 334 866 l 334 586 l 677 586 l 677 448 l 334 448 l 334 142 l 785 142 l 785 0 l 125 0 m 684 1306 l 521 1088 l 336 1088 l 172 1306 l 294 1306 l 427 1172 l 429 1172 l 563 1306 l 684 1306 z "},"ě":{"ha":814,"x_min":58,"x_max":732,"o":"m 732 25 q 460 -17 589 -17 q 166 89 274 -17 q 58 378 58 195 q 157 656 58 551 q 418 762 256 762 q 656 659 581 762 q 732 332 732 555 l 270 332 q 504 119 290 119 q 732 166 605 119 l 732 25 m 267 446 l 534 446 q 412 636 534 636 q 267 446 287 636 m 671 1088 l 507 870 l 322 870 l 159 1088 l 280 1088 l 414 954 l 415 954 l 549 1088 l 671 1088 z "},"Ģ":{"ha":1036,"x_min":63,"x_max":927,"o":"m 927 24 q 602 -25 739 -25 q 202 112 342 -25 q 63 503 63 248 q 202 892 63 756 q 600 1029 342 1029 q 926 990 764 1029 l 926 827 q 618 891 739 891 q 372 789 458 891 q 285 501 285 688 q 378 218 285 321 q 634 115 471 115 q 718 125 670 115 l 718 456 l 927 456 l 927 24 m 515 0 l 608 0 l 556 -77 q 713 -182 713 -94 q 665 -261 713 -229 q 545 -293 616 -293 q 417 -273 489 -293 l 417 -211 q 496 -221 465 -221 q 579 -180 579 -221 q 447 -123 579 -123 l 433 -123 l 515 0 z "},"ģ":{"ha":916,"x_min":63,"x_max":795,"o":"m 131 -231 l 147 -85 q 384 -142 271 -142 q 545 -95 495 -142 q 594 59 594 -47 l 594 161 q 352 0 521 0 q 141 99 219 0 q 63 368 63 199 q 151 654 63 547 q 383 762 238 762 q 594 669 497 762 l 615 745 l 795 745 l 795 176 q 775 -69 795 6 q 694 -197 754 -144 q 412 -284 594 -284 q 131 -231 282 -284 m 594 277 l 594 552 q 442 634 522 634 q 321 565 366 634 q 277 379 277 496 q 417 161 277 161 q 594 277 514 161 m 314 870 l 477 1088 l 661 1088 l 444 870 l 314 870 z "},"Ĩ":{"ha":460,"x_min":-7,"x_max":470,"o":"m 125 0 l 125 1004 l 334 1004 l 334 0 l 125 0 m 94 1088 l -7 1088 q 130 1306 -7 1306 q 216 1277 174 1306 l 241 1259 l 262 1244 q 324 1214 306 1214 q 370 1306 370 1214 l 470 1306 q 334 1088 470 1088 q 248 1118 290 1088 l 222 1135 q 201 1150 205 1147 q 139 1181 159 1181 q 94 1088 94 1181 z "},"ĩ":{"ha":452,"x_min":-13,"x_max":464,"o":"m 125 0 l 125 745 l 326 745 l 326 0 l 125 0 m 87 870 l -13 870 q 123 1088 -13 1088 q 210 1059 168 1088 l 235 1041 l 256 1026 q 318 996 300 996 q 363 1088 363 996 l 464 1088 q 328 870 464 870 q 242 899 283 870 l 216 917 q 195 932 199 928 q 133 962 153 962 q 87 870 87 962 z "},"Ī":{"ha":460,"x_min":-20,"x_max":481,"o":"m 125 0 l 125 1004 l 334 1004 l 334 0 l 125 0 m -20 1088 l -20 1206 l 481 1206 l 481 1088 l -20 1088 z "},"ī":{"ha":452,"x_min":-25,"x_max":477,"o":"m 125 0 l 125 745 l 326 745 l 326 0 l 125 0 m -25 870 l -25 987 l 477 987 l 477 870 l -25 870 z "},"Į":{"ha":460,"x_min":75,"x_max":410,"o":"m 125 0 l 125 1004 l 334 1004 l 334 0 l 125 0 m 228 0 l 335 0 q 209 -122 209 -58 q 319 -186 209 -186 q 410 -176 376 -186 l 410 -231 q 275 -251 352 -251 q 130 -221 185 -251 q 75 -143 75 -191 q 228 0 75 -63 z "},"į":{"ha":452,"x_min":67,"x_max":402,"o":"m 125 0 l 125 745 l 326 745 l 326 0 l 125 0 m 125 870 l 125 1038 l 326 1038 l 326 870 l 125 870 m 220 0 l 327 0 q 201 -122 201 -58 q 311 -186 201 -186 q 402 -176 368 -186 l 402 -231 q 267 -251 344 -251 q 122 -221 177 -251 q 67 -143 67 -191 q 220 0 67 -63 z "},"Ĳ":{"ha":970,"x_min":125,"x_max":846,"o":"m 125 0 l 125 1004 l 334 1004 l 334 0 l 125 0 m 344 -176 l 342 -27 q 510 -59 424 -59 q 609 -19 582 -59 q 636 125 636 21 l 636 1004 l 846 1004 l 846 147 q 770 -119 846 -38 q 524 -201 695 -201 q 344 -176 439 -201 z "},"ĳ":{"ha":910,"x_min":125,"x_max":784,"o":"m 125 0 l 125 745 l 326 745 l 326 0 l 125 0 m 125 870 l 125 1038 l 326 1038 l 326 870 l 125 870 m 326 -253 l 326 -119 q 475 -159 413 -159 q 558 -122 534 -159 q 583 0 583 -86 l 583 745 l 784 745 l 784 14 q 714 -214 784 -142 q 492 -285 645 -285 q 326 -253 425 -285 m 583 870 l 583 1038 l 784 1038 l 784 870 l 583 870 z "},"Ĵ":{"ha":461,"x_min":125,"x_max":334,"o":"m 125 0 l 125 1004 l 334 1004 l 334 0 l 125 0 z "},"ĵ":{"ha":452,"x_min":125,"x_max":326,"o":"m 125 0 l 125 745 l 326 745 l 326 0 l 125 0 m 125 870 l 125 1038 l 326 1038 l 326 870 l 125 870 z "},"Ķ":{"ha":986,"x_min":125,"x_max":968,"o":"m 125 0 l 125 1004 l 326 1004 l 326 517 l 710 1004 l 884 1004 l 536 553 l 968 0 l 707 0 l 326 494 l 326 0 l 125 0 m 235 0 l 327 0 l 275 -77 q 433 -182 433 -94 q 384 -261 433 -229 q 264 -293 335 -293 q 136 -273 208 -293 l 136 -211 q 216 -221 184 -221 q 298 -180 298 -221 q 166 -123 298 -123 l 153 -123 l 235 0 z "},"ķ":{"ha":879,"x_min":125,"x_max":848,"o":"m 125 0 l 125 1071 l 326 1071 l 326 397 l 339 397 l 604 745 l 771 745 l 526 426 l 848 0 l 604 0 l 339 372 l 326 372 l 326 0 l 125 0 m 235 0 l 327 0 l 275 -77 q 433 -182 433 -94 q 384 -261 433 -229 q 264 -293 335 -293 q 136 -273 208 -293 l 136 -211 q 216 -221 184 -221 q 298 -180 298 -221 q 166 -123 298 -123 l 153 -123 l 235 0 z "},"Ĺ":{"ha":807,"x_min":125,"x_max":787,"o":"m 125 0 l 125 1004 l 334 1004 l 334 142 l 787 142 l 787 0 l 125 0 m 205 1088 l 368 1306 l 552 1306 l 334 1088 l 205 1088 z "},"ĺ":{"ha":452,"x_min":96,"x_max":444,"o":"m 125 0 l 125 1071 l 326 1071 l 326 0 l 125 0 m 96 1138 l 260 1356 l 444 1356 l 226 1138 l 96 1138 z "},"Ļ":{"ha":807,"x_min":125,"x_max":787,"o":"m 125 0 l 125 1004 l 334 1004 l 334 142 l 787 142 l 787 0 l 125 0 m 393 0 l 485 0 l 433 -77 q 591 -182 591 -94 q 542 -261 591 -229 q 422 -293 493 -293 q 294 -273 366 -293 l 294 -211 q 374 -221 342 -221 q 456 -180 456 -221 q 324 -123 456 -123 l 311 -123 l 393 0 z "},"ļ":{"ha":452,"x_min":110,"x_max":406,"o":"m 125 0 l 125 1071 l 326 1071 l 326 0 l 125 0 m 208 0 l 300 0 l 249 -77 q 406 -182 406 -94 q 357 -261 406 -229 q 237 -293 309 -293 q 110 -273 182 -293 l 110 -211 q 189 -221 157 -221 q 272 -180 272 -221 q 140 -123 272 -123 l 126 -123 l 208 0 z "},"Ľ":{"ha":807,"x_min":125,"x_max":787,"o":"m 125 0 l 125 1004 l 334 1004 l 334 142 l 787 142 l 787 0 l 125 0 m 612 804 l 535 804 l 535 1005 l 736 1005 l 736 850 q 535 604 736 604 l 535 673 q 612 785 612 673 l 612 804 z "},"ľ":{"ha":652,"x_min":125,"x_max":644,"o":"m 125 0 l 125 1071 l 326 1071 l 326 0 l 125 0 m 521 870 l 444 870 l 444 1071 l 644 1071 l 644 916 q 444 669 644 669 l 444 739 q 521 850 521 739 l 521 870 z "},"Ŀ":{"ha":807,"x_min":125,"x_max":787,"o":"m 125 0 l 125 1004 l 334 1004 l 334 142 l 787 142 l 787 0 l 125 0 m 534 473 l 534 674 l 734 674 l 734 473 l 534 473 z "},"ŀ":{"ha":652,"x_min":125,"x_max":652,"o":"m 125 0 l 125 1071 l 326 1071 l 326 0 l 125 0 m 452 457 l 452 658 l 652 658 l 652 457 l 452 457 z "},"Ń":{"ha":1067,"x_min":125,"x_max":942,"o":"m 125 0 l 125 1004 l 309 1004 l 774 318 l 774 1004 l 942 1004 l 942 0 l 755 0 l 293 686 l 293 0 l 125 0 m 460 1088 l 623 1306 l 807 1306 l 589 1088 l 460 1088 z "},"ń":{"ha":912,"x_min":125,"x_max":795,"o":"m 125 0 l 125 745 l 326 745 l 326 604 q 580 762 425 762 q 737 699 680 762 q 795 526 795 635 l 795 0 l 594 0 l 594 477 q 510 604 594 604 q 326 469 414 604 l 326 0 l 125 0 m 376 870 l 540 1088 l 724 1088 l 506 870 l 376 870 z "},"Ņ":{"ha":1067,"x_min":102,"x_max":942,"o":"m 125 0 l 125 1004 l 309 1004 l 774 318 l 774 1004 l 942 1004 l 942 0 l 755 0 l 293 686 l 293 0 l 125 0 m 201 0 l 293 0 l 241 -77 q 399 -182 399 -94 q 350 -261 399 -229 q 230 -293 301 -293 q 102 -273 174 -293 l 102 -211 q 182 -221 150 -221 q 264 -180 264 -221 q 132 -123 264 -123 l 119 -123 l 201 0 z "},"ņ":{"ha":912,"x_min":125,"x_max":795,"o":"m 125 0 l 125 745 l 326 745 l 326 604 q 580 762 425 762 q 737 699 680 762 q 795 526 795 635 l 795 0 l 594 0 l 594 477 q 510 604 594 604 q 326 469 414 604 l 326 0 l 125 0 m 235 0 l 327 0 l 275 -77 q 433 -182 433 -94 q 384 -261 433 -229 q 264 -293 335 -293 q 136 -273 208 -293 l 136 -211 q 216 -221 184 -221 q 298 -180 298 -221 q 166 -123 298 -123 l 153 -123 l 235 0 z "},"Ň":{"ha":1067,"x_min":125,"x_max":942,"o":"m 125 0 l 125 1004 l 309 1004 l 774 318 l 774 1004 l 942 1004 l 942 0 l 755 0 l 293 686 l 293 0 l 125 0 m 789 1306 l 626 1088 l 441 1088 l 277 1306 l 399 1306 l 532 1172 l 534 1172 l 668 1306 l 789 1306 z "},"ň":{"ha":912,"x_min":125,"x_max":795,"o":"m 125 0 l 125 745 l 326 745 l 326 604 q 580 762 425 762 q 737 699 680 762 q 795 526 795 635 l 795 0 l 594 0 l 594 477 q 510 604 594 604 q 326 469 414 604 l 326 0 l 125 0 m 716 1088 l 553 870 l 368 870 l 204 1088 l 326 1088 l 459 954 l 460 954 l 595 1088 l 716 1088 z "},"ŉ":{"ha":912,"x_min":125,"x_max":795,"o":"m 125 0 l 125 745 l 326 745 l 326 604 q 580 762 425 762 q 737 699 680 762 q 795 526 795 635 l 795 0 l 594 0 l 594 477 q 510 604 594 604 q 326 469 414 604 l 326 0 l 125 0 m 203 1072 l 125 1072 l 125 1272 l 326 1272 l 326 1117 q 125 871 326 871 l 125 940 q 203 1052 203 940 l 203 1072 z "},"Ō":{"ha":1143,"x_min":63,"x_max":1081,"o":"m 566 -25 q 200 119 337 -25 q 63 502 63 262 q 201 886 63 744 q 572 1029 338 1029 q 943 886 805 1029 q 1081 504 1081 744 q 943 117 1081 258 q 566 -25 805 -25 m 568 113 q 781 219 703 113 q 859 505 859 324 q 781 785 859 680 q 572 891 702 891 q 363 785 441 891 q 285 503 285 680 q 363 220 285 327 q 568 113 441 113 m 320 1088 l 320 1206 l 822 1206 l 822 1088 l 320 1088 z "},"ō":{"ha":887,"x_min":58,"x_max":828,"o":"m 438 -17 q 161 89 264 -17 q 58 372 58 194 q 162 657 58 553 q 443 762 265 762 q 725 657 621 762 q 828 374 828 553 q 724 87 828 191 q 438 -17 621 -17 m 441 109 q 569 179 523 109 q 614 374 614 249 q 569 566 614 495 q 443 636 523 636 q 318 566 363 636 q 272 372 272 495 q 317 180 272 251 q 441 109 363 109 m 193 870 l 193 987 l 694 987 l 694 870 l 193 870 z "},"Ő":{"ha":1143,"x_min":63,"x_max":1081,"o":"m 566 -25 q 200 119 337 -25 q 63 502 63 262 q 201 886 63 744 q 572 1029 338 1029 q 943 886 805 1029 q 1081 504 1081 744 q 943 117 1081 258 q 566 -25 805 -25 m 568 113 q 781 219 703 113 q 859 505 859 324 q 781 785 859 680 q 572 891 702 891 q 363 785 441 891 q 285 503 285 680 q 363 220 285 327 q 568 113 441 113 m 394 1088 l 557 1306 l 712 1306 l 494 1088 l 394 1088 m 650 1088 l 812 1306 l 968 1306 l 750 1088 l 650 1088 z "},"ő":{"ha":887,"x_min":58,"x_max":838,"o":"m 438 -17 q 161 89 264 -17 q 58 372 58 194 q 162 657 58 553 q 443 762 265 762 q 725 657 621 762 q 828 374 828 553 q 724 87 828 191 q 438 -17 621 -17 m 441 109 q 569 179 523 109 q 614 374 614 249 q 569 566 614 495 q 443 636 523 636 q 318 566 363 636 q 272 372 272 495 q 317 180 272 251 q 441 109 363 109 m 264 870 l 428 1088 l 583 1088 l 365 870 l 264 870 m 520 870 l 683 1088 l 838 1088 l 621 870 l 520 870 z "},"Ŕ":{"ha":958,"x_min":125,"x_max":941,"o":"m 125 0 l 125 1004 l 501 1004 q 729 940 650 1004 q 807 755 807 877 q 755 586 807 662 q 612 469 703 509 l 941 0 l 686 0 l 437 410 l 322 410 l 322 0 l 125 0 m 322 548 l 370 548 q 597 732 597 548 q 395 866 597 866 l 322 866 l 322 548 m 372 1088 l 536 1306 l 720 1306 l 502 1088 l 372 1088 z "},"ŕ":{"ha":631,"x_min":125,"x_max":601,"o":"m 125 0 l 125 745 l 326 745 l 326 604 q 564 762 404 762 q 601 758 583 762 l 601 578 q 522 594 558 594 q 326 473 401 594 l 326 0 l 125 0 m 198 870 l 361 1088 l 545 1088 l 328 870 l 198 870 z "},"Ŗ":{"ha":958,"x_min":125,"x_max":941,"o":"m 125 0 l 125 1004 l 501 1004 q 729 940 650 1004 q 807 755 807 877 q 755 586 807 662 q 612 469 703 509 l 941 0 l 686 0 l 437 410 l 322 410 l 322 0 l 125 0 m 322 548 l 370 548 q 597 732 597 548 q 395 866 597 866 l 322 866 l 322 548 m 230 0 l 322 0 l 271 -77 q 428 -182 428 -94 q 379 -261 428 -229 q 259 -293 330 -293 q 132 -273 203 -293 l 132 -211 q 211 -221 179 -221 q 294 -180 294 -221 q 161 -123 294 -123 l 148 -123 l 230 0 z "},"ŗ":{"ha":631,"x_min":125,"x_max":601,"o":"m 125 0 l 125 745 l 326 745 l 326 604 q 564 762 404 762 q 601 758 583 762 l 601 578 q 522 594 558 594 q 326 473 401 594 l 326 0 l 125 0 m 235 0 l 327 0 l 275 -77 q 433 -182 433 -94 q 384 -261 433 -229 q 264 -293 335 -293 q 136 -273 208 -293 l 136 -211 q 216 -221 184 -221 q 298 -180 298 -221 q 166 -123 298 -123 l 153 -123 l 235 0 z "},"Ř":{"ha":958,"x_min":125,"x_max":941,"o":"m 125 0 l 125 1004 l 501 1004 q 729 940 650 1004 q 807 755 807 877 q 755 586 807 662 q 612 469 703 509 l 941 0 l 686 0 l 437 410 l 322 410 l 322 0 l 125 0 m 322 548 l 370 548 q 597 732 597 548 q 395 866 597 866 l 322 866 l 322 548 m 665 1306 l 502 1088 l 317 1088 l 153 1306 l 275 1306 l 408 1172 l 410 1172 l 544 1306 l 665 1306 z "},"ř":{"ha":631,"x_min":71,"x_max":601,"o":"m 125 0 l 125 745 l 326 745 l 326 604 q 564 762 404 762 q 601 758 583 762 l 601 578 q 522 594 558 594 q 326 473 401 594 l 326 0 l 125 0 m 583 1088 l 420 870 l 235 870 l 71 1088 l 193 1088 l 326 954 l 328 954 l 462 1088 l 583 1088 z "},"Ś":{"ha":793,"x_min":67,"x_max":740,"o":"m 69 9 l 69 181 q 347 113 231 113 q 474 149 427 113 q 520 247 520 185 q 491 329 520 296 q 380 409 462 363 l 313 446 q 123 592 178 522 q 67 754 67 661 q 158 954 67 878 q 399 1029 250 1029 q 670 994 519 1029 l 670 833 q 427 891 516 891 q 316 860 357 891 q 274 779 274 829 q 303 707 274 738 q 413 630 332 675 l 485 590 q 685 440 630 509 q 740 273 740 372 q 636 54 740 134 q 350 -25 532 -25 q 69 9 229 -25 m 270 1088 l 433 1306 l 617 1306 l 399 1088 l 270 1088 z "},"ś":{"ha":785,"x_min":106,"x_max":691,"o":"m 106 24 l 106 171 q 361 109 255 109 q 484 193 484 109 q 382 288 484 247 l 315 315 q 157 411 204 359 q 109 538 109 463 q 190 703 109 644 q 416 762 271 762 q 632 735 507 762 l 632 594 q 432 636 511 636 q 307 559 307 636 q 399 473 307 508 l 458 450 q 640 350 589 401 q 691 219 691 299 q 604 48 691 114 q 377 -17 517 -17 q 106 24 243 -17 m 284 870 l 448 1088 l 631 1088 l 414 870 l 284 870 z "},"Ţ":{"ha":958,"x_min":15,"x_max":943,"o":"m 374 0 l 374 866 l 15 866 l 15 1004 l 943 1004 l 943 866 l 584 866 l 584 0 l 374 0 m 382 -66 q 629 -182 629 -66 q 581 -260 629 -228 q 465 -293 533 -293 q 332 -284 410 -293 l 332 -218 q 409 -222 376 -222 q 494 -178 494 -222 q 382 -133 494 -133 l 382 -66 z "},"ţ":{"ha":562,"x_min":52,"x_max":509,"o":"m 509 4 q 396 -17 437 -17 q 197 41 260 -17 q 135 227 135 100 l 135 619 l 52 619 l 52 745 l 135 745 l 135 870 l 336 893 l 336 745 l 495 745 l 495 619 l 336 619 l 336 254 q 448 117 336 117 q 509 126 473 117 l 509 4 m 211 -66 q 457 -182 457 -66 q 409 -260 457 -228 q 294 -293 361 -293 q 161 -284 239 -293 l 161 -218 q 237 -222 204 -222 q 323 -178 323 -222 q 211 -133 323 -133 l 211 -66 z "},"Ť":{"ha":958,"x_min":15,"x_max":943,"o":"m 374 0 l 374 866 l 15 866 l 15 1004 l 943 1004 l 943 866 l 584 866 l 584 0 l 374 0 m 735 1306 l 572 1088 l 387 1088 l 223 1306 l 345 1306 l 478 1172 l 479 1172 l 614 1306 l 735 1306 z "},"ť":{"ha":562,"x_min":52,"x_max":562,"o":"m 509 4 q 396 -17 437 -17 q 197 41 260 -17 q 135 227 135 100 l 135 619 l 52 619 l 52 745 l 135 745 l 135 870 l 336 893 l 336 745 l 495 745 l 495 619 l 336 619 l 336 254 q 448 117 336 117 q 509 126 473 117 l 509 4 m 439 1103 l 361 1103 l 361 1304 l 562 1304 l 562 1149 q 361 903 562 903 l 361 972 q 439 1084 439 972 l 439 1103 z "},"Ũ":{"ha":1023,"x_min":117,"x_max":905,"o":"m 117 1004 l 326 1004 l 326 389 q 374 178 326 243 q 530 113 422 113 q 678 175 632 113 q 724 374 724 237 l 724 1004 l 905 1004 l 905 387 q 879 175 905 248 q 783 49 852 102 q 526 -25 687 -25 q 248 54 353 -25 q 146 182 175 108 q 117 389 117 256 l 117 1004 m 387 1088 l 287 1088 q 423 1306 287 1306 q 509 1277 467 1306 l 535 1259 l 556 1244 q 618 1214 600 1214 q 663 1306 663 1214 l 764 1306 q 627 1088 764 1088 q 542 1118 583 1088 l 515 1135 q 494 1150 499 1147 q 433 1181 453 1181 q 387 1088 387 1181 z "},"ũ":{"ha":912,"x_min":117,"x_max":787,"o":"m 586 0 l 586 140 q 332 -17 488 -17 q 175 46 233 -17 q 117 218 117 109 l 117 745 l 318 745 l 318 268 q 403 141 318 141 q 586 276 498 141 l 586 745 l 787 745 l 787 0 l 586 0 m 313 870 l 213 870 q 349 1088 213 1088 q 435 1059 393 1088 l 461 1041 l 482 1026 q 544 996 526 996 q 589 1088 589 996 l 690 1088 q 553 870 690 870 q 468 899 509 870 l 441 917 q 420 932 425 928 q 359 962 379 962 q 313 870 313 962 z "},"Ū":{"ha":1023,"x_min":117,"x_max":905,"o":"m 117 1004 l 326 1004 l 326 389 q 374 178 326 243 q 530 113 422 113 q 678 175 632 113 q 724 374 724 237 l 724 1004 l 905 1004 l 905 387 q 879 175 905 248 q 783 49 852 102 q 526 -25 687 -25 q 248 54 353 -25 q 146 182 175 108 q 117 389 117 256 l 117 1004 m 275 1088 l 275 1206 l 777 1206 l 777 1088 l 275 1088 z "},"ū":{"ha":912,"x_min":117,"x_max":787,"o":"m 586 0 l 586 140 q 332 -17 488 -17 q 175 46 233 -17 q 117 218 117 109 l 117 745 l 318 745 l 318 268 q 403 141 318 141 q 586 276 498 141 l 586 745 l 787 745 l 787 0 l 586 0 m 201 870 l 201 987 l 703 987 l 703 870 l 201 870 z "},"Ů":{"ha":1023,"x_min":117,"x_max":905,"o":"m 117 1004 l 326 1004 l 326 389 q 374 178 326 243 q 530 113 422 113 q 678 175 632 113 q 724 374 724 237 l 724 1004 l 905 1004 l 905 387 q 879 175 905 248 q 783 49 852 102 q 526 -25 687 -25 q 248 54 353 -25 q 146 182 175 108 q 117 389 117 256 l 117 1004 m 524 1004 q 416 1049 460 1004 q 372 1158 372 1094 q 416 1266 372 1221 q 526 1312 461 1312 q 634 1267 589 1312 q 680 1158 680 1222 q 634 1048 680 1093 q 524 1004 589 1004 m 524 1071 q 587 1096 562 1071 q 612 1158 612 1121 q 587 1219 612 1194 q 526 1244 562 1244 q 464 1219 490 1244 q 439 1158 439 1194 q 464 1096 439 1122 q 524 1071 489 1071 z "},"ů":{"ha":912,"x_min":117,"x_max":787,"o":"m 586 0 l 586 140 q 332 -17 488 -17 q 175 46 233 -17 q 117 218 117 109 l 117 745 l 318 745 l 318 268 q 403 141 318 141 q 586 276 498 141 l 586 745 l 787 745 l 787 0 l 586 0 m 450 870 q 342 915 387 870 q 298 1024 298 960 q 342 1133 298 1088 q 452 1178 387 1178 q 561 1133 515 1178 q 606 1024 606 1088 q 561 915 606 959 q 450 870 515 870 m 450 937 q 513 962 488 937 q 538 1025 538 987 q 513 1086 538 1061 q 452 1111 488 1111 q 390 1086 416 1111 q 365 1024 365 1061 q 390 963 365 988 q 450 937 415 937 z "},"Ű":{"ha":1023,"x_min":117,"x_max":908,"o":"m 117 1004 l 326 1004 l 326 389 q 374 178 326 243 q 530 113 422 113 q 678 175 632 113 q 724 374 724 237 l 724 1004 l 905 1004 l 905 387 q 879 175 905 248 q 783 49 852 102 q 526 -25 687 -25 q 248 54 353 -25 q 146 182 175 108 q 117 389 117 256 l 117 1004 m 334 1088 l 498 1306 l 652 1306 l 435 1088 l 334 1088 m 590 1088 l 753 1306 l 908 1306 l 690 1088 l 590 1088 z "},"ű":{"ha":912,"x_min":117,"x_max":804,"o":"m 586 0 l 586 140 q 332 -17 488 -17 q 175 46 233 -17 q 117 218 117 109 l 117 745 l 318 745 l 318 268 q 403 141 318 141 q 586 276 498 141 l 586 745 l 787 745 l 787 0 l 586 0 m 230 870 l 393 1088 l 548 1088 l 330 870 l 230 870 m 486 870 l 648 1088 l 804 1088 l 586 870 l 486 870 z "},"Ų":{"ha":1023,"x_min":117,"x_max":905,"o":"m 117 1004 l 326 1004 l 326 389 q 374 178 326 243 q 530 113 422 113 q 678 175 632 113 q 724 374 724 237 l 724 1004 l 905 1004 l 905 387 q 879 175 905 248 q 783 49 852 102 q 526 -25 687 -25 q 248 54 353 -25 q 146 182 175 108 q 117 389 117 256 l 117 1004 m 509 0 l 616 0 q 490 -122 490 -58 q 600 -186 490 -186 q 692 -176 658 -186 l 692 -231 q 557 -251 633 -251 q 412 -221 467 -251 q 357 -143 357 -191 q 509 0 357 -63 z "},"ų":{"ha":912,"x_min":117,"x_max":787,"o":"m 586 0 l 586 140 q 332 -17 488 -17 q 175 46 233 -17 q 117 218 117 109 l 117 745 l 318 745 l 318 268 q 403 141 318 141 q 586 276 498 141 l 586 745 l 787 745 l 787 0 l 586 0 m 586 0 l 693 0 q 567 -122 567 -58 q 677 -186 567 -186 q 768 -176 734 -186 l 768 -231 q 633 -251 710 -251 q 488 -221 543 -251 q 433 -143 433 -191 q 586 0 433 -63 z "},"Ź":{"ha":895,"x_min":72,"x_max":814,"o":"m 72 0 l 72 142 l 571 866 l 100 866 l 100 1004 l 814 1004 l 814 866 l 315 142 l 814 142 l 814 0 l 72 0 m 346 1088 l 509 1306 l 693 1306 l 475 1088 l 346 1088 z "},"ź":{"ha":821,"x_min":83,"x_max":745,"o":"m 83 0 l 83 134 l 500 619 l 102 619 l 102 745 l 737 745 l 737 619 l 321 134 l 745 134 l 745 0 l 83 0 m 323 870 l 487 1088 l 671 1088 l 453 870 l 323 870 z "},"Ż":{"ha":895,"x_min":72,"x_max":814,"o":"m 72 0 l 72 142 l 571 866 l 100 866 l 100 1004 l 814 1004 l 814 866 l 315 142 l 814 142 l 814 0 l 72 0 m 357 1088 l 357 1289 l 557 1289 l 557 1088 l 357 1088 z "},"ż":{"ha":821,"x_min":83,"x_max":745,"o":"m 83 0 l 83 134 l 500 619 l 102 619 l 102 745 l 737 745 l 737 619 l 321 134 l 745 134 l 745 0 l 83 0 m 320 870 l 320 1071 l 521 1071 l 521 870 l 320 870 z "},"Ơ":{"ha":1223,"x_min":63,"x_max":1215,"o":"m 568 113 q 781 219 703 113 q 859 505 859 324 q 781 785 859 680 q 572 891 702 891 q 363 785 441 891 q 285 503 285 680 q 363 220 285 327 q 568 113 441 113 m 1023 772 q 1081 498 1081 651 q 943 117 1081 259 q 572 -25 804 -25 q 201 117 338 -25 q 63 502 63 260 q 201 886 63 744 q 572 1029 338 1029 q 973 853 835 1029 l 983 853 q 1053 875 1034 853 q 1072 955 1072 897 l 1073 1004 l 1073 1071 l 1215 1071 l 1215 1038 q 1023 772 1215 790 m 1143 0 z "},"ơ":{"ha":997,"x_min":58,"x_max":988,"o":"m 441 109 q 569 179 523 109 q 614 374 614 249 q 569 566 614 495 q 443 636 523 636 q 318 566 363 636 q 272 372 272 495 q 317 180 272 251 q 441 109 363 109 m 807 514 q 828 374 828 446 q 725 88 828 193 q 443 -17 622 -17 q 161 87 264 -17 q 58 372 58 192 q 162 657 58 553 q 444 762 265 762 q 772 595 669 762 q 845 695 845 602 l 846 745 l 846 803 l 988 803 l 988 778 q 945 592 988 654 q 807 514 903 530 m 887 0 z "},"Ư":{"ha":1148,"x_min":117,"x_max":1140,"o":"m 117 1004 l 326 1004 l 326 389 q 374 178 326 243 q 530 113 422 113 q 678 175 632 113 q 724 374 724 237 l 724 1004 l 905 1004 l 905 853 q 977 875 958 853 q 997 955 997 897 l 998 1004 l 998 1071 l 1140 1071 l 1140 1038 q 1083 834 1140 899 q 905 770 1026 770 l 905 387 q 879 175 905 248 q 783 49 852 102 q 526 -25 687 -25 q 248 54 353 -25 q 146 182 175 108 q 117 389 117 256 l 117 1004 m 1023 0 z "},"ư":{"ha":1029,"x_min":117,"x_max":1021,"o":"m 586 0 l 586 140 q 332 -17 488 -17 q 175 46 233 -17 q 117 218 117 109 l 117 745 l 318 745 l 318 268 q 403 141 318 141 q 586 276 498 141 l 586 745 l 787 745 l 787 594 q 858 616 839 594 q 878 695 878 637 l 879 745 l 879 803 l 1021 803 l 1021 778 q 964 575 1021 640 q 787 511 907 511 l 787 0 l 586 0 m 912 0 z "},"̀":{"ha":888,"x_min":241,"x_max":588,"o":"m 588 870 l 458 870 l 241 1088 l 425 1088 l 588 870 z "},"́":{"ha":888,"x_min":314,"x_max":661,"o":"m 314 870 l 477 1088 l 661 1088 l 444 870 l 314 870 z "},"̂":{"ha":888,"x_min":187,"x_max":699,"o":"m 187 870 l 351 1088 l 536 1088 l 699 870 l 578 870 l 444 1004 l 442 1004 l 309 870 l 187 870 z "},"̃":{"ha":888,"x_min":205,"x_max":682,"o":"m 305 870 l 205 870 q 341 1088 205 1088 q 427 1059 385 1088 l 453 1041 l 474 1026 q 536 996 517 996 q 581 1088 581 996 l 682 1088 q 545 870 682 870 q 460 899 501 870 l 433 917 q 412 932 417 928 q 351 962 371 962 q 305 870 305 962 z "},"̉":{"ha":887,"x_min":314,"x_max":627,"o":"m 511 870 l 377 870 l 377 878 q 386 927 377 911 q 429 968 395 942 l 444 979 q 463 992 452 985 q 489 1032 489 1011 q 421 1071 489 1071 q 314 1053 377 1071 l 314 1137 q 441 1154 382 1154 q 627 1054 627 1154 q 579 976 627 1016 q 562 962 568 966 l 547 948 q 511 884 511 915 l 511 870 z "},"̣":{"ha":887,"x_min":343,"x_max":545,"o":"m 343 -284 l 343 -83 l 545 -83 l 545 -284 l 343 -284 z "},"΄":{"ha":887,"x_min":351,"x_max":535,"o":"m 376 870 l 351 1088 l 535 1088 l 510 870 l 376 870 z "},"΅":{"ha":887,"x_min":144,"x_max":743,"o":"m 144 870 l 144 1021 l 295 1021 l 295 870 l 144 870 m 592 870 l 592 1021 l 743 1021 l 743 870 l 592 870 m 376 870 l 351 1088 l 536 1088 l 511 870 l 376 870 z "},"Ά":{"ha":1023,"x_min":16,"x_max":1006,"o":"m 16 0 l 406 1004 l 615 1004 l 1006 0 l 791 0 l 687 268 l 272 268 l 168 0 l 16 0 m 323 401 l 635 401 l 479 802 l 323 401 m 63 787 l 38 1005 l 222 1005 l 197 787 l 63 787 z "},"·":{"ha":343,"x_min":63,"x_max":281,"o":"m 63 318 l 63 535 l 281 535 l 281 318 l 63 318 z "},"Έ":{"ha":1027,"x_min":1,"x_max":978,"o":"m 319 0 l 319 1004 l 946 1004 l 946 866 l 528 866 l 528 586 l 871 586 l 871 448 l 528 448 l 528 142 l 978 142 l 978 0 l 319 0 m 26 787 l 1 1005 l 184 1005 l 159 787 l 26 787 z "},"Ή":{"ha":1276,"x_min":1,"x_max":1152,"o":"m 319 0 l 319 1004 l 528 1004 l 528 596 l 943 596 l 943 1004 l 1152 1004 l 1152 0 l 943 0 l 943 458 l 528 458 l 528 0 l 319 0 m 26 787 l 1 1005 l 184 1005 l 159 787 l 26 787 z "},"Ί":{"ha":652,"x_min":1,"x_max":528,"o":"m 319 0 l 319 1004 l 528 1004 l 528 0 l 319 0 m 26 787 l 1 1005 l 184 1005 l 159 787 l 26 787 z "},"Ό":{"ha":1300,"x_min":1,"x_max":1236,"o":"m 721 -25 q 355 119 492 -25 q 218 502 218 262 q 356 886 218 744 q 728 1029 494 1029 q 1098 886 960 1029 q 1236 504 1236 744 q 1098 117 1236 258 q 721 -25 960 -25 m 724 113 q 936 219 858 113 q 1015 505 1015 324 q 936 785 1015 680 q 728 891 857 891 q 518 785 597 891 q 440 503 440 680 q 518 220 440 327 q 724 113 596 113 m 26 787 l 1 1005 l 184 1005 l 159 787 l 26 787 z "},"Ύ":{"ha":1225,"x_min":1,"x_max":1212,"o":"m 645 0 l 645 296 q 545 694 645 526 q 309 862 446 862 l 309 1004 q 621 905 507 1004 q 787 587 734 806 q 963 879 849 767 q 1212 1004 1076 990 l 1212 878 q 961 667 1068 845 q 854 285 854 490 l 854 0 l 645 0 m 26 787 l 1 1005 l 184 1005 l 159 787 l 26 787 z "},"Ώ":{"ha":1318,"x_min":1,"x_max":1272,"o":"m 200 0 l 200 138 l 482 138 q 234 578 234 323 q 374 903 234 778 q 736 1029 513 1029 q 1098 903 958 1029 q 1238 578 1238 778 q 989 138 1238 324 l 1272 138 l 1272 0 l 812 0 l 812 138 q 1016 563 1016 290 q 941 803 1016 715 q 736 891 866 891 q 531 803 606 891 q 456 562 456 715 q 659 138 456 290 l 659 0 l 200 0 m 26 786 l 1 1004 l 184 1004 l 159 786 l 26 786 z "},"ΐ":{"ha":534,"x_min":-99,"x_max":500,"o":"m 500 17 q 336 -17 419 -17 q 170 33 228 -17 q 113 123 127 68 q 98 300 98 178 l 98 745 l 299 745 l 299 288 q 321 154 299 193 q 396 115 343 115 q 500 143 441 115 l 500 17 m -99 870 l -99 1021 l 52 1021 l 52 870 l -99 870 m 349 870 l 349 1021 l 499 1021 l 499 870 l 349 870 m 133 870 l 108 1088 l 292 1088 l 267 870 l 133 870 z "},"Α":{"ha":1022,"x_min":16,"x_max":1006,"o":"m 16 0 l 406 1004 l 615 1004 l 1006 0 l 791 0 l 687 268 l 272 268 l 168 0 l 16 0 m 323 401 l 635 401 l 479 802 l 323 401 z "},"Β":{"ha":875,"x_min":125,"x_max":817,"o":"m 125 0 l 125 1004 l 467 1004 q 697 947 618 1004 q 776 781 776 890 q 535 524 776 600 q 817 248 817 456 q 734 64 817 128 q 498 0 652 0 l 125 0 m 326 586 l 372 586 q 512 629 460 586 q 564 747 564 673 q 522 841 564 817 q 364 866 480 866 l 326 866 l 326 586 m 326 142 l 367 142 q 548 171 498 142 q 598 273 598 199 q 531 401 598 350 q 363 452 465 452 l 326 452 l 326 142 z "},"Γ":{"ha":774,"x_min":125,"x_max":757,"o":"m 125 0 l 125 1004 l 757 1004 l 757 866 l 334 866 l 334 0 l 125 0 z "},"Δ":{"ha":1019,"x_min":21,"x_max":998,"o":"m 21 0 l 21 168 l 420 1004 l 597 1004 l 998 168 l 998 0 l 21 0 m 475 784 l 182 168 l 770 168 l 475 784 z "},"Ε":{"ha":835,"x_min":125,"x_max":785,"o":"m 125 0 l 125 1004 l 753 1004 l 753 866 l 334 866 l 334 586 l 677 586 l 677 448 l 334 448 l 334 142 l 785 142 l 785 0 l 125 0 z "},"Ζ":{"ha":896,"x_min":72,"x_max":814,"o":"m 72 0 l 72 142 l 571 866 l 100 866 l 100 1004 l 814 1004 l 814 866 l 315 142 l 814 142 l 814 0 l 72 0 z "},"Η":{"ha":1083,"x_min":125,"x_max":958,"o":"m 125 0 l 125 1004 l 334 1004 l 334 596 l 749 596 l 749 1004 l 958 1004 l 958 0 l 749 0 l 749 458 l 334 458 l 334 0 l 125 0 z "},"Θ":{"ha":1143,"x_min":63,"x_max":1081,"o":"m 566 -25 q 200 119 337 -25 q 63 502 63 262 q 201 886 63 744 q 572 1029 338 1029 q 943 886 805 1029 q 1081 504 1081 744 q 943 117 1081 258 q 566 -25 805 -25 m 568 113 q 781 219 703 113 q 859 505 859 324 q 781 785 859 680 q 572 891 702 891 q 363 785 441 891 q 285 503 285 680 q 363 220 285 327 q 568 113 441 113 m 384 452 l 384 590 l 760 590 l 760 452 l 384 452 z "},"Ι":{"ha":461,"x_min":125,"x_max":334,"o":"m 125 0 l 125 1004 l 334 1004 l 334 0 l 125 0 z "},"Κ":{"ha":986,"x_min":125,"x_max":968,"o":"m 125 0 l 125 1004 l 326 1004 l 326 517 l 710 1004 l 884 1004 l 536 553 l 968 0 l 707 0 l 326 494 l 326 0 l 125 0 z "},"Λ":{"ha":1023,"x_min":16,"x_max":1006,"o":"m 16 0 l 406 1004 l 615 1004 l 1006 0 l 791 0 l 484 789 l 177 0 l 16 0 z "},"Μ":{"ha":1261,"x_min":125,"x_max":1135,"o":"m 125 0 l 125 1004 l 402 1004 l 644 298 l 892 1004 l 1135 1004 l 1135 0 l 943 0 l 943 758 l 698 67 l 530 67 l 290 768 l 290 0 l 125 0 z "},"Ν":{"ha":1068,"x_min":125,"x_max":942,"o":"m 125 0 l 125 1004 l 309 1004 l 774 318 l 774 1004 l 942 1004 l 942 0 l 755 0 l 293 686 l 293 0 l 125 0 z "},"Ξ":{"ha":845,"x_min":25,"x_max":820,"o":"m 25 0 l 25 176 l 820 176 l 820 0 l 25 0 m 130 446 l 130 596 l 715 596 l 715 446 l 130 446 m 63 837 l 63 1004 l 783 1004 l 783 837 l 63 837 z "},"Ο":{"ha":1143,"x_min":63,"x_max":1081,"o":"m 566 -25 q 200 119 337 -25 q 63 502 63 262 q 201 886 63 744 q 572 1029 338 1029 q 943 886 805 1029 q 1081 504 1081 744 q 943 117 1081 258 q 566 -25 805 -25 m 568 113 q 781 219 703 113 q 859 505 859 324 q 781 785 859 680 q 572 891 702 891 q 363 785 441 891 q 285 503 285 680 q 363 220 285 327 q 568 113 441 113 z "},"Π":{"ha":1084,"x_min":125,"x_max":958,"o":"m 125 0 l 125 1004 l 958 1004 l 958 0 l 749 0 l 749 866 l 334 866 l 334 0 l 125 0 z "},"Ρ":{"ha":851,"x_min":125,"x_max":815,"o":"m 125 0 l 125 1004 l 475 1004 q 737 942 659 1004 q 815 737 815 881 q 710 484 815 574 q 417 393 606 393 l 330 393 l 330 0 l 125 0 m 330 531 l 371 531 q 540 581 478 531 q 602 716 602 631 q 412 866 602 866 l 330 866 l 330 531 z "},"Σ":{"ha":886,"x_min":46,"x_max":844,"o":"m 46 0 l 46 165 l 415 494 l 79 866 l 79 1004 l 823 1004 l 823 866 l 347 866 l 657 523 l 256 168 l 844 168 l 844 0 l 46 0 z "},"Τ":{"ha":958,"x_min":15,"x_max":943,"o":"m 374 0 l 374 866 l 15 866 l 15 1004 l 943 1004 l 943 866 l 584 866 l 584 0 l 374 0 z "},"Υ":{"ha":928,"x_min":13,"x_max":916,"o":"m 349 0 l 349 296 q 250 694 349 526 q 13 862 150 862 l 13 1004 q 325 905 212 1004 q 492 587 439 806 q 667 879 553 767 q 916 1004 781 990 l 916 878 q 666 667 772 845 q 559 285 559 490 l 559 0 l 349 0 z "},"Φ":{"ha":1059,"x_min":46,"x_max":1013,"o":"m 431 0 l 431 137 q 151 245 256 145 q 46 502 46 345 q 151 759 46 660 q 431 867 256 859 l 431 1004 l 628 1004 l 628 867 q 908 759 803 859 q 1013 502 1013 660 q 908 245 1013 345 q 628 137 803 145 l 628 0 l 431 0 m 431 729 q 247 502 247 705 q 431 275 247 299 l 431 729 m 628 729 l 628 275 q 812 502 812 299 q 628 729 812 705 z "},"Χ":{"ha":926,"x_min":33,"x_max":896,"o":"m 33 0 l 355 494 l 47 1004 l 291 1004 l 495 666 l 716 1004 l 885 1004 l 577 530 l 896 0 l 653 0 l 435 359 l 202 0 l 33 0 z "},"Ψ":{"ha":1074,"x_min":13,"x_max":1062,"o":"m 433 0 l 433 397 q 221 467 288 406 q 132 673 154 528 l 123 734 q 91 841 111 816 q 22 866 72 866 l 13 866 l 13 1004 l 26 1004 q 218 957 164 1004 q 298 769 273 911 l 311 704 q 353 568 329 603 q 433 527 377 534 l 433 1004 l 642 1004 l 642 527 q 722 568 698 534 q 764 704 746 603 l 777 769 q 857 957 802 911 q 1049 1004 911 1004 l 1062 1004 l 1062 866 l 1053 866 q 984 841 1003 866 q 952 734 964 816 l 943 673 q 854 467 921 528 q 642 397 787 406 l 642 0 l 433 0 z "},"Ω":{"ha":1163,"x_min":46,"x_max":1118,"o":"m 46 0 l 46 138 l 328 138 q 80 578 80 323 q 220 903 80 778 q 582 1029 359 1029 q 944 903 804 1029 q 1084 578 1084 778 q 836 138 1084 324 l 1118 138 l 1118 0 l 659 0 l 659 138 q 862 563 862 290 q 787 803 862 715 q 582 891 712 891 q 377 803 452 891 q 302 562 302 715 q 505 138 302 290 l 505 0 l 46 0 z "},"Ϊ":{"ha":460,"x_min":14,"x_max":449,"o":"m 125 0 l 125 1004 l 334 1004 l 334 0 l 125 0 m 14 1088 l 14 1239 l 165 1239 l 165 1088 l 14 1088 m 298 1088 l 298 1239 l 449 1239 l 449 1088 l 298 1088 z "},"Ϋ":{"ha":928,"x_min":13,"x_max":916,"o":"m 349 0 l 349 296 q 250 694 349 526 q 13 862 150 862 l 13 1004 q 325 905 212 1004 q 492 587 439 806 q 667 879 553 767 q 916 1004 781 990 l 916 878 q 666 667 772 845 q 559 285 559 490 l 559 0 l 349 0 m 269 1088 l 269 1239 l 419 1239 l 419 1088 l 269 1088 m 553 1088 l 553 1239 l 703 1239 l 703 1088 l 553 1088 z "},"ά":{"ha":1017,"x_min":70,"x_max":979,"o":"m 686 454 q 749 745 741 591 l 951 745 q 897 543 937 631 q 765 333 857 454 q 979 0 889 109 l 755 0 q 640 183 701 77 q 326 -17 468 -17 q 141 80 212 -17 q 70 334 70 178 q 167 638 70 515 q 406 762 264 762 q 612 602 533 762 l 662 500 q 686 454 669 486 m 579 297 l 552 353 q 530 401 544 372 q 494 479 503 462 l 452 555 q 392 609 422 609 q 312 532 345 609 q 280 344 280 456 q 307 186 280 246 q 377 126 334 126 q 579 297 448 126 m 416 870 l 391 1088 l 575 1088 l 550 870 l 416 870 z "},"έ":{"ha":754,"x_min":63,"x_max":689,"o":"m 689 158 l 689 25 q 446 -17 575 -17 q 167 89 271 -17 q 63 373 63 195 q 168 660 63 558 q 463 762 273 762 q 681 733 576 762 l 681 602 q 471 636 564 636 q 273 450 300 636 l 638 450 l 638 328 l 272 328 q 490 109 294 109 q 689 158 585 109 m 376 870 l 351 1088 l 535 1088 l 510 870 l 376 870 z "},"ή":{"ha":913,"x_min":83,"x_max":795,"o":"m 127 0 l 127 522 q 83 745 127 650 l 300 745 q 328 604 315 692 q 581 762 437 762 q 741 695 686 762 q 795 502 795 628 l 795 -268 l 595 -268 l 595 467 q 503 598 595 598 q 328 471 410 598 l 328 0 l 127 0 m 386 870 l 361 1088 l 545 1088 l 519 870 l 386 870 z "},"ί":{"ha":534,"x_min":98,"x_max":500,"o":"m 500 17 q 336 -17 419 -17 q 170 33 228 -17 q 113 123 127 68 q 98 300 98 178 l 98 745 l 299 745 l 299 288 q 321 154 299 193 q 396 115 343 115 q 500 143 441 115 l 500 17 m 133 870 l 108 1088 l 292 1088 l 267 870 l 133 870 z "},"ΰ":{"ha":844,"x_min":95,"x_max":761,"o":"m 95 745 l 296 745 l 296 387 q 327 167 296 226 q 442 109 357 109 q 567 174 519 109 q 615 344 615 239 q 494 745 615 516 l 689 745 q 761 378 761 556 q 668 90 761 197 q 417 -17 574 -17 q 186 63 271 -17 q 113 180 132 113 q 95 392 95 247 l 95 745 m 108 870 l 108 1021 l 258 1021 l 258 870 l 108 870 m 555 870 l 555 1021 l 706 1021 l 706 870 l 555 870 m 340 870 l 315 1088 l 499 1088 l 474 870 l 340 870 z "},"α":{"ha":1017,"x_min":70,"x_max":979,"o":"m 686 454 q 749 745 741 591 l 951 745 q 897 543 937 631 q 765 333 857 454 q 979 0 889 109 l 755 0 q 640 183 701 77 q 326 -17 468 -17 q 141 80 212 -17 q 70 334 70 178 q 167 638 70 515 q 406 762 264 762 q 612 602 533 762 l 662 500 q 686 454 669 486 m 579 297 l 552 353 q 530 401 544 372 q 494 479 503 462 l 452 555 q 392 609 422 609 q 312 532 345 609 q 280 344 280 456 q 307 186 280 246 q 377 126 334 126 q 579 297 448 126 z "},"β":{"ha":893,"x_min":125,"x_max":827,"o":"m 125 -268 l 125 654 q 469 1088 125 1088 q 675 1023 598 1088 q 752 850 752 958 q 562 589 752 689 q 758 472 688 550 q 827 290 827 393 q 730 71 827 159 q 492 -17 634 -17 q 326 9 413 -17 l 326 -268 l 125 -268 m 368 621 l 385 621 q 504 683 456 621 q 553 837 553 745 q 450 962 553 962 q 355 903 384 962 q 326 709 326 844 l 326 144 q 465 109 401 109 q 579 160 532 109 q 625 286 625 211 q 556 438 625 376 q 386 500 488 500 l 368 500 l 368 621 z "},"γ":{"ha":852,"x_min":0,"x_max":852,"o":"m 353 87 l 342 112 q 178 458 275 278 q 0 745 81 638 l 239 745 q 412 412 346 575 l 449 322 q 463 290 452 315 q 686 720 551 503 l 701 745 l 852 745 q 688 464 789 661 q 532 118 588 267 q 572 -75 572 -9 q 523 -268 572 -164 l 353 -268 q 311 -100 311 -174 q 353 87 311 -36 z "},"δ":{"ha":864,"x_min":63,"x_max":802,"o":"m 315 660 q 142 781 191 730 q 94 892 94 831 q 184 1036 94 985 q 434 1088 273 1088 q 648 1065 548 1088 l 648 924 q 431 962 542 962 q 295 901 295 962 q 360 831 295 871 l 424 791 l 486 753 l 547 716 q 742 542 683 630 q 802 337 802 454 q 699 82 802 180 q 433 -17 596 -17 q 167 76 271 -17 q 63 314 63 169 q 315 660 63 549 m 433 578 q 272 321 272 486 q 317 167 272 226 q 435 109 362 109 q 548 169 504 109 q 592 324 592 229 q 556 466 592 410 q 433 578 521 523 z "},"ε":{"ha":754,"x_min":63,"x_max":689,"o":"m 689 158 l 689 25 q 446 -17 575 -17 q 167 89 271 -17 q 63 373 63 195 q 168 660 63 558 q 463 762 273 762 q 681 733 576 762 l 681 602 q 471 636 564 636 q 273 450 300 636 l 638 450 l 638 328 l 272 328 q 490 109 294 109 q 689 158 585 109 z "},"ζ":{"ha":878,"x_min":-15,"x_max":869,"o":"m 275 782 l 245 782 q -15 832 109 782 l -15 1006 q 379 887 164 901 q 803 1088 585 1066 l 843 970 q 448 777 685 809 q 299 349 299 545 q 352 204 299 249 q 524 159 406 159 l 591 159 q 869 -49 869 159 q 779 -221 869 -157 q 534 -284 688 -284 q 408 -271 478 -284 l 408 -134 q 543 -151 474 -151 q 709 -70 709 -151 q 674 -15 709 -30 q 547 0 639 0 l 486 0 q 187 81 284 0 q 90 331 90 162 q 275 782 90 551 z "},"η":{"ha":913,"x_min":83,"x_max":795,"o":"m 127 0 l 127 522 q 83 745 127 650 l 300 745 q 328 604 315 692 q 581 762 437 762 q 741 695 686 762 q 795 502 795 628 l 795 -268 l 595 -268 l 595 467 q 503 598 595 598 q 328 471 410 598 l 328 0 l 127 0 z "},"θ":{"ha":878,"x_min":71,"x_max":806,"o":"m 433 -17 q 167 129 263 -17 q 71 532 71 274 q 168 942 71 796 q 439 1088 264 1088 q 710 942 613 1088 q 806 534 806 797 q 709 126 806 269 q 433 -17 612 -17 m 276 609 l 602 609 q 559 870 602 777 q 439 962 516 962 q 319 870 361 962 q 276 609 276 777 m 275 483 l 274 454 q 318 200 274 292 q 439 109 361 109 q 560 200 516 109 q 604 454 604 292 l 603 483 l 275 483 z "},"ι":{"ha":534,"x_min":98,"x_max":500,"o":"m 500 17 q 336 -17 419 -17 q 170 33 228 -17 q 113 123 127 68 q 98 300 98 178 l 98 745 l 299 745 l 299 288 q 321 154 299 193 q 396 115 343 115 q 500 143 441 115 l 500 17 z "},"κ":{"ha":831,"x_min":125,"x_max":787,"o":"m 125 0 l 125 745 l 326 745 l 326 389 l 382 459 l 450 545 q 607 710 555 675 q 753 745 659 745 l 753 605 l 736 606 q 651 573 692 606 q 540 452 610 541 l 506 410 l 787 0 l 570 0 l 326 361 l 326 0 l 125 0 z "},"λ":{"ha":873,"x_min":18,"x_max":857,"o":"m 407 496 l 181 0 l 18 0 l 327 677 l 279 783 q 207 890 242 867 q 77 912 172 912 l 63 912 l 63 1071 l 83 1071 q 335 1025 266 1071 q 479 806 404 979 l 691 328 q 857 0 777 133 l 640 0 l 623 31 q 500 286 560 149 l 407 496 z "},"μ":{"ha":962,"x_min":125,"x_max":836,"o":"m 125 -268 l 125 745 l 326 745 l 326 285 q 419 146 326 146 q 594 276 510 146 l 594 745 l 795 745 l 795 222 q 836 0 795 93 l 619 0 q 594 140 604 54 q 405 -13 510 -13 q 326 8 359 -13 l 326 -268 l 125 -268 z "},"ν":{"ha":819,"x_min":3,"x_max":776,"o":"m 303 0 q 165 382 258 151 q 3 745 73 613 l 228 745 q 290 601 252 698 l 342 468 q 437 200 395 334 l 446 172 q 559 423 507 276 q 611 638 611 570 q 591 745 611 692 l 766 745 q 776 671 776 709 q 667 322 776 553 q 505 0 558 92 l 303 0 z "},"ξ":{"ha":812,"x_min":-38,"x_max":799,"o":"m 302 559 q 170 643 219 585 q 121 773 121 701 q 169 904 121 836 q -38 957 60 919 l -38 1103 q 273 1007 96 1034 q 562 1088 418 1088 q 676 1078 616 1088 l 705 997 q 345 888 557 888 q 314 790 314 843 q 379 663 314 716 q 464 617 422 629 q 593 606 506 606 l 680 606 l 680 481 l 598 481 q 273 288 273 481 q 460 159 273 159 l 521 159 q 799 -49 799 159 q 708 -221 799 -157 q 463 -284 617 -284 q 338 -271 407 -284 l 338 -134 q 473 -151 403 -151 q 638 -70 638 -151 q 603 -15 638 -30 q 476 0 568 0 l 422 0 q 157 70 250 0 q 64 267 64 139 q 302 559 64 459 z "},"ο":{"ha":888,"x_min":58,"x_max":828,"o":"m 438 -17 q 161 89 264 -17 q 58 372 58 194 q 162 657 58 553 q 443 762 265 762 q 725 657 621 762 q 828 374 828 553 q 724 87 828 191 q 438 -17 621 -17 m 441 109 q 569 179 523 109 q 614 374 614 249 q 569 566 614 495 q 443 636 523 636 q 318 566 363 636 q 272 372 272 495 q 317 180 272 251 q 441 109 363 109 z "},"ρ":{"ha":877,"x_min":106,"x_max":806,"o":"m 106 -268 l 106 216 q 196 631 106 511 q 473 762 293 762 q 717 671 629 762 q 806 422 806 581 q 696 120 806 241 q 420 0 587 0 q 307 18 363 0 l 307 -268 l 106 -268 m 307 161 q 414 125 359 125 q 551 205 497 125 q 605 408 605 286 q 564 575 605 514 q 451 636 523 636 q 339 562 370 636 q 307 296 307 487 l 307 161 z "},"ς":{"ha":819,"x_min":63,"x_max":806,"o":"m 345 -134 q 480 -151 410 -151 q 645 -70 645 -151 q 610 -15 645 -30 q 484 0 576 0 l 433 0 q 158 81 254 0 q 63 315 63 162 q 205 634 63 507 q 559 762 347 762 q 730 745 650 762 l 730 610 q 561 636 644 636 q 348 556 425 636 q 271 336 271 477 q 321 201 271 243 q 484 159 371 159 l 528 159 q 806 -49 806 159 q 715 -221 806 -157 q 471 -284 625 -284 q 345 -271 415 -284 l 345 -134 z "},"σ":{"ha":974,"x_min":63,"x_max":966,"o":"m 575 745 l 966 745 l 966 602 l 772 602 q 833 376 833 490 q 730 88 833 193 q 448 -17 627 -17 q 166 87 269 -17 q 63 372 63 192 q 166 656 63 551 q 444 762 269 762 q 575 745 500 762 m 446 109 q 573 179 528 109 q 619 374 619 249 q 573 566 619 495 q 448 636 528 636 q 322 566 368 636 q 277 372 277 495 q 322 180 277 251 q 446 109 368 109 m 887 0 z "},"τ":{"ha":770,"x_min":21,"x_max":749,"o":"m 326 0 q 289 120 298 63 q 280 290 280 176 l 280 602 l 191 602 q 21 569 98 602 l 21 718 q 200 745 92 745 l 749 745 l 749 602 l 481 602 l 481 215 q 534 0 481 82 l 326 0 z "},"υ":{"ha":844,"x_min":95,"x_max":761,"o":"m 95 745 l 296 745 l 296 387 q 327 167 296 226 q 442 109 357 109 q 567 174 519 109 q 615 344 615 239 q 494 745 615 516 l 689 745 q 761 378 761 556 q 668 90 761 197 q 417 -17 574 -17 q 186 63 271 -17 q 113 180 132 113 q 95 392 95 247 l 95 745 z "},"φ":{"ha":1105,"x_min":63,"x_max":1042,"o":"m 460 -268 l 460 15 q 173 114 283 15 q 63 372 63 214 q 174 629 63 530 q 460 728 284 728 l 460 1071 l 644 1071 l 644 728 q 931 629 821 728 q 1042 372 1042 530 q 931 114 1042 213 q 644 15 821 15 l 644 -268 l 460 -268 m 460 602 q 256 372 256 568 q 460 141 256 174 l 460 602 m 644 602 l 644 141 q 850 372 850 174 q 644 602 850 568 z "},"χ":{"ha":818,"x_min":-20,"x_max":835,"o":"m 304 250 l 193 451 l 159 513 q 14 745 83 647 l 237 745 q 393 485 296 659 l 422 433 l 618 745 l 783 745 l 500 294 l 658 14 l 707 -66 l 762 -155 q 812 -233 782 -188 l 835 -268 l 608 -268 q 461 -31 530 -154 l 384 108 l 150 -268 l -20 -268 l 304 250 z "},"ψ":{"ha":1132,"x_min":33,"x_max":1071,"o":"m 467 -268 l 467 0 q 163 113 251 14 q 76 440 76 211 l 76 532 q 33 745 76 673 l 231 745 q 269 538 269 675 l 269 457 q 310 218 269 287 q 467 125 351 149 l 467 870 l 659 870 l 659 125 q 827 217 776 143 q 878 443 878 292 q 823 745 878 597 l 1019 745 q 1071 444 1071 601 q 965 125 1071 239 q 659 0 859 10 l 659 -268 l 467 -268 z "},"ω":{"ha":1280,"x_min":63,"x_max":1217,"o":"m 640 186 q 381 -17 548 -17 q 152 90 241 -17 q 63 363 63 196 q 167 745 63 566 l 374 745 q 253 362 253 549 q 295 193 253 258 q 402 127 336 127 q 559 307 510 127 q 519 479 519 401 q 559 675 519 574 l 721 675 q 761 479 761 574 q 722 307 761 401 q 878 127 771 127 q 986 193 944 127 q 1027 362 1027 258 q 907 745 1027 548 l 1114 745 q 1217 363 1217 565 q 1128 90 1217 196 q 899 -17 1039 -17 q 640 186 732 -17 z "},"ϊ":{"ha":534,"x_min":-18,"x_max":500,"o":"m 500 17 q 336 -17 419 -17 q 170 33 228 -17 q 113 123 127 68 q 98 300 98 178 l 98 745 l 299 745 l 299 288 q 321 154 299 193 q 396 115 343 115 q 500 143 441 115 l 500 17 m -18 870 l -18 1021 l 133 1021 l 133 870 l -18 870 m 267 870 l 267 1021 l 417 1021 l 417 870 l 267 870 z "},"ϋ":{"ha":844,"x_min":95,"x_max":761,"o":"m 95 745 l 296 745 l 296 387 q 327 167 296 226 q 442 109 357 109 q 567 174 519 109 q 615 344 615 239 q 494 745 615 516 l 689 745 q 761 378 761 556 q 668 90 761 197 q 417 -17 574 -17 q 186 63 271 -17 q 113 180 132 113 q 95 392 95 247 l 95 745 m 185 870 l 185 1021 l 336 1021 l 336 870 l 185 870 m 469 870 l 469 1021 l 620 1021 l 620 870 l 469 870 z "},"ό":{"ha":887,"x_min":58,"x_max":828,"o":"m 438 -17 q 161 89 264 -17 q 58 372 58 194 q 162 657 58 553 q 443 762 265 762 q 725 657 621 762 q 828 374 828 553 q 724 87 828 191 q 438 -17 621 -17 m 441 109 q 569 179 523 109 q 614 374 614 249 q 569 566 614 495 q 443 636 523 636 q 318 566 363 636 q 272 372 272 495 q 317 180 272 251 q 441 109 363 109 m 376 870 l 351 1088 l 535 1088 l 510 870 l 376 870 z "},"ύ":{"ha":844,"x_min":95,"x_max":761,"o":"m 95 745 l 296 745 l 296 387 q 327 167 296 226 q 442 109 357 109 q 567 174 519 109 q 615 344 615 239 q 494 745 615 516 l 689 745 q 761 378 761 556 q 668 90 761 197 q 417 -17 574 -17 q 186 63 271 -17 q 113 180 132 113 q 95 392 95 247 l 95 745 m 353 870 l 328 1088 l 512 1088 l 487 870 l 353 870 z "},"ώ":{"ha":1280,"x_min":63,"x_max":1217,"o":"m 640 186 q 381 -17 548 -17 q 152 90 241 -17 q 63 363 63 196 q 167 745 63 566 l 374 745 q 253 362 253 549 q 295 193 253 258 q 402 127 336 127 q 559 307 510 127 q 519 479 519 401 q 559 675 519 574 l 721 675 q 761 479 761 574 q 722 307 761 401 q 878 127 771 127 q 986 193 944 127 q 1027 362 1027 258 q 907 745 1027 548 l 1114 745 q 1217 363 1217 565 q 1128 90 1217 196 q 899 -17 1039 -17 q 640 186 732 -17 m 570 870 l 545 1088 l 728 1088 l 703 870 l 570 870 z "},"Ё":{"ha":834,"x_min":125,"x_max":785,"o":"m 125 0 l 125 1004 l 753 1004 l 753 866 l 334 866 l 334 586 l 677 586 l 677 448 l 334 448 l 334 142 l 785 142 l 785 0 l 125 0 m 234 1088 l 234 1239 l 385 1239 l 385 1088 l 234 1088 m 518 1088 l 518 1239 l 669 1239 l 669 1088 l 518 1088 z "},"Ђ":{"ha":1140,"x_min":8,"x_max":1090,"o":"m 531 568 q 772 660 644 660 q 1001 571 912 660 q 1090 340 1090 481 q 997 91 1090 190 q 761 -8 903 -8 q 676 0 727 -8 l 676 126 q 720 121 702 121 q 834 175 791 121 q 877 319 877 229 q 836 451 877 402 q 726 500 795 500 q 531 406 627 500 l 531 0 l 326 0 l 326 866 l 8 866 l 8 1004 l 853 1004 l 853 866 l 531 866 l 531 568 z "},"Ѓ":{"ha":734,"x_min":125,"x_max":722,"o":"m 125 0 l 125 1004 l 722 1004 l 722 866 l 334 866 l 334 0 l 125 0 m 335 1088 l 498 1306 l 682 1306 l 465 1088 l 335 1088 z "},"Є":{"ha":842,"x_min":63,"x_max":788,"o":"m 788 14 q 545 -25 669 -25 q 189 114 315 -25 q 63 505 63 252 q 192 889 63 748 q 543 1029 320 1029 q 775 990 659 1029 l 775 856 q 574 899 656 899 q 378 815 458 899 q 285 592 299 732 l 621 592 l 621 458 l 285 458 q 371 214 285 310 q 591 117 458 117 q 788 166 686 117 l 788 14 z "},"Ѕ":{"ha":793,"x_min":67,"x_max":740,"o":"m 69 9 l 69 181 q 347 113 231 113 q 474 149 427 113 q 520 247 520 185 q 491 329 520 296 q 380 409 462 363 l 313 446 q 123 592 178 522 q 67 754 67 661 q 158 954 67 878 q 399 1029 250 1029 q 670 994 519 1029 l 670 833 q 427 891 516 891 q 316 860 357 891 q 274 779 274 829 q 303 707 274 738 q 413 630 332 675 l 485 590 q 685 440 630 509 q 740 273 740 372 q 636 54 740 134 q 350 -25 532 -25 q 69 9 229 -25 z "},"І":{"ha":461,"x_min":125,"x_max":334,"o":"m 125 0 l 125 1004 l 334 1004 l 334 0 l 125 0 z "},"Ї":{"ha":460,"x_min":13,"x_max":448,"o":"m 125 0 l 125 1004 l 334 1004 l 334 0 l 125 0 m 13 1088 l 13 1239 l 163 1239 l 163 1088 l 13 1088 m 297 1088 l 297 1239 l 448 1239 l 448 1088 l 297 1088 z "},"Ј":{"ha":581,"x_min":-47,"x_max":456,"o":"m -46 -176 l -47 -27 q 120 -59 34 -59 q 219 -19 192 -59 q 246 125 246 21 l 246 1004 l 456 1004 l 456 147 q 380 -119 456 -38 q 134 -201 305 -201 q -46 -176 49 -201 z "},"Љ":{"ha":1404,"x_min":13,"x_max":1348,"o":"m 13 0 l 13 148 q 162 225 117 155 q 207 449 207 295 l 214 627 l 216 812 l 216 1004 l 873 1004 l 873 585 l 937 585 q 1127 575 1072 585 q 1234 533 1182 566 q 1348 307 1348 461 q 1217 56 1348 138 q 1100 11 1164 22 q 899 0 1036 0 l 668 0 l 668 866 l 416 866 l 416 787 q 371 208 416 331 q 254 55 331 100 q 13 0 178 11 m 873 129 l 920 129 q 1084 174 1025 129 q 1143 299 1143 219 q 929 455 1143 455 l 873 455 l 873 129 z "},"Њ":{"ha":1446,"x_min":125,"x_max":1389,"o":"m 705 458 l 334 458 l 334 0 l 125 0 l 125 1004 l 334 1004 l 334 588 l 705 588 l 705 1004 l 913 1004 l 913 585 l 977 585 q 1168 575 1114 585 q 1274 533 1223 566 q 1389 307 1389 461 q 1258 56 1389 138 q 1140 11 1204 22 q 941 0 1076 0 l 705 0 l 705 458 m 913 129 l 961 129 q 1184 299 1184 129 q 970 455 1184 455 l 913 455 l 913 129 z "},"Ћ":{"ha":1121,"x_min":13,"x_max":1038,"o":"m 758 1004 l 758 866 l 490 866 l 490 566 q 736 661 587 661 q 963 580 889 661 q 1038 332 1038 499 l 1038 0 l 829 0 l 829 329 q 796 467 829 425 q 688 509 763 509 q 490 405 581 509 l 490 0 l 281 0 l 281 866 l 13 866 l 13 1004 l 758 1004 z "},"Ќ":{"ha":890,"x_min":125,"x_max":852,"o":"m 327 453 l 327 0 l 125 0 l 125 1004 l 327 1004 l 327 583 q 391 612 367 588 q 457 715 414 636 q 484 765 478 755 l 512 814 l 549 880 q 777 1004 623 1004 l 800 1004 l 800 874 l 791 875 q 725 848 752 875 q 650 737 697 821 l 633 706 q 556 587 585 621 q 472 524 526 554 q 601 463 553 511 q 707 288 649 415 l 734 229 q 852 0 809 66 l 627 0 q 616 23 621 16 l 576 106 l 524 214 q 375 453 437 393 l 327 453 m 376 1088 l 540 1306 l 724 1306 l 506 1088 l 376 1088 z "},"Ў":{"ha":959,"x_min":21,"x_max":959,"o":"m 397 311 l 21 1004 l 250 1004 l 512 522 l 767 1004 l 959 1004 l 575 300 q 385 41 462 92 q 128 0 323 0 l 98 0 l 98 142 l 123 142 q 282 168 235 142 q 380 282 330 194 l 397 311 m 269 1306 l 369 1306 q 509 1210 397 1210 q 648 1306 620 1210 l 748 1306 q 672 1147 736 1206 q 509 1088 607 1088 q 345 1147 410 1088 q 269 1306 280 1206 z "},"Џ":{"ha":1084,"x_min":125,"x_max":958,"o":"m 125 0 l 125 1004 l 334 1004 l 334 138 l 749 138 l 749 1004 l 958 1004 l 958 0 l 642 0 l 642 -201 l 441 -201 l 441 0 l 125 0 z "},"А":{"ha":1022,"x_min":16,"x_max":1006,"o":"m 16 0 l 406 1004 l 615 1004 l 1006 0 l 791 0 l 687 268 l 272 268 l 168 0 l 16 0 m 323 401 l 635 401 l 479 802 l 323 401 z "},"Б":{"ha":867,"x_min":125,"x_max":810,"o":"m 125 0 l 125 1004 l 722 1004 l 722 866 l 330 866 l 330 585 l 398 585 q 589 575 534 585 q 695 533 644 566 q 810 307 810 461 q 679 56 810 138 q 561 11 625 22 q 361 0 497 0 l 125 0 m 330 129 l 382 129 q 546 174 487 129 q 605 299 605 219 q 391 455 605 455 l 330 455 l 330 129 z "},"В":{"ha":875,"x_min":125,"x_max":817,"o":"m 125 0 l 125 1004 l 467 1004 q 697 947 618 1004 q 776 781 776 890 q 535 524 776 600 q 817 248 817 456 q 734 64 817 128 q 498 0 652 0 l 125 0 m 326 586 l 372 586 q 512 629 460 586 q 564 747 564 673 q 522 841 564 817 q 364 866 480 866 l 326 866 l 326 586 m 326 142 l 367 142 q 548 171 498 142 q 598 273 598 199 q 531 401 598 350 q 363 452 465 452 l 326 452 l 326 142 z "},"Г":{"ha":734,"x_min":125,"x_max":722,"o":"m 125 0 l 125 1004 l 722 1004 l 722 866 l 334 866 l 334 0 l 125 0 z "},"Д":{"ha":1126,"x_min":42,"x_max":1093,"o":"m 42 -201 l 42 144 l 121 144 q 322 886 322 420 l 322 1004 l 955 1004 l 955 144 l 1093 144 l 1093 -201 l 890 -201 l 890 0 l 245 0 l 245 -201 l 42 -201 m 754 144 l 754 874 l 518 874 l 518 858 q 469 448 518 643 q 338 144 420 254 l 754 144 z "},"Е":{"ha":835,"x_min":125,"x_max":785,"o":"m 125 0 l 125 1004 l 753 1004 l 753 866 l 334 866 l 334 586 l 677 586 l 677 448 l 334 448 l 334 142 l 785 142 l 785 0 l 125 0 z "},"Ж":{"ha":1260,"x_min":27,"x_max":1234,"o":"m 728 453 l 728 0 l 532 0 l 532 453 l 486 453 q 410 357 445 420 q 292 101 375 294 l 258 21 q 248 0 256 18 l 27 0 q 136 225 73 77 l 163 288 q 263 463 220 419 q 393 526 305 507 q 314 584 342 551 q 241 704 286 617 l 222 743 q 153 848 181 822 q 79 874 124 874 l 79 1004 q 251 964 193 1004 q 368 806 309 924 l 386 771 l 412 718 q 475 610 455 632 q 532 578 494 587 l 532 1004 l 728 1004 l 728 578 q 788 614 767 590 q 848 718 810 639 q 875 771 857 736 l 892 806 q 1010 964 953 925 q 1181 1004 1068 1004 l 1181 874 q 1108 848 1136 874 q 1039 743 1080 823 l 1019 704 q 946 583 974 616 q 867 526 919 551 q 998 463 956 507 q 1097 288 1041 418 l 1124 225 q 1234 0 1187 79 l 1013 0 l 1003 21 l 968 101 q 850 360 883 300 q 775 453 817 420 l 728 453 z "},"З":{"ha":793,"x_min":44,"x_max":730,"o":"m 44 12 l 44 161 q 298 106 204 106 q 452 152 396 106 q 509 277 509 197 q 436 426 509 378 q 211 473 364 473 l 189 473 l 189 603 l 210 603 q 483 766 483 603 q 290 899 483 899 q 60 852 191 899 l 60 988 q 336 1029 195 1029 q 701 790 701 1029 q 510 551 701 627 q 730 278 730 487 q 620 57 730 138 q 320 -25 510 -25 q 44 12 189 -25 z "},"И":{"ha":1092,"x_min":125,"x_max":966,"o":"m 125 0 l 125 1004 l 326 1004 l 326 269 l 781 1004 l 966 1004 l 966 0 l 766 0 l 766 735 l 311 0 l 125 0 z "},"Й":{"ha":1092,"x_min":125,"x_max":966,"o":"m 125 0 l 125 1004 l 326 1004 l 326 269 l 781 1004 l 966 1004 l 966 0 l 766 0 l 766 735 l 311 0 l 125 0 m 295 1306 l 395 1306 q 535 1210 424 1210 q 674 1306 646 1210 l 774 1306 q 698 1147 763 1206 q 535 1088 633 1088 q 372 1147 437 1088 q 295 1306 307 1206 z "},"К":{"ha":890,"x_min":125,"x_max":852,"o":"m 327 453 l 327 0 l 125 0 l 125 1004 l 327 1004 l 327 583 q 391 612 367 588 q 457 715 414 636 q 484 765 478 755 l 512 814 l 549 880 q 777 1004 623 1004 l 800 1004 l 800 874 l 791 875 q 725 848 752 875 q 650 737 697 821 l 633 706 q 556 587 585 621 q 472 524 526 554 q 601 463 553 511 q 707 288 649 415 l 734 229 q 852 0 809 66 l 627 0 q 616 23 621 16 l 576 106 l 524 214 q 375 453 437 393 l 327 453 z "},"Л":{"ha":1011,"x_min":13,"x_max":886,"o":"m 13 0 l 13 148 q 157 219 116 155 q 205 450 197 283 l 213 627 q 216 812 216 681 l 216 1004 l 886 1004 l 886 0 l 677 0 l 677 866 l 420 866 l 420 787 q 375 208 420 331 q 257 55 335 100 q 13 0 179 9 z "},"М":{"ha":1261,"x_min":125,"x_max":1135,"o":"m 125 0 l 125 1004 l 402 1004 l 644 298 l 892 1004 l 1135 1004 l 1135 0 l 943 0 l 943 758 l 698 67 l 530 67 l 290 768 l 290 0 l 125 0 z "},"Н":{"ha":1083,"x_min":125,"x_max":958,"o":"m 125 0 l 125 1004 l 334 1004 l 334 596 l 749 596 l 749 1004 l 958 1004 l 958 0 l 749 0 l 749 458 l 334 458 l 334 0 l 125 0 z "},"О":{"ha":1143,"x_min":63,"x_max":1081,"o":"m 566 -25 q 200 119 337 -25 q 63 502 63 262 q 201 886 63 744 q 572 1029 338 1029 q 943 886 805 1029 q 1081 504 1081 744 q 943 117 1081 258 q 566 -25 805 -25 m 568 113 q 781 219 703 113 q 859 505 859 324 q 781 785 859 680 q 572 891 702 891 q 363 785 441 891 q 285 503 285 680 q 363 220 285 327 q 568 113 441 113 z "},"П":{"ha":1084,"x_min":125,"x_max":958,"o":"m 125 0 l 125 1004 l 958 1004 l 958 0 l 749 0 l 749 866 l 334 866 l 334 0 l 125 0 z "},"Р":{"ha":851,"x_min":125,"x_max":815,"o":"m 125 0 l 125 1004 l 475 1004 q 737 942 659 1004 q 815 737 815 881 q 710 484 815 574 q 417 393 606 393 l 330 393 l 330 0 l 125 0 m 330 531 l 371 531 q 540 581 478 531 q 602 716 602 631 q 412 866 602 866 l 330 866 l 330 531 z "},"С":{"ha":989,"x_min":63,"x_max":933,"o":"m 933 40 q 585 -25 787 -25 q 201 114 338 -25 q 63 502 63 253 q 202 892 63 755 q 597 1029 340 1029 q 924 990 762 1029 l 924 827 q 616 891 740 891 q 371 790 457 891 q 285 505 285 690 q 377 221 285 323 q 635 119 470 119 q 933 194 783 119 l 933 40 z "},"Т":{"ha":958,"x_min":15,"x_max":943,"o":"m 374 0 l 374 866 l 15 866 l 15 1004 l 943 1004 l 943 866 l 584 866 l 584 0 l 374 0 z "},"У":{"ha":959,"x_min":21,"x_max":959,"o":"m 397 311 l 21 1004 l 250 1004 l 512 522 l 767 1004 l 959 1004 l 575 300 q 385 41 462 92 q 128 0 323 0 l 98 0 l 98 142 l 123 142 q 282 168 235 142 q 380 282 330 194 l 397 311 z "},"Ф":{"ha":1069,"x_min":46,"x_max":1023,"o":"m 436 0 l 436 142 q 156 243 266 142 q 46 502 46 345 q 156 761 46 659 q 436 862 266 862 l 436 1004 l 633 1004 l 633 862 q 913 761 803 862 q 1023 502 1023 659 q 913 243 1023 345 q 633 142 803 142 l 633 0 l 436 0 m 436 272 l 436 732 q 300 668 353 732 q 247 502 247 604 q 299 336 247 400 q 436 272 352 272 m 633 272 q 769 336 717 272 q 822 502 822 400 q 769 668 822 604 q 633 732 716 732 l 633 272 z "},"Х":{"ha":926,"x_min":33,"x_max":896,"o":"m 33 0 l 355 494 l 47 1004 l 291 1004 l 495 666 l 716 1004 l 885 1004 l 577 530 l 896 0 l 653 0 l 435 359 l 202 0 l 33 0 z "},"Ц":{"ha":1126,"x_min":125,"x_max":1092,"o":"m 125 0 l 125 1004 l 334 1004 l 334 146 l 749 146 l 749 1004 l 958 1004 l 958 146 l 1092 146 l 1092 -201 l 891 -201 l 891 0 l 125 0 z "},"Ч":{"ha":958,"x_min":75,"x_max":833,"o":"m 624 0 l 624 404 q 384 343 511 343 q 151 423 226 343 q 75 671 75 503 l 75 1004 l 285 1004 l 285 675 q 318 536 285 576 q 431 495 351 495 q 624 556 536 495 l 624 1004 l 833 1004 l 833 0 l 624 0 z "},"Ш":{"ha":1362,"x_min":125,"x_max":1237,"o":"m 125 0 l 125 1004 l 326 1004 l 326 146 l 581 146 l 581 1004 l 782 1004 l 782 146 l 1036 146 l 1036 1004 l 1237 1004 l 1237 0 l 125 0 z "},"Щ":{"ha":1404,"x_min":125,"x_max":1371,"o":"m 125 0 l 125 1004 l 326 1004 l 326 146 l 581 146 l 581 1004 l 782 1004 l 782 146 l 1036 146 l 1036 1004 l 1237 1004 l 1237 148 l 1371 148 l 1371 -201 l 1175 -201 l 1175 0 l 125 0 m 1362 0 z "},"Ъ":{"ha":1010,"x_min":13,"x_max":954,"o":"m 265 0 l 265 866 l 13 866 l 13 1004 l 475 1004 l 475 585 l 542 585 q 733 575 678 585 q 839 533 787 566 q 954 307 954 461 q 823 56 954 138 q 705 11 770 22 q 505 0 641 0 l 265 0 m 475 129 l 526 129 q 749 299 749 129 q 535 455 749 455 l 475 455 l 475 129 z "},"Ы":{"ha":1242,"x_min":125,"x_max":1117,"o":"m 125 0 l 125 1004 l 334 1004 l 334 585 l 402 585 q 593 575 538 585 q 699 533 648 566 q 814 307 814 461 q 683 56 814 138 q 566 11 630 22 q 366 0 501 0 l 125 0 m 907 0 l 907 1004 l 1117 1004 l 1117 0 l 907 0 m 334 129 l 386 129 q 550 174 492 129 q 609 299 609 219 q 395 455 609 455 l 334 455 l 334 129 z "},"Ь":{"ha":871,"x_min":125,"x_max":814,"o":"m 125 0 l 125 1004 l 334 1004 l 334 585 l 402 585 q 593 575 538 585 q 699 533 648 566 q 814 307 814 461 q 683 56 814 138 q 566 11 630 22 q 366 0 501 0 l 125 0 m 334 129 l 386 129 q 550 174 492 129 q 609 299 609 219 q 395 455 609 455 l 334 455 l 334 129 z "},"Э":{"ha":842,"x_min":54,"x_max":779,"o":"m 54 14 l 54 166 q 250 117 155 117 q 471 214 384 117 q 557 458 557 310 l 221 458 l 221 592 l 557 592 q 464 815 543 732 q 267 899 385 899 q 66 856 186 899 l 66 990 q 307 1029 184 1029 q 656 898 533 1029 q 779 524 779 767 q 650 120 779 266 q 290 -25 520 -25 q 54 14 173 -25 z "},"Ю":{"ha":1433,"x_min":125,"x_max":1370,"o":"m 125 0 l 125 1004 l 334 1004 l 334 567 l 473 567 q 920 1029 524 1029 q 1252 891 1135 1029 q 1370 502 1370 753 q 1252 113 1370 251 q 920 -25 1135 -25 q 606 93 720 -25 q 474 437 492 210 l 334 437 l 334 0 l 125 0 m 917 100 q 1094 207 1031 100 q 1157 505 1157 313 q 1094 797 1157 690 q 920 903 1031 903 q 747 797 810 903 q 684 502 684 690 q 746 208 684 316 q 917 100 809 100 z "},"Я":{"ha":922,"x_min":13,"x_max":798,"o":"m 592 413 l 528 413 q 300 41 452 329 l 278 0 l 13 0 q 125 153 67 64 l 154 198 l 172 226 l 217 297 q 370 452 286 403 q 186 548 250 478 q 122 722 122 618 q 221 941 122 857 q 327 992 269 981 q 535 1004 385 1004 l 798 1004 l 798 0 l 592 0 l 592 413 m 592 874 l 541 874 q 330 711 330 874 q 555 543 330 543 l 592 543 l 592 874 z "},"а":{"ha":817,"x_min":56,"x_max":770,"o":"m 490 80 q 275 -17 390 -17 q 117 43 178 -17 q 56 197 56 102 q 154 388 56 321 q 437 454 253 454 l 490 454 l 490 522 q 358 638 490 638 q 121 572 241 638 l 121 710 q 391 762 257 762 q 683 529 683 762 l 683 199 q 736 112 683 112 q 770 119 749 112 l 770 2 q 658 -17 707 -17 q 499 80 534 -17 l 490 80 m 490 188 l 490 339 l 443 339 q 300 307 352 339 q 248 217 248 274 q 276 148 248 176 q 346 119 304 119 q 490 188 416 119 z "},"б":{"ha":880,"x_min":71,"x_max":820,"o":"m 273 593 q 528 736 366 736 q 742 639 663 736 q 820 374 820 541 q 720 86 820 189 q 443 -17 621 -17 q 161 101 250 -17 q 71 471 71 218 q 175 925 71 779 q 500 1071 279 1071 l 528 1071 q 707 1107 628 1071 l 707 978 q 544 945 646 945 l 528 945 q 340 865 399 945 q 273 593 282 784 m 273 469 l 272 446 q 319 198 272 288 q 448 109 366 109 q 568 178 525 109 q 611 370 611 248 q 466 590 611 590 q 273 469 363 590 z "},"в":{"ha":825,"x_min":125,"x_max":750,"o":"m 125 0 l 125 745 l 420 745 q 720 575 720 745 q 558 389 720 439 q 750 191 750 342 q 679 44 750 89 q 446 0 608 0 l 125 0 m 313 121 l 364 121 q 515 139 478 121 q 551 210 551 156 q 372 328 551 328 l 313 328 l 313 121 m 313 441 l 372 441 q 525 543 525 441 q 376 623 525 623 l 313 623 l 313 441 z "},"г":{"ha":711,"x_min":125,"x_max":694,"o":"m 125 0 l 125 745 l 694 745 l 694 602 l 327 602 l 327 0 l 125 0 z "},"д":{"ha":987,"x_min":33,"x_max":941,"o":"m 33 -168 l 33 134 l 102 134 q 246 662 246 317 l 246 745 l 807 745 l 807 134 l 941 134 l 941 -168 l 749 -168 l 749 0 l 225 0 l 225 -168 l 33 -168 m 614 134 l 614 619 l 435 619 l 435 604 q 317 134 435 324 l 614 134 z "},"е":{"ha":814,"x_min":58,"x_max":732,"o":"m 732 25 q 460 -17 589 -17 q 166 89 274 -17 q 58 378 58 195 q 157 656 58 551 q 418 762 256 762 q 656 659 581 762 q 732 332 732 555 l 270 332 q 504 119 290 119 q 732 166 605 119 l 732 25 m 267 446 l 534 446 q 412 636 534 636 q 267 446 287 636 z "},"ж":{"ha":1084,"x_min":19,"x_max":1065,"o":"m 450 0 l 450 318 l 404 318 q 269 84 352 255 q 227 0 235 18 l 19 0 q 79 106 50 48 q 108 165 102 153 l 138 222 q 209 329 178 300 q 300 379 239 358 q 182 501 221 410 l 170 529 l 157 560 q 81 619 134 615 l 81 745 q 228 718 186 745 q 302 599 269 690 l 315 560 q 368 461 343 484 q 450 439 392 439 l 450 745 l 634 745 l 634 439 q 716 461 691 439 q 768 560 741 484 l 782 599 q 856 718 814 690 q 1002 745 897 745 l 1002 619 q 926 560 949 615 l 913 529 l 902 501 q 784 379 863 410 q 875 329 845 358 q 946 222 905 300 l 976 165 q 1005 106 982 153 q 1065 0 1033 48 l 857 0 q 815 84 848 18 q 680 318 732 255 l 634 318 l 634 0 l 450 0 z "},"з":{"ha":704,"x_min":54,"x_max":633,"o":"m 54 16 l 54 153 q 275 111 179 111 q 433 219 433 111 q 222 336 433 336 l 199 336 l 199 451 l 224 451 q 413 548 413 451 q 263 640 413 640 q 67 604 180 640 l 67 728 q 310 762 182 762 q 609 577 609 762 q 470 399 609 465 q 633 216 633 349 q 542 46 633 110 q 298 -17 451 -17 q 54 16 190 -17 z "},"и":{"ha":937,"x_min":125,"x_max":812,"o":"m 125 0 l 125 745 l 314 745 l 314 233 l 611 745 l 812 745 l 812 0 l 623 0 l 623 512 l 326 0 l 125 0 z "},"й":{"ha":937,"x_min":125,"x_max":812,"o":"m 125 0 l 125 745 l 314 745 l 314 233 l 611 745 l 812 745 l 812 0 l 623 0 l 623 512 l 326 0 l 125 0 m 229 1088 l 329 1088 q 469 991 357 991 q 608 1088 580 991 l 708 1088 q 632 929 696 988 q 469 870 567 870 q 305 929 370 870 q 229 1088 240 987 z "},"к":{"ha":804,"x_min":125,"x_max":760,"o":"m 314 309 l 314 0 l 125 0 l 125 745 l 314 745 l 314 435 q 439 520 396 435 l 458 559 l 476 595 q 564 715 522 686 q 689 745 606 745 l 717 745 l 717 619 q 659 605 676 619 q 615 534 642 591 l 602 507 l 585 469 q 475 377 553 404 q 572 323 538 355 q 646 209 605 290 l 672 159 l 700 104 q 760 0 731 43 l 549 0 l 538 22 q 506 85 513 71 l 472 152 q 371 309 412 269 l 314 309 z "},"л":{"ha":864,"x_min":21,"x_max":739,"o":"m 21 0 l 21 134 q 144 245 114 134 q 176 633 176 361 l 176 745 l 739 745 l 739 0 l 542 0 l 542 619 l 366 619 l 366 607 q 295 125 366 250 q 21 0 224 0 z "},"м":{"ha":1042,"x_min":125,"x_max":916,"o":"m 125 0 l 125 745 l 319 745 l 524 230 l 525 230 l 713 745 l 916 745 l 916 0 l 732 0 l 732 513 l 731 513 l 558 50 l 429 50 l 269 467 l 268 467 l 268 0 l 125 0 z "},"н":{"ha":920,"x_min":125,"x_max":795,"o":"m 125 0 l 125 745 l 326 745 l 326 457 l 594 457 l 594 745 l 795 745 l 795 0 l 594 0 l 594 332 l 326 332 l 326 0 l 125 0 z "},"о":{"ha":888,"x_min":58,"x_max":828,"o":"m 438 -17 q 161 89 264 -17 q 58 372 58 194 q 162 657 58 553 q 443 762 265 762 q 725 657 621 762 q 828 374 828 553 q 724 87 828 191 q 438 -17 621 -17 m 441 109 q 569 179 523 109 q 614 374 614 249 q 569 566 614 495 q 443 636 523 636 q 318 566 363 636 q 272 372 272 495 q 317 180 272 251 q 441 109 363 109 z "},"п":{"ha":920,"x_min":125,"x_max":795,"o":"m 125 0 l 125 745 l 795 745 l 795 0 l 594 0 l 594 602 l 326 602 l 326 0 l 125 0 z "},"р":{"ha":921,"x_min":125,"x_max":858,"o":"m 125 -268 l 125 745 l 326 745 l 326 604 q 570 762 404 762 q 781 663 704 762 q 858 393 858 565 q 771 94 858 205 q 538 -17 684 -17 q 326 75 421 -17 l 326 -268 l 125 -268 m 326 195 q 482 113 399 113 q 600 185 556 113 q 644 376 644 256 q 497 604 644 604 q 326 490 408 604 l 326 195 z "},"с":{"ha":739,"x_min":58,"x_max":675,"o":"m 675 16 q 444 -17 550 -17 q 162 88 265 -17 q 58 373 58 193 q 165 659 58 555 q 459 762 271 762 q 669 732 550 762 l 669 587 q 471 627 545 627 q 326 558 381 627 q 271 374 271 489 q 331 186 271 257 q 489 116 390 116 q 675 155 579 116 l 675 16 z "},"т":{"ha":686,"x_min":8,"x_max":677,"o":"m 242 0 l 242 611 l 8 611 l 8 745 l 677 745 l 677 611 l 444 611 l 444 0 l 242 0 z "},"у":{"ha":808,"x_min":21,"x_max":798,"o":"m 317 33 l 21 745 l 218 745 l 420 262 l 633 745 l 798 745 l 477 13 q 334 -225 392 -183 q 96 -268 277 -268 l 75 -268 l 75 -134 l 94 -134 q 213 -115 172 -134 q 276 -51 253 -97 l 303 5 l 317 33 z "},"ф":{"ha":1205,"x_min":71,"x_max":1134,"o":"m 507 -268 l 507 50 q 350 -17 444 -17 q 149 91 227 -17 q 71 368 71 198 q 151 651 71 541 q 354 762 230 762 q 507 694 457 762 l 507 1004 l 699 1004 l 699 694 q 851 762 748 762 q 1055 651 975 762 q 1134 368 1134 541 q 1056 91 1134 198 q 854 -17 978 -17 q 699 50 762 -17 l 699 -268 l 507 -268 m 507 591 q 416 623 458 623 q 307 551 350 623 q 264 366 264 478 q 304 188 264 255 q 414 121 345 121 q 507 157 453 121 l 507 591 m 699 591 l 699 157 q 791 121 752 121 q 901 188 860 121 q 941 366 941 255 q 898 551 941 478 q 789 623 855 623 q 699 591 747 623 z "},"х":{"ha":821,"x_min":46,"x_max":779,"o":"m 46 0 l 302 374 l 57 745 l 286 745 l 446 509 l 599 745 l 762 745 l 528 379 l 779 0 l 550 0 l 383 246 l 212 0 l 46 0 z "},"ц":{"ha":970,"x_min":125,"x_max":920,"o":"m 125 0 l 125 745 l 327 745 l 327 134 l 594 134 l 594 745 l 795 745 l 795 134 l 920 134 l 920 -168 l 728 -168 l 728 0 l 125 0 z "},"ч":{"ha":818,"x_min":69,"x_max":692,"o":"m 492 0 l 492 280 q 317 247 402 247 q 121 313 174 247 q 69 561 69 379 l 69 745 l 270 745 l 270 536 q 292 405 270 438 q 378 372 314 372 q 492 400 436 372 l 492 745 l 692 745 l 692 0 l 492 0 z "},"ш":{"ha":1272,"x_min":125,"x_max":1146,"o":"m 125 0 l 125 745 l 318 745 l 318 134 l 540 134 l 540 745 l 732 745 l 732 134 l 954 134 l 954 745 l 1146 745 l 1146 0 l 125 0 z "},"щ":{"ha":1322,"x_min":125,"x_max":1272,"o":"m 125 0 l 125 745 l 318 745 l 318 134 l 540 134 l 540 745 l 732 745 l 732 134 l 954 134 l 954 745 l 1146 745 l 1146 134 l 1272 134 l 1272 -168 l 1079 -168 l 1079 0 l 125 0 m 1272 0 z "},"ъ":{"ha":837,"x_min":13,"x_max":781,"o":"m 184 0 l 184 619 l 13 619 l 13 745 l 377 745 l 377 471 l 450 471 q 703 416 625 471 q 781 240 781 361 q 696 57 781 115 q 425 0 611 0 l 184 0 m 377 125 l 426 125 q 584 239 584 125 q 549 321 584 298 q 429 345 515 345 l 377 345 l 377 125 z "},"ы":{"ha":1132,"x_min":125,"x_max":1006,"o":"m 125 0 l 125 745 l 318 745 l 318 471 l 391 471 q 644 416 566 471 q 722 240 722 361 q 637 57 722 115 q 367 0 553 0 l 125 0 m 318 125 l 367 125 q 526 239 526 125 q 491 321 526 298 q 370 345 456 345 l 318 345 l 318 125 m 814 0 l 814 745 l 1006 745 l 1006 0 l 814 0 z "},"ь":{"ha":779,"x_min":125,"x_max":722,"o":"m 125 0 l 125 745 l 318 745 l 318 471 l 391 471 q 644 416 566 471 q 722 240 722 361 q 637 57 722 115 q 366 0 552 0 l 125 0 m 318 125 l 367 125 q 526 239 526 125 q 491 321 526 298 q 370 345 456 345 l 318 345 l 318 125 z "},"э":{"ha":749,"x_min":50,"x_max":690,"o":"m 50 19 l 50 160 q 265 113 148 113 q 420 168 361 113 q 489 318 480 222 l 227 318 l 227 444 l 489 444 q 435 586 489 535 q 283 636 380 636 q 75 584 183 636 l 75 724 q 312 762 187 762 q 690 389 690 762 q 586 86 690 190 q 280 -17 481 -17 q 50 19 159 -17 z "},"ю":{"ha":1214,"x_min":125,"x_max":1155,"o":"m 439 309 l 318 309 l 318 0 l 125 0 l 125 745 l 318 745 l 318 435 l 439 435 q 795 762 473 762 q 1061 661 968 762 q 1155 372 1155 559 q 1061 84 1155 186 q 795 -17 968 -17 q 546 67 637 -17 q 439 309 454 151 m 640 376 q 795 109 640 109 q 950 372 950 109 q 795 636 950 636 q 640 376 640 636 z "},"я":{"ha":789,"x_min":21,"x_max":663,"o":"m 471 289 l 397 289 q 316 165 356 243 l 278 91 l 244 25 q 232 0 240 17 l 21 0 q 107 144 69 72 l 124 177 q 261 340 197 314 q 102 536 102 392 q 216 717 102 663 q 457 745 274 745 l 663 745 l 663 0 l 471 0 l 471 289 m 471 627 l 431 627 q 295 515 295 627 q 435 401 295 401 l 471 401 l 471 627 z "},"ё":{"ha":814,"x_min":58,"x_max":732,"o":"m 732 25 q 460 -17 589 -17 q 166 89 274 -17 q 58 378 58 195 q 157 656 58 551 q 418 762 256 762 q 656 659 581 762 q 732 332 732 555 l 270 332 q 504 119 290 119 q 732 166 605 119 l 732 25 m 267 446 l 534 446 q 412 636 534 636 q 267 446 287 636 m 197 870 l 197 1021 l 348 1021 l 348 870 l 197 870 m 481 870 l 481 1021 l 632 1021 l 632 870 l 481 870 z "},"ђ":{"ha":912,"x_min":8,"x_max":795,"o":"m 125 0 l 125 770 l 8 770 l 8 870 l 125 870 l 125 1071 l 326 1071 l 326 870 l 576 870 l 576 770 l 326 770 l 326 479 q 581 636 424 636 q 738 573 680 636 q 795 401 795 510 l 795 -41 q 548 -285 795 -285 q 435 -271 494 -285 l 435 -141 q 514 -159 477 -159 q 576 -133 559 -159 q 594 -37 594 -106 l 594 351 q 510 478 594 478 q 326 343 415 478 l 326 0 l 125 0 z "},"ѓ":{"ha":711,"x_min":125,"x_max":694,"o":"m 125 0 l 125 745 l 694 745 l 694 602 l 327 602 l 327 0 l 125 0 m 336 870 l 500 1088 l 684 1088 l 466 870 l 336 870 z "},"є":{"ha":749,"x_min":58,"x_max":699,"o":"m 699 22 q 449 -17 588 -17 q 58 380 58 -17 q 161 663 58 565 q 456 762 263 762 q 682 730 568 762 l 682 593 q 470 636 571 636 q 261 448 270 636 l 523 448 l 523 322 l 261 322 q 494 109 281 109 q 699 155 600 109 l 699 22 z "},"ѕ":{"ha":785,"x_min":106,"x_max":691,"o":"m 106 24 l 106 171 q 361 109 255 109 q 484 193 484 109 q 382 288 484 247 l 315 315 q 157 411 204 359 q 109 538 109 463 q 190 703 109 644 q 416 762 271 762 q 632 735 507 762 l 632 594 q 432 636 511 636 q 307 559 307 636 q 399 473 307 508 l 458 450 q 640 350 589 401 q 691 219 691 299 q 604 48 691 114 q 377 -17 517 -17 q 106 24 243 -17 z "},"і":{"ha":452,"x_min":125,"x_max":326,"o":"m 125 0 l 125 745 l 326 745 l 326 0 l 125 0 m 125 870 l 125 1038 l 326 1038 l 326 870 l 125 870 z "},"ї":{"ha":452,"x_min":8,"x_max":443,"o":"m 125 0 l 125 745 l 326 745 l 326 0 l 125 0 m 8 870 l 8 1021 l 159 1021 l 159 870 l 8 870 m 292 870 l 292 1021 l 443 1021 l 443 870 l 292 870 z "},"ј":{"ha":463,"x_min":-121,"x_max":337,"o":"m -121 -253 l -121 -119 q 28 -159 -34 -159 q 112 -122 87 -159 q 136 0 136 -86 l 136 745 l 337 745 l 337 14 q 268 -214 337 -142 q 45 -285 198 -285 q -121 -253 -22 -285 m 136 870 l 136 1038 l 337 1038 l 337 870 l 136 870 z "},"љ":{"ha":1198,"x_min":21,"x_max":1143,"o":"m 21 0 l 21 134 q 144 245 114 134 q 176 633 176 361 l 176 745 l 739 745 l 739 471 l 811 471 q 1064 416 986 471 q 1143 240 1143 361 q 1058 57 1143 115 q 787 0 973 0 l 547 0 l 547 619 l 362 619 l 362 607 q 292 125 362 250 q 21 0 222 0 m 739 125 l 787 125 q 946 239 946 125 q 911 321 946 298 q 790 345 876 345 l 739 345 l 739 125 z "},"њ":{"ha":1225,"x_min":125,"x_max":1169,"o":"m 125 0 l 125 745 l 318 745 l 318 471 l 573 471 l 573 745 l 766 745 l 766 471 l 838 471 q 1091 416 1013 471 q 1169 240 1169 361 q 1084 57 1169 115 q 814 0 1000 0 l 573 0 l 573 345 l 318 345 l 318 0 l 125 0 m 766 125 l 814 125 q 972 237 972 125 q 938 321 972 298 q 817 345 903 345 l 766 345 l 766 125 z "},"ћ":{"ha":912,"x_min":8,"x_max":795,"o":"m 326 479 q 581 636 424 636 q 738 573 680 636 q 795 401 795 510 l 795 0 l 594 0 l 594 351 q 510 478 594 478 q 326 343 415 478 l 326 0 l 125 0 l 125 770 l 8 770 l 8 870 l 125 870 l 125 1063 l 326 1063 l 326 870 l 576 870 l 576 770 l 326 770 l 326 479 z "},"ќ":{"ha":804,"x_min":125,"x_max":760,"o":"m 314 309 l 314 0 l 125 0 l 125 745 l 314 745 l 314 435 q 439 520 396 435 l 458 559 l 476 595 q 564 715 522 686 q 689 745 606 745 l 717 745 l 717 619 q 659 605 676 619 q 615 534 642 591 l 602 507 l 585 469 q 475 377 553 404 q 572 323 538 355 q 646 209 605 290 l 672 159 l 700 104 q 760 0 731 43 l 549 0 l 538 22 q 506 85 513 71 l 472 152 q 371 309 412 269 l 314 309 m 347 870 l 511 1088 l 694 1088 l 477 870 l 347 870 z "},"ў":{"ha":808,"x_min":21,"x_max":798,"o":"m 317 33 l 21 745 l 218 745 l 420 262 l 633 745 l 798 745 l 477 13 q 334 -225 392 -183 q 96 -268 277 -268 l 75 -268 l 75 -134 l 94 -134 q 213 -115 172 -134 q 276 -51 253 -97 l 303 5 l 317 33 m 186 1088 l 286 1088 q 426 991 315 991 q 565 1088 537 991 l 665 1088 q 589 929 654 988 q 426 870 524 870 q 262 929 328 870 q 186 1088 197 987 z "},"џ":{"ha":920,"x_min":125,"x_max":795,"o":"m 125 0 l 125 745 l 327 745 l 327 134 l 594 134 l 594 745 l 795 745 l 795 0 l 557 0 l 557 -168 l 364 -168 l 364 0 l 125 0 z "},"Ҋ":{"ha":887,"x_min":314,"x_max":661,"o":"m 314 870 l 477 1088 l 661 1088 l 444 870 l 314 870 z "},"ҋ":{"ha":887,"x_min":203,"x_max":683,"o":"m 203 1088 l 304 1088 q 444 991 332 991 q 583 1088 555 991 l 683 1088 q 607 929 671 988 q 444 870 542 870 q 280 929 345 870 q 203 1088 215 987 z "},"Ґ":{"ha":734,"x_min":125,"x_max":722,"o":"m 125 0 l 125 1004 l 521 1004 l 521 1205 l 722 1205 l 722 866 l 334 866 l 334 0 l 125 0 z "},"ґ":{"ha":711,"x_min":125,"x_max":694,"o":"m 125 0 l 125 745 l 494 745 l 494 912 l 694 912 l 694 602 l 327 602 l 327 0 l 125 0 z "},"֑":{"ha":0,"x_min":208,"x_max":543,"o":"m 417 -83 l 417 -184 q 543 -368 543 -205 l 543 -385 l 459 -385 l 459 -368 q 375 -259 459 -259 q 292 -368 292 -259 l 292 -385 l 208 -385 l 208 -368 q 334 -184 208 -205 l 334 -83 l 417 -83 z "},"֒":{"ha":0,"x_min":348,"x_max":699,"o":"m 348 895 l 348 1029 l 482 1029 l 482 895 l 348 895 m 566 895 l 566 1029 l 699 1029 l 699 895 l 566 895 m 457 1113 l 457 1246 l 591 1246 l 591 1113 l 457 1113 z "},"֓":{"ha":0,"x_min":382,"x_max":666,"o":"m 382 1130 l 382 1188 l 666 1238 l 666 1167 l 486 1150 l 486 1133 l 653 1067 l 486 1000 l 486 983 l 666 966 l 666 895 l 382 945 l 382 1004 l 540 1067 l 382 1130 z "},"֔":{"ha":0,"x_min":457,"x_max":591,"o":"m 457 1113 l 457 1246 l 591 1246 l 591 1113 l 457 1113 m 457 895 l 457 1029 l 591 1029 l 591 895 l 457 895 z "},"֕":{"ha":0,"x_min":365,"x_max":682,"o":"m 549 1113 l 549 1246 l 682 1246 l 682 1113 l 549 1113 m 549 895 l 549 1029 l 682 1029 l 682 895 l 549 895 m 365 1246 l 465 1246 l 465 895 l 365 895 l 365 1246 z "},"֖":{"ha":0,"x_min":250,"x_max":501,"o":"m 501 -401 l 468 -401 q 282 -338 330 -401 q 250 -124 250 -296 l 250 -83 l 338 -83 l 338 -137 l 338 -180 q 357 -294 338 -273 q 457 -316 376 -316 l 501 -316 l 501 -401 z "},"֗":{"ha":0,"x_min":281,"x_max":470,"o":"m 281 990 l 376 1084 l 470 990 l 376 895 l 281 990 z "},"֘":{"ha":0,"x_min":365,"x_max":683,"o":"m 665 1135 q 683 1032 683 1078 q 655 932 683 970 q 580 895 627 895 q 500 970 528 895 l 492 993 q 484 1018 486 1010 q 458 1052 473 1052 q 431 990 431 1052 q 449 895 431 949 l 380 895 q 365 997 365 939 q 462 1135 365 1135 q 547 1047 513 1135 l 554 1026 q 590 978 572 978 q 616 1033 616 978 q 593 1135 616 1080 l 665 1135 z "},"֙":{"ha":0,"x_min":38,"x_max":289,"o":"m 38 1213 l 71 1213 q 256 1150 210 1213 q 289 936 289 1107 l 289 895 l 201 895 l 201 949 l 200 991 q 181 1106 200 1084 q 81 1127 163 1127 l 38 1127 l 38 1213 z "},"֚":{"ha":0,"x_min":715,"x_max":1084,"o":"m 1084 -309 l 1084 -401 l 715 -243 l 1084 -83 l 1084 -176 l 880 -243 l 1084 -309 z "},"֛":{"ha":0,"x_min":221,"x_max":531,"o":"m 280 -401 l 280 -320 l 328 -320 q 428 -298 409 -320 q 446 -184 446 -277 l 447 -142 l 447 -83 l 531 -83 l 531 -124 q 498 -338 531 -296 q 313 -401 452 -401 l 280 -401 m 221 -218 l 221 -83 l 355 -83 l 355 -218 l 221 -218 z "},"֜":{"ha":0,"x_min":465,"x_max":715,"o":"m 715 1213 l 715 1127 l 671 1127 q 572 1106 591 1127 q 553 991 553 1084 l 553 949 l 553 895 l 465 895 l 465 936 q 496 1150 465 1107 q 682 1213 544 1213 l 715 1213 z "},"֝":{"ha":0,"x_min":837,"x_max":1088,"o":"m 1088 1213 l 1088 1127 l 1044 1127 q 944 1106 963 1127 q 926 991 926 1084 l 925 949 l 925 895 l 837 895 l 837 936 q 869 1150 837 1107 q 1055 1213 916 1213 l 1088 1213 z "},"֞":{"ha":0,"x_min":323,"x_max":724,"o":"m 323 895 l 323 936 q 358 1163 323 1114 q 519 1213 393 1213 l 519 1132 l 494 1132 q 423 1108 438 1132 q 408 996 408 1084 l 407 953 l 407 895 l 323 895 m 528 895 l 528 936 q 564 1163 528 1114 q 724 1213 599 1213 l 724 1132 l 699 1132 q 628 1108 643 1132 q 612 996 612 1084 l 612 953 l 612 895 l 528 895 z "},"֟":{"ha":0,"x_min":180,"x_max":863,"o":"m 672 979 l 600 895 l 545 944 l 614 1025 q 587 1106 587 1062 q 627 1204 587 1164 q 725 1245 667 1245 q 823 1205 782 1245 q 863 1107 863 1164 q 823 1009 863 1049 q 723 969 782 969 q 672 979 701 969 m 726 1042 q 771 1061 752 1042 q 789 1107 789 1080 q 770 1153 789 1134 q 725 1171 751 1171 q 680 1153 699 1171 q 661 1107 661 1134 q 680 1061 661 1080 q 726 1042 699 1042 m 370 979 q 320 969 342 969 q 220 1009 261 969 q 180 1107 180 1049 q 220 1205 180 1164 q 318 1245 260 1245 q 415 1204 375 1245 q 456 1106 456 1164 q 429 1025 456 1062 l 498 944 l 444 895 l 370 979 m 317 1042 q 363 1061 345 1042 q 382 1107 382 1080 q 363 1153 382 1134 q 318 1171 345 1171 q 272 1153 291 1171 q 254 1107 254 1134 q 272 1061 254 1080 q 317 1042 291 1042 z "},"֠":{"ha":0,"x_min":349,"x_max":699,"o":"m 492 987 l 401 895 l 349 947 l 441 1040 q 423 1106 423 1074 q 464 1204 423 1164 q 561 1245 504 1245 q 659 1205 618 1245 q 699 1107 699 1164 q 659 1009 699 1050 q 562 969 618 969 q 492 987 529 969 m 562 1042 q 607 1061 588 1042 q 625 1107 625 1080 q 607 1153 625 1134 q 561 1171 588 1171 q 515 1152 534 1171 q 496 1107 496 1133 q 515 1061 496 1080 q 562 1042 534 1042 z "},"֡":{"ha":0,"x_min":365,"x_max":683,"o":"m 448 878 l 365 878 l 365 1196 l 448 1196 l 448 1040 l 479 1040 q 576 1058 553 1040 q 598 1137 598 1077 l 599 1164 l 599 1196 l 683 1196 l 683 1173 q 640 1003 683 1047 q 473 958 596 958 l 448 958 l 448 878 z "},"֣":{"ha":0,"x_min":212,"x_max":539,"o":"m 447 -83 l 539 -83 l 539 -385 l 212 -385 l 212 -293 l 447 -293 l 447 -83 z "},"֤":{"ha":0,"x_min":191,"x_max":559,"o":"m 559 -309 l 559 -401 l 191 -243 l 559 -83 l 559 -176 l 356 -243 l 559 -309 z "},"֥":{"ha":0,"x_min":250,"x_max":501,"o":"m 250 -401 l 250 -316 l 294 -316 q 394 -294 375 -316 q 412 -180 412 -273 l 413 -137 l 413 -83 l 501 -83 l 501 -124 q 469 -338 501 -296 q 283 -401 422 -401 l 250 -401 z "},"֦":{"ha":0,"x_min":175,"x_max":576,"o":"m 576 -83 l 576 -124 q 541 -352 576 -302 q 380 -401 506 -401 l 380 -320 l 406 -321 q 477 -296 461 -321 q 492 -184 492 -272 l 493 -142 l 493 -83 l 576 -83 m 372 -83 l 372 -124 q 336 -352 372 -302 q 175 -401 301 -401 l 175 -320 l 201 -321 q 272 -296 256 -321 q 288 -184 288 -272 l 288 -142 l 288 -83 l 372 -83 z "},"֧":{"ha":0,"x_min":256,"x_max":496,"o":"m 256 -385 l 256 -312 q 359 -334 311 -334 q 413 -309 413 -334 q 365 -273 413 -291 l 345 -266 q 256 -181 256 -233 q 395 -83 256 -83 q 496 -100 452 -83 l 496 -168 q 401 -151 441 -151 q 340 -177 340 -151 q 374 -203 340 -192 q 399 -212 381 -205 l 420 -220 q 496 -299 496 -248 q 458 -374 496 -346 q 359 -401 421 -401 q 256 -385 313 -401 z "},"֨":{"ha":0,"x_min":466,"x_max":718,"o":"m 466 1213 l 500 1213 q 685 1150 638 1213 q 718 936 718 1107 l 718 895 l 629 895 l 629 949 l 629 991 q 610 1106 629 1084 q 510 1127 591 1127 l 466 1127 l 466 1213 z "},"֩":{"ha":0,"x_min":405,"x_max":755,"o":"m 612 970 q 543 952 575 952 q 445 992 486 952 q 405 1090 405 1033 q 445 1188 405 1147 q 543 1228 486 1228 q 641 1188 600 1228 q 681 1090 681 1147 q 663 1023 681 1057 l 755 930 l 703 878 l 612 970 m 542 1026 q 589 1045 570 1026 q 608 1090 608 1063 q 589 1136 608 1117 q 543 1155 570 1155 q 497 1136 516 1155 q 479 1090 479 1117 q 497 1045 479 1064 q 542 1026 516 1026 z "},"֪":{"ha":0,"x_min":208,"x_max":543,"o":"m 334 -385 l 334 -284 q 208 -100 208 -264 l 208 -83 l 292 -83 l 292 -100 q 375 -209 292 -209 q 459 -100 459 -209 l 459 -83 l 543 -83 l 543 -100 q 417 -284 543 -264 l 417 -385 l 334 -385 z "},"֫":{"ha":0,"x_min":335,"x_max":703,"o":"m 703 987 l 703 895 l 335 1055 l 703 1213 l 703 1121 l 500 1055 l 703 987 z "},"֬":{"ha":0,"x_min":361,"x_max":687,"o":"m 595 1205 l 687 1205 l 687 878 l 361 878 l 361 970 l 595 970 l 595 1205 z "},"֭":{"ha":0,"x_min":575,"x_max":826,"o":"m 826 -385 l 793 -385 q 607 -322 654 -385 q 575 -107 575 -279 l 575 -67 l 675 -67 l 675 -106 l 676 -149 q 695 -263 676 -241 q 795 -284 713 -284 l 826 -284 l 826 -385 z "},"֮":{"ha":0,"x_min":-218,"x_max":100,"o":"m 83 1135 q 100 1032 100 1078 q 72 932 100 970 q -2 895 44 895 q -82 970 -54 895 l -90 993 q -99 1018 -96 1010 q -124 1052 -109 1052 q -151 990 -151 1052 q -133 895 -151 949 l -201 895 q -218 997 -218 939 q -120 1135 -218 1135 q -36 1047 -68 1135 l -28 1026 q 7 978 -10 978 q 33 1033 33 978 q 11 1135 33 1080 l 83 1135 z "},"֯":{"ha":0,"x_min":370,"x_max":677,"o":"m 522 895 q 414 940 458 895 q 370 1049 370 985 q 414 1158 370 1114 q 524 1203 459 1203 q 632 1158 587 1203 q 677 1050 677 1114 q 632 940 677 985 q 522 895 587 895 m 522 962 q 585 987 559 962 q 610 1050 610 1013 q 585 1111 610 1086 q 524 1136 559 1136 q 462 1111 488 1136 q 437 1049 437 1086 q 462 988 437 1013 q 522 962 487 962 z "},"ְ":{"ha":0,"x_min":309,"x_max":442,"o":"m 309 -218 l 309 -83 l 442 -83 l 442 -218 l 309 -218 m 309 -435 l 309 -301 l 442 -301 l 442 -435 l 309 -435 z "},"ֱ":{"ha":0,"x_min":91,"x_max":660,"o":"m 91 -218 l 91 -83 l 224 -83 l 224 -218 l 91 -218 m 309 -218 l 309 -83 l 442 -83 l 442 -218 l 309 -218 m 199 -435 l 199 -301 l 334 -301 l 334 -435 l 199 -435 m 526 -218 l 526 -83 l 660 -83 l 660 -218 l 526 -218 m 526 -435 l 526 -301 l 660 -301 l 660 -435 l 526 -435 z "},"ֲ":{"ha":0,"x_min":66,"x_max":685,"o":"m 551 -218 l 551 -83 l 685 -83 l 685 -218 l 551 -218 m 551 -435 l 551 -301 l 685 -301 l 685 -435 l 551 -435 m 66 -184 l 66 -83 l 467 -83 l 467 -184 l 66 -184 z "},"ֳ":{"ha":0,"x_min":66,"x_max":685,"o":"m 551 -218 l 551 -83 l 685 -83 l 685 -218 l 551 -218 m 551 -435 l 551 -301 l 685 -301 l 685 -435 l 551 -435 m 66 -184 l 66 -83 l 467 -83 l 467 -184 l 317 -184 l 317 -385 l 216 -385 l 216 -184 l 66 -184 z "},"ִ":{"ha":0,"x_min":309,"x_max":442,"o":"m 309 -218 l 309 -83 l 442 -83 l 442 -218 l 309 -218 z "},"ֵ":{"ha":0,"x_min":200,"x_max":551,"o":"m 200 -218 l 200 -83 l 334 -83 l 334 -218 l 200 -218 m 418 -218 l 418 -83 l 551 -83 l 551 -218 l 418 -218 z "},"ֶ":{"ha":0,"x_min":200,"x_max":551,"o":"m 200 -218 l 200 -83 l 334 -83 l 334 -218 l 200 -218 m 418 -218 l 418 -83 l 551 -83 l 551 -218 l 418 -218 m 309 -435 l 309 -301 l 443 -301 l 443 -435 l 309 -435 z "},"ַ":{"ha":0,"x_min":175,"x_max":576,"o":"m 175 -184 l 175 -83 l 576 -83 l 576 -184 l 175 -184 z "},"ָ":{"ha":0,"x_min":175,"x_max":576,"o":"m 175 -184 l 175 -83 l 576 -83 l 576 -184 l 426 -184 l 426 -385 l 326 -385 l 326 -184 l 175 -184 z "},"ֹ":{"ha":0,"x_min":-67,"x_max":67,"o":"m -67 895 l -67 1029 l 67 1029 l 67 895 l -67 895 z "},"ֻ":{"ha":0,"x_min":91,"x_max":660,"o":"m 91 -218 l 91 -83 l 224 -83 l 224 -218 l 91 -218 m 309 -318 l 309 -184 l 442 -184 l 442 -318 l 309 -318 m 526 -418 l 526 -284 l 660 -284 l 660 -418 l 526 -418 z "},"ּ":{"ha":0,"x_min":262,"x_max":395,"o":"m 262 339 l 262 473 l 395 473 l 395 339 l 262 339 z "},"ֿ":{"ha":0,"x_min":108,"x_max":643,"o":"m 108 795 l 108 895 l 643 895 l 643 795 l 108 795 z "},"׀":{"ha":401,"x_min":134,"x_max":268,"o":"m 134 812 l 268 812 l 268 0 l 134 0 l 134 812 z "},"א":{"ha":910,"x_min":74,"x_max":864,"o":"m 78 0 l 78 22 q 115 321 78 197 q 238 567 151 446 l 208 596 q 74 711 134 665 l 234 828 q 571 493 393 702 q 625 616 612 564 q 638 762 638 669 l 638 812 l 826 812 l 826 772 q 672 376 826 543 q 864 95 783 241 l 713 -17 q 348 458 578 224 q 266 68 266 330 l 266 0 l 78 0 z "},"ב":{"ha":838,"x_min":38,"x_max":808,"o":"m 38 0 l 105 201 l 524 201 l 524 393 q 497 581 524 551 q 331 611 471 611 l 78 611 l 145 812 l 360 812 q 633 752 564 812 q 686 666 673 718 q 699 486 699 614 l 699 201 l 808 201 l 741 0 l 38 0 z "},"ג":{"ha":646,"x_min":28,"x_max":594,"o":"m 97 -17 l 28 151 q 339 357 180 224 l 322 465 q 278 592 307 558 q 151 665 250 625 l 113 680 l 189 828 q 417 718 355 773 q 473 638 458 682 q 510 452 488 595 l 536 279 q 594 0 566 87 l 405 0 q 366 193 387 73 q 97 -17 266 92 z "},"ד":{"ha":780,"x_min":8,"x_max":774,"o":"m 422 0 l 422 611 l 8 611 l 75 812 l 774 812 l 707 611 l 597 611 l 597 0 l 422 0 z "},"ה":{"ha":1034,"x_min":33,"x_max":924,"o":"m 159 0 l 159 435 l 334 435 l 334 0 l 159 0 m 749 0 l 749 393 q 722 581 749 551 q 556 611 695 611 l 33 611 l 100 812 l 585 812 q 858 752 789 812 q 911 666 899 718 q 924 486 924 614 l 924 0 l 749 0 z "},"ו":{"ha":517,"x_min":11,"x_max":405,"o":"m 229 0 l 229 416 q 188 589 229 542 q 11 663 146 636 l 98 828 q 327 736 257 799 q 389 639 373 695 q 405 458 405 583 l 405 0 l 229 0 z "},"ז":{"ha":587,"x_min":11,"x_max":567,"o":"m 134 0 l 134 304 q 223 564 134 458 l 11 654 l 85 828 l 567 623 l 494 447 l 359 506 q 310 334 310 445 l 310 0 l 134 0 z "},"ח":{"ha":1017,"x_min":29,"x_max":909,"o":"m 139 0 l 139 611 l 29 611 l 97 812 l 570 812 q 842 752 774 812 q 896 666 883 718 q 909 486 909 614 l 909 0 l 733 0 l 733 393 q 707 581 733 551 q 541 611 680 611 l 315 611 l 315 0 l 139 0 z "},"ט":{"ha":903,"x_min":50,"x_max":854,"o":"m 146 0 l 50 768 l 220 828 l 298 201 q 575 281 471 201 q 678 494 678 361 q 521 640 678 640 q 431 627 479 640 l 492 816 q 589 829 543 829 q 784 754 713 829 q 854 546 854 679 q 763 267 854 397 q 516 62 672 136 q 146 0 385 0 z "},"י":{"ha":503,"x_min":29,"x_max":417,"o":"m 367 272 l 191 272 q 238 520 238 446 q 191 605 238 574 q 29 659 144 636 l 120 828 q 352 737 286 795 q 417 566 417 679 q 385 349 417 494 l 367 272 z "},"ך":{"ha":741,"x_min":15,"x_max":625,"o":"m 449 -201 l 449 611 l 15 611 l 82 812 l 625 812 l 625 -201 l 449 -201 z "},"כ":{"ha":785,"x_min":35,"x_max":715,"o":"m 35 0 l 102 201 l 481 201 q 537 421 537 330 q 488 570 537 528 q 309 611 438 611 l 75 611 l 141 812 l 362 812 q 541 791 478 812 q 646 719 603 771 q 715 486 715 636 q 652 201 715 366 l 586 0 l 35 0 z "},"ל":{"ha":773,"x_min":64,"x_max":707,"o":"m 98 -17 l 167 188 q 381 267 300 203 q 508 510 508 368 q 466 590 508 569 q 306 611 425 611 l 64 611 l 64 1029 l 240 1088 l 240 812 l 416 812 q 643 765 579 812 q 707 600 707 718 q 536 203 707 376 q 98 -17 364 29 z "},"ם":{"ha":1001,"x_min":31,"x_max":892,"o":"m 139 0 l 139 611 l 31 611 l 98 812 l 553 812 q 826 752 758 812 q 880 666 867 718 q 892 486 892 614 l 892 201 l 825 0 l 139 0 m 315 201 l 717 201 l 717 393 q 690 581 717 551 q 524 611 664 611 l 315 611 l 315 201 z "},"מ":{"ha":918,"x_min":23,"x_max":855,"o":"m 35 0 l 134 377 q 161 520 161 481 q 23 737 161 601 l 180 828 q 307 658 254 766 q 568 828 416 828 q 751 741 682 828 q 832 491 819 654 l 855 201 l 789 0 l 397 0 l 464 201 l 677 201 l 662 409 q 519 627 646 627 q 396 554 446 627 q 300 309 346 481 l 219 0 l 35 0 z "},"ן":{"ha":512,"x_min":9,"x_max":399,"o":"m 223 -201 l 223 419 q 176 590 223 551 q 9 678 109 647 l 90 828 q 305 723 212 791 q 379 625 359 683 q 399 447 399 568 l 399 -201 l 223 -201 z "},"נ":{"ha":616,"x_min":21,"x_max":504,"o":"m 21 0 l 89 201 l 328 201 l 328 465 q 282 605 328 572 q 116 679 220 649 l 196 828 q 400 747 309 800 q 481 663 459 713 q 504 513 504 612 l 504 201 l 437 0 l 21 0 z "},"ס":{"ha":966,"x_min":11,"x_max":900,"o":"m 197 0 l 120 611 l 11 611 l 78 812 l 559 812 q 752 802 695 812 q 843 761 809 791 q 900 597 900 709 q 814 309 900 448 q 582 85 728 170 q 197 0 435 0 m 347 201 q 575 267 498 212 q 701 507 701 359 q 659 590 701 568 q 490 611 616 611 l 296 611 l 347 201 z "},"ע":{"ha":870,"x_min":-33,"x_max":810,"o":"m -33 -121 l 35 82 q 268 119 143 82 l 122 769 l 290 828 l 432 196 q 580 397 538 277 q 622 741 622 517 l 622 812 l 810 812 l 810 762 q 731 328 810 502 q 479 40 651 155 q -33 -121 239 -121 z "},"ף":{"ha":792,"x_min":21,"x_max":680,"o":"m 504 -201 l 504 343 q 479 505 504 471 q 339 570 454 540 l 209 604 l 199 572 q 189 526 189 542 q 313 443 189 449 l 254 266 q 83 325 146 273 q 21 458 21 377 q 52 612 21 520 l 79 688 l 127 828 l 438 753 q 634 659 589 717 q 680 448 680 602 l 680 -201 l 504 -201 z "},"פ":{"ha":826,"x_min":22,"x_max":712,"o":"m 22 0 l 82 184 l 536 184 l 536 364 q 511 528 536 491 q 381 593 486 565 l 252 627 l 241 597 q 233 553 233 572 q 346 478 233 487 l 299 337 q 71 513 71 358 q 120 711 71 572 l 162 828 l 471 753 q 667 659 622 716 q 712 448 712 602 l 712 184 l 651 0 l 22 0 z "},"ץ":{"ha":718,"x_min":3,"x_max":685,"o":"m 213 -201 l 213 157 q 205 288 213 251 q 161 409 198 326 l 3 770 l 170 828 l 347 425 q 463 566 429 490 q 496 764 496 643 l 496 812 l 685 812 l 685 779 q 389 273 685 447 l 389 -201 l 213 -201 z "},"צ":{"ha":815,"x_min":19,"x_max":752,"o":"m 19 0 l 78 180 l 446 180 q 71 760 196 421 l 248 828 q 463 443 322 615 q 558 724 558 559 l 558 812 l 747 812 l 747 755 q 570 332 747 496 q 752 179 672 227 l 692 0 l 19 0 z "},"ק":{"ha":958,"x_min":29,"x_max":890,"o":"m 138 -201 l 138 433 l 314 433 l 314 -201 l 138 -201 m 29 611 l 96 812 l 567 812 q 749 800 696 812 q 838 753 802 789 q 890 601 890 700 q 745 230 890 402 q 368 -16 599 58 l 441 199 q 621 318 549 230 q 692 509 692 407 q 650 590 692 570 q 480 611 607 611 l 29 611 z "},"ר":{"ha":758,"x_min":25,"x_max":649,"o":"m 473 0 l 473 393 q 447 581 473 551 q 281 611 420 611 l 25 611 l 92 812 l 311 812 q 583 752 515 812 q 636 666 623 718 q 649 486 649 614 l 649 0 l 473 0 z "},"ש":{"ha":999,"x_min":52,"x_max":957,"o":"m 148 0 l 52 760 l 222 828 l 273 427 q 377 513 347 445 q 407 730 407 581 l 407 812 l 595 812 l 595 737 q 522 431 595 536 q 289 301 448 326 l 301 201 q 584 260 478 201 q 769 730 769 363 l 769 812 l 957 812 l 957 744 q 751 189 957 378 q 148 0 545 0 z "},"ת":{"ha":998,"x_min":23,"x_max":889,"o":"m 23 0 l 90 201 l 265 201 q 212 538 212 338 l 212 611 l 111 611 l 178 812 l 550 812 q 823 752 754 812 q 876 666 863 718 q 889 486 889 614 l 889 0 l 713 0 l 713 393 q 687 581 713 551 q 521 611 661 611 l 388 611 l 388 551 q 450 201 388 333 l 384 0 l 23 0 z "},"،":{"ha":343,"x_min":63,"x_max":281,"o":"m 197 218 l 281 218 l 281 0 l 63 0 l 63 168 q 281 435 63 435 l 281 360 q 220 327 243 360 q 197 239 197 294 l 197 218 z "},"؛":{"ha":368,"x_min":83,"x_max":284,"o":"m 83 0 l 83 201 l 284 201 l 284 0 l 83 0 m 209 636 l 284 636 l 284 435 l 83 435 l 83 587 q 134 777 83 709 q 284 853 185 845 l 284 778 q 209 657 209 756 l 209 636 z "},"؟":{"ha":666,"x_min":67,"x_max":591,"o":"m 591 1004 l 591 814 q 384 853 481 853 q 220 816 281 853 q 337 689 243 758 l 375 661 l 429 623 q 503 537 488 581 q 518 374 518 494 l 518 283 l 342 283 l 342 338 q 333 428 342 406 q 283 481 323 451 l 239 513 l 206 538 q 96 643 125 597 q 67 753 67 688 q 158 955 67 880 q 404 1029 248 1029 q 591 1004 507 1029 m 330 0 l 330 168 l 530 168 l 530 0 l 330 0 z "},"ء":{"ha":471,"x_min":58,"x_max":412,"o":"m 410 195 l 410 91 l 58 0 l 58 104 l 222 146 q 121 263 121 196 q 203 387 121 338 q 412 435 285 435 l 412 336 q 216 267 284 328 q 410 195 298 195 z "},"آ":{"ha":460,"x_min":0,"x_max":460,"o":"m 142 0 l 142 920 l 318 920 l 318 0 l 142 0 m 0 987 l 0 1081 q 126 1176 74 1176 q 194 1164 156 1176 l 229 1153 l 257 1144 q 339 1128 309 1128 q 460 1187 379 1128 l 460 1094 q 333 999 385 999 q 266 1010 304 999 l 231 1022 l 203 1031 q 121 1046 151 1046 q 0 987 81 1046 z "},"أ":{"ha":460,"x_min":50,"x_max":410,"o":"m 142 0 l 142 887 l 317 887 l 317 0 l 142 0 m 397 1168 l 397 1078 q 216 1107 317 1099 q 296 1013 245 1050 l 410 1013 l 410 928 l 50 928 l 50 1013 l 166 1013 q 115 1107 115 1067 q 271 1180 115 1180 q 397 1168 336 1180 z "},"ؤ":{"ha":711,"x_min":-139,"x_max":661,"o":"m 486 202 l 486 233 q 405 394 486 394 q 273 224 313 394 q 443 201 326 201 l 486 202 m 233 -536 l -139 -536 l -37 -460 q 271 -217 182 -298 q 469 7 359 -136 q 370 0 408 0 q 113 172 113 0 q 214 447 113 323 q 441 570 316 570 q 603 480 546 570 q 661 226 661 391 q 565 -160 661 10 q 233 -536 469 -330 m 568 898 l 568 793 l 216 703 l 216 806 l 380 848 q 279 966 279 899 q 361 1089 279 1041 q 570 1138 443 1138 l 570 1039 q 374 970 442 1031 q 568 898 456 898 z "},"إ":{"ha":460,"x_min":51,"x_max":404,"o":"m 142 0 l 142 1138 l 318 1138 l 318 0 l 142 0 m 402 -340 l 402 -445 l 51 -536 l 51 -432 l 215 -390 q 114 -273 114 -340 q 196 -149 114 -197 q 404 -100 277 -100 l 404 -199 q 209 -269 277 -208 q 402 -340 290 -340 z "},"ئ":{"ha":1407,"x_min":49,"x_max":1349,"o":"m 122 494 l 256 494 q 205 170 205 292 q 296 -21 205 41 q 574 -83 387 -83 q 925 -24 770 -83 q 1169 146 1080 36 l 1095 146 q 810 177 874 146 q 720 334 720 220 q 879 656 720 509 q 1229 804 1039 804 q 1321 796 1261 804 l 1321 608 q 1208 619 1259 619 q 1014 573 1088 619 q 939 451 939 526 q 986 372 939 396 q 1140 347 1034 347 l 1173 347 q 1311 318 1273 347 q 1349 214 1349 290 q 1215 -54 1349 80 q 932 -229 1096 -174 q 532 -284 768 -284 q 58 93 58 -284 q 122 494 58 247 m 400 823 l 400 718 l 49 627 l 49 732 l 214 773 q 112 891 112 823 q 194 1014 112 966 q 402 1063 275 1063 l 402 964 q 207 895 275 956 q 400 823 288 823 z "},"ا":{"ha":460,"x_min":142,"x_max":318,"o":"m 142 0 l 142 1138 l 318 1138 l 318 0 l 142 0 z "},"ب":{"ha":1455,"x_min":58,"x_max":1396,"o":"m 1159 636 l 1370 636 q 1396 419 1396 519 q 1227 75 1396 162 q 552 -17 1046 -17 q 175 60 292 -17 q 58 310 58 138 q 72 486 58 371 l 205 486 l 204 427 q 241 273 204 319 q 624 184 312 184 q 1212 254 977 184 l 1213 286 l 1215 340 q 1159 636 1215 493 m 536 -234 l 636 -134 l 736 -234 l 636 -334 l 536 -234 z "},"ة":{"ha":753,"x_min":58,"x_max":694,"o":"m 372 669 q 620 486 545 573 q 694 295 694 399 q 590 74 694 164 q 333 -17 485 -17 q 131 46 204 -17 q 58 222 58 110 q 372 669 58 457 m 339 465 q 247 267 247 361 q 357 168 247 168 q 526 227 460 168 q 339 465 526 338 m 155 903 l 255 1004 l 355 903 l 255 803 l 155 903 m 389 903 l 490 1004 l 590 903 l 490 803 l 389 903 z "},"ت":{"ha":1455,"x_min":58,"x_max":1396,"o":"m 1159 636 l 1370 636 q 1396 419 1396 519 q 1227 75 1396 162 q 552 -17 1046 -17 q 175 60 292 -17 q 58 310 58 138 q 72 486 58 371 l 205 486 l 204 427 q 241 273 204 319 q 624 184 312 184 q 1212 254 977 184 l 1213 286 l 1215 340 q 1159 636 1215 493 m 463 694 l 563 795 l 663 694 l 563 594 l 463 694 m 696 694 l 797 795 l 897 694 l 797 594 l 696 694 z "},"ث":{"ha":1455,"x_min":58,"x_max":1396,"o":"m 1159 636 l 1370 636 q 1396 419 1396 519 q 1227 75 1396 162 q 552 -17 1046 -17 q 175 60 292 -17 q 58 310 58 138 q 72 486 58 371 l 205 486 l 204 427 q 241 273 204 319 q 624 184 312 184 q 1212 254 977 184 l 1213 286 l 1215 340 q 1159 636 1215 493 m 463 694 l 563 795 l 663 694 l 563 594 l 463 694 m 696 694 l 797 795 l 897 694 l 797 594 l 696 694 m 580 870 l 680 970 l 781 870 l 680 770 l 580 870 z "},"ج":{"ha":908,"x_min":54,"x_max":903,"o":"m 903 -290 l 903 -441 q 574 -536 744 -536 q 200 -406 340 -536 q 60 -58 60 -276 q 404 447 60 275 l 370 449 l 290 455 q 199 458 237 458 q 54 431 135 458 l 54 603 q 194 627 119 627 q 319 623 251 627 l 450 614 q 830 602 623 602 l 886 602 l 886 410 l 813 410 q 549 389 629 410 q 387 298 469 368 q 236 -31 236 169 q 606 -335 236 -335 q 903 -290 734 -335 m 475 33 l 574 134 l 675 33 l 574 -67 l 475 33 z "},"ح":{"ha":908,"x_min":54,"x_max":903,"o":"m 903 -290 l 903 -441 q 574 -536 744 -536 q 200 -406 340 -536 q 60 -58 60 -276 q 404 447 60 275 l 370 449 l 290 455 q 199 458 237 458 q 54 431 135 458 l 54 603 q 194 627 119 627 q 319 623 251 627 l 450 614 q 830 602 623 602 l 886 602 l 886 410 l 813 410 q 549 389 629 410 q 387 298 469 368 q 236 -31 236 169 q 606 -335 236 -335 q 903 -290 734 -335 z "},"خ":{"ha":908,"x_min":54,"x_max":903,"o":"m 903 -290 l 903 -441 q 574 -536 744 -536 q 200 -406 340 -536 q 60 -58 60 -276 q 404 447 60 275 l 370 449 l 290 455 q 199 458 237 458 q 54 431 135 458 l 54 603 q 194 627 119 627 q 319 623 251 627 l 450 614 q 830 602 623 602 l 886 602 l 886 410 l 813 410 q 549 389 629 410 q 387 298 469 368 q 236 -31 236 169 q 606 -335 236 -335 q 903 -290 734 -335 m 420 837 l 521 937 l 621 837 l 521 736 l 420 837 z "},"د":{"ha":771,"x_min":29,"x_max":712,"o":"m 530 208 q 463 476 530 355 q 278 658 395 596 q 376 766 341 738 q 448 795 412 795 q 629 629 545 795 q 712 269 712 463 q 631 56 712 115 q 331 -17 532 -17 q 29 26 180 -17 l 29 233 q 329 184 173 184 q 530 208 444 184 z "},"ذ":{"ha":771,"x_min":29,"x_max":712,"o":"m 530 208 q 463 476 530 355 q 278 658 395 596 q 376 766 341 738 q 448 795 412 795 q 629 629 545 795 q 712 269 712 463 q 631 56 712 115 q 331 -17 532 -17 q 29 26 180 -17 l 29 233 q 329 184 173 184 q 530 208 444 184 m 309 1029 l 410 1130 l 510 1029 l 410 928 l 309 1029 z "},"ر":{"ha":661,"x_min":-184,"x_max":602,"o":"m 204 519 l 450 519 q 602 106 602 261 q 493 -208 602 -33 q 188 -536 409 -342 l -184 -536 l -81 -460 q 456 60 323 -160 q 204 519 378 265 z "},"ز":{"ha":660,"x_min":-184,"x_max":602,"o":"m 203 519 l 450 519 q 602 106 602 261 q 492 -208 602 -33 q 187 -536 408 -342 l -184 -536 l -82 -460 q 456 60 322 -160 q 203 519 377 265 m 157 753 l 257 853 l 357 753 l 257 652 l 157 753 z "},"س":{"ha":2115,"x_min":58,"x_max":2056,"o":"m 1195 17 q 987 -333 1160 -214 q 511 -452 813 -452 q 58 -37 58 -452 q 100 239 58 91 l 233 239 q 213 41 213 150 q 560 -251 213 -251 q 995 -141 795 -251 q 1007 39 1007 -42 q 909 452 1007 230 l 1130 452 q 1185 207 1175 321 q 1280 184 1242 184 q 1414 239 1344 184 q 1417 279 1416 266 l 1420 330 l 1424 378 l 1424 519 l 1600 519 l 1600 351 q 1714 184 1600 184 q 1872 254 1805 184 l 1873 286 l 1874 341 q 1819 669 1874 527 l 2030 669 q 2056 424 2056 551 q 1951 114 2056 227 q 1666 0 1847 0 q 1452 89 1527 0 q 1286 0 1378 0 q 1195 17 1236 0 z "},"ش":{"ha":2115,"x_min":58,"x_max":2056,"o":"m 1195 17 q 987 -333 1160 -214 q 511 -452 813 -452 q 58 -37 58 -452 q 100 239 58 91 l 233 239 q 213 41 213 150 q 560 -251 213 -251 q 995 -141 795 -251 q 1007 39 1007 -42 q 909 452 1007 230 l 1130 452 q 1185 207 1175 321 q 1280 184 1242 184 q 1414 239 1344 184 q 1417 279 1416 266 l 1420 330 l 1424 378 l 1424 519 l 1600 519 l 1600 351 q 1714 184 1600 184 q 1872 254 1805 184 l 1873 286 l 1874 341 q 1819 669 1874 527 l 2030 669 q 2056 424 2056 551 q 1951 114 2056 227 q 1666 0 1847 0 q 1452 89 1527 0 q 1286 0 1378 0 q 1195 17 1236 0 m 1294 753 l 1394 853 l 1495 753 l 1394 652 l 1294 753 m 1529 753 l 1629 853 l 1729 753 l 1629 652 l 1529 753 m 1411 928 l 1512 1029 l 1612 928 l 1512 828 l 1411 928 z "},"ص":{"ha":2245,"x_min":58,"x_max":2188,"o":"m 1516 184 l 1554 184 q 2033 260 1843 184 q 2035 290 2035 279 q 2002 420 2035 366 q 1924 474 1969 474 q 1754 395 1866 474 q 1516 184 1642 315 m 995 -141 q 1007 39 1007 -42 q 909 452 1007 230 l 1131 452 q 1183 231 1168 338 q 1339 203 1266 212 q 1666 539 1493 409 q 1957 669 1839 669 q 2123 585 2059 669 q 2188 368 2188 501 q 1613 -17 2188 -17 q 1195 17 1394 -17 q 987 -333 1160 -214 q 511 -452 813 -452 q 58 -37 58 -452 q 100 239 58 91 l 233 239 q 213 41 213 150 q 561 -251 213 -251 q 995 -141 795 -251 z "},"ض":{"ha":2245,"x_min":58,"x_max":2188,"o":"m 1516 184 l 1554 184 q 2033 260 1843 184 q 2035 290 2035 279 q 2002 420 2035 366 q 1924 474 1969 474 q 1754 395 1866 474 q 1516 184 1642 315 m 995 -141 q 1007 39 1007 -42 q 909 452 1007 230 l 1131 452 q 1183 231 1168 338 q 1339 203 1266 212 q 1666 539 1493 409 q 1957 669 1839 669 q 2123 585 2059 669 q 2188 368 2188 501 q 1613 -17 2188 -17 q 1195 17 1394 -17 q 987 -333 1160 -214 q 511 -452 813 -452 q 58 -37 58 -452 q 100 239 58 91 l 233 239 q 213 41 213 150 q 561 -251 213 -251 q 995 -141 795 -251 m 1860 903 l 1960 1004 l 2060 903 l 1960 803 l 1860 903 z "},"ط":{"ha":1124,"x_min":0,"x_max":1065,"o":"m 298 1138 l 474 1138 l 474 750 q 433 412 474 548 q 652 611 562 553 q 832 669 743 669 q 1001 586 937 669 q 1065 368 1065 503 q 902 74 1065 165 q 372 -17 738 -17 q 0 9 151 -17 l 0 215 q 176 194 99 194 l 202 194 q 280 357 262 281 q 298 600 298 433 l 298 1138 m 393 184 l 433 184 q 911 260 722 184 l 911 286 q 881 421 911 368 q 803 474 850 474 q 632 395 744 474 q 393 184 520 315 z "},"ظ":{"ha":1124,"x_min":0,"x_max":1065,"o":"m 298 1138 l 474 1138 l 474 750 q 433 412 474 548 q 652 611 562 553 q 832 669 743 669 q 1001 586 937 669 q 1065 368 1065 503 q 902 74 1065 165 q 372 -17 738 -17 q 0 9 151 -17 l 0 215 q 176 194 99 194 l 202 194 q 280 357 262 281 q 298 600 298 433 l 298 1138 m 393 184 l 433 184 q 911 260 722 184 l 911 286 q 881 421 911 368 q 803 474 850 474 q 632 395 744 474 q 393 184 520 315 m 730 903 l 830 1004 l 930 903 l 830 803 l 730 903 z "},"ع":{"ha":879,"x_min":58,"x_max":874,"o":"m 340 244 q 172 494 172 347 q 281 720 172 636 q 576 804 391 804 q 707 796 629 804 l 707 606 q 551 619 607 619 q 338 574 424 619 q 422 401 349 460 q 622 341 495 341 l 689 341 l 689 140 l 552 140 q 321 75 409 140 q 234 -98 234 9 q 329 -272 234 -209 q 589 -334 423 -334 q 874 -290 706 -334 l 874 -441 q 547 -536 715 -536 q 195 -426 332 -536 q 58 -144 58 -316 q 340 244 58 120 z "},"غ":{"ha":879,"x_min":58,"x_max":874,"o":"m 340 244 q 172 494 172 347 q 281 720 172 636 q 576 804 391 804 q 707 796 629 804 l 707 606 q 551 619 607 619 q 338 574 424 619 q 422 401 349 460 q 622 341 495 341 l 689 341 l 689 140 l 552 140 q 321 75 409 140 q 234 -98 234 9 q 329 -272 234 -209 q 589 -334 423 -334 q 874 -290 706 -334 l 874 -441 q 547 -536 715 -536 q 195 -426 332 -536 q 58 -144 58 -316 q 340 244 58 120 m 467 1038 l 568 1138 l 668 1038 l 568 937 l 467 1038 z "},"ـ":{"ha":347,"x_min":-17,"x_max":363,"o":"m -17 201 l 363 201 l 363 0 l -17 0 l -17 201 z "},"ف":{"ha":1771,"x_min":58,"x_max":1718,"o":"m 77 486 l 212 486 q 201 370 201 410 q 312 195 201 244 q 711 146 423 146 q 1158 168 924 146 q 1508 219 1392 189 q 1518 275 1514 248 q 1437 268 1474 268 q 1173 440 1173 268 q 1275 714 1173 591 q 1501 837 1376 837 q 1718 461 1718 837 q 1566 85 1718 186 q 1224 -14 1478 27 q 696 -54 971 -54 q 201 24 344 -54 q 58 296 58 103 q 77 486 58 381 m 1537 470 l 1539 501 q 1461 662 1539 662 q 1333 492 1374 662 q 1499 469 1386 469 l 1537 470 m 1413 1071 l 1513 1171 l 1614 1071 l 1513 970 l 1413 1071 z "},"ق":{"ha":1271,"x_min":58,"x_max":1213,"o":"m 99 155 l 217 155 q 196 -35 196 66 q 545 -335 196 -335 q 993 -146 810 -335 q 1013 7 1013 -62 q 926 0 964 0 q 665 172 665 0 q 767 447 665 323 q 993 570 869 570 q 1213 213 1213 570 q 1029 -342 1213 -149 q 505 -536 846 -536 q 58 -128 58 -536 q 99 155 58 16 m 1030 202 l 1031 233 q 954 394 1031 394 q 825 224 866 394 q 991 201 878 201 l 1030 202 m 735 803 l 836 903 l 936 803 l 836 703 l 735 803 m 970 803 l 1070 903 l 1171 803 l 1070 703 l 970 803 z "},"ك":{"ha":1604,"x_min":58,"x_max":1478,"o":"m 1295 296 q 1297 338 1295 311 l 1300 395 q 1302 456 1302 432 l 1302 1138 l 1478 1138 l 1478 541 q 1448 265 1478 349 q 1334 132 1419 180 q 1002 23 1215 62 q 535 -17 789 -17 q 173 62 288 -17 q 58 310 58 141 q 71 486 58 371 l 205 486 l 203 427 q 241 273 203 319 q 629 183 313 183 q 1295 296 989 183 m 930 949 l 930 830 q 726 755 793 830 l 819 708 l 852 691 q 910 620 910 661 q 741 435 910 552 l 540 435 l 770 573 l 703 608 l 671 623 q 606 713 606 657 q 704 878 606 807 q 930 949 801 949 z "},"ل":{"ha":1352,"x_min":58,"x_max":1210,"o":"m 1034 1138 l 1210 1138 l 1210 150 q 1179 -115 1210 -16 q 1077 -280 1149 -214 q 493 -452 891 -452 q 162 -367 266 -452 q 58 -96 58 -282 q 92 176 58 31 l 226 176 q 210 -11 210 65 q 279 -200 210 -149 q 537 -251 349 -251 q 1019 -153 800 -251 l 1023 -66 q 1034 181 1034 115 l 1034 1138 z "},"م":{"ha":868,"x_min":125,"x_max":834,"o":"m 321 -536 l 146 -536 l 146 -383 q 135 -191 146 -315 q 125 -35 125 -81 q 162 148 125 80 q 286 264 199 216 q 265 395 265 342 q 319 590 265 511 q 451 669 373 669 q 649 560 545 669 q 834 270 753 452 l 834 99 q 527 128 700 128 q 351 88 398 128 q 304 -63 304 47 q 307 -155 304 -104 l 313 -245 l 318 -324 q 321 -385 321 -376 l 321 -536 m 629 307 q 471 467 527 467 q 420 366 420 467 q 427 301 420 336 q 570 312 500 312 q 629 307 595 312 z "},"ن":{"ha":1260,"x_min":58,"x_max":1201,"o":"m 100 239 l 233 239 q 213 41 213 150 q 558 -251 213 -251 q 982 -136 810 -251 q 1008 68 1008 -22 q 958 351 1008 209 l 1170 351 q 1201 115 1201 228 q 1018 -301 1201 -151 q 511 -452 834 -452 q 58 -37 58 -452 q 100 239 58 91 m 604 586 l 704 686 l 804 586 l 704 486 l 604 586 z "},"ه":{"ha":753,"x_min":58,"x_max":694,"o":"m 372 669 q 620 486 545 573 q 694 295 694 399 q 590 74 694 164 q 333 -17 485 -17 q 131 46 204 -17 q 58 222 58 110 q 372 669 58 457 m 339 465 q 247 267 247 361 q 357 168 247 168 q 526 227 460 168 q 339 465 526 338 z "},"و":{"ha":711,"x_min":-139,"x_max":661,"o":"m 486 202 l 486 233 q 405 394 486 394 q 273 224 313 394 q 443 201 326 201 l 486 202 m 233 -536 l -139 -536 l -37 -460 q 271 -217 182 -298 q 469 7 359 -136 q 370 0 408 0 q 113 172 113 0 q 214 447 113 323 q 441 570 316 570 q 603 480 546 570 q 661 226 661 391 q 565 -160 661 10 q 233 -536 469 -330 z "},"ى":{"ha":1407,"x_min":58,"x_max":1349,"o":"m 122 494 l 256 494 q 206 169 206 291 q 297 -21 206 41 q 575 -83 387 -83 q 925 -24 770 -83 q 1170 146 1080 36 l 1095 146 q 810 177 874 146 q 720 334 720 220 q 880 656 720 509 q 1229 804 1039 804 q 1321 796 1261 804 l 1321 608 q 1209 619 1260 619 q 1015 573 1089 619 q 940 451 940 526 q 987 372 940 396 q 1140 347 1034 347 l 1173 347 q 1311 318 1273 347 q 1349 214 1349 290 q 1216 -54 1349 80 q 932 -229 1096 -174 q 533 -284 768 -284 q 58 93 58 -284 q 122 494 58 247 z "},"ي":{"ha":1407,"x_min":58,"x_max":1349,"o":"m 122 494 l 256 494 q 206 169 206 291 q 297 -21 206 41 q 575 -83 387 -83 q 925 -24 770 -83 q 1170 146 1080 36 l 1095 146 q 810 177 874 146 q 720 334 720 220 q 880 656 720 509 q 1229 804 1039 804 q 1321 796 1261 804 l 1321 608 q 1209 619 1260 619 q 1015 573 1089 619 q 940 451 940 526 q 987 372 940 396 q 1140 347 1034 347 l 1173 347 q 1311 318 1273 347 q 1349 214 1349 290 q 1216 -54 1349 80 q 932 -229 1096 -174 q 533 -284 768 -284 q 58 93 58 -284 q 122 494 58 247 m 359 -435 l 459 -334 l 559 -435 l 459 -536 l 359 -435 m 593 -435 l 693 -334 l 793 -435 l 693 -536 l 593 -435 z "},"ً":{"ha":0,"x_min":0,"x_max":502,"o":"m 502 1096 l 0 963 l 0 1046 l 502 1180 l 502 1096 m 502 953 l 0 820 l 0 903 l 502 1037 l 502 953 z "},"ٌ":{"ha":0,"x_min":0,"x_max":619,"o":"m 376 911 q 258 1019 258 951 q 317 1131 258 1081 q 450 1180 376 1180 q 566 1057 566 1180 q 536 963 566 1008 q 619 957 585 957 l 619 858 l 597 858 q 473 876 535 858 q 202 795 363 795 l 45 795 l 45 878 q 130 989 130 939 q 64 1036 130 1036 q 0 1025 40 1036 l 0 1105 q 80 1116 49 1116 q 225 1001 225 1116 q 166 878 225 943 l 204 878 q 376 911 298 878 m 448 979 q 471 1055 471 1021 q 427 1101 471 1101 q 336 1037 381 1101 q 448 979 382 994 z "},"ٍ":{"ha":0,"x_min":0,"x_max":502,"o":"m 502 -259 l 0 -392 l 0 -309 l 502 -175 l 502 -259 m 502 -402 l 0 -536 l 0 -452 l 502 -319 l 502 -402 z "},"َ":{"ha":0,"x_min":0,"x_max":502,"o":"m 502 1096 l 0 963 l 0 1046 l 502 1180 l 502 1096 z "},"ُ":{"ha":0,"x_min":0,"x_max":502,"o":"m 502 957 l 502 858 q 354 880 417 858 q 52 795 230 795 l 0 795 l 0 887 l 51 887 q 245 917 187 887 q 133 1020 133 949 q 192 1131 133 1082 q 325 1180 251 1180 q 440 1065 440 1180 q 408 961 440 1010 q 474 958 449 958 l 502 957 m 322 982 q 346 1056 346 1023 q 302 1103 346 1103 q 211 1040 256 1103 q 322 982 257 997 z "},"ِ":{"ha":0,"x_min":0,"x_max":502,"o":"m 502 -402 l 0 -536 l 0 -452 l 502 -319 l 502 -402 z "},"ّ":{"ha":0,"x_min":0,"x_max":502,"o":"m 406 1180 l 502 1180 l 502 1074 q 339 840 502 840 q 239 882 278 840 q 104 778 193 778 q 23 817 47 778 q 0 951 0 856 l 0 1113 l 96 1113 l 96 973 l 97 941 q 138 882 97 882 q 203 981 203 882 l 203 1146 l 299 1146 l 299 1063 l 300 1018 q 352 940 300 940 q 405 1023 405 940 l 406 1065 l 406 1180 z "},"ْ":{"ha":0,"x_min":0,"x_max":363,"o":"m 191 1180 q 317 1069 271 1131 q 363 952 363 1008 q 301 830 363 883 q 156 778 238 778 q 44 817 87 778 q 0 917 0 856 q 191 1180 0 1047 m 182 1074 q 94 935 94 996 q 173 870 94 870 q 281 913 226 870 q 182 1074 275 1006 z "},"٠":{"ha":887,"x_min":254,"x_max":633,"o":"m 254 480 l 444 669 l 633 480 l 444 291 l 254 480 z "},"١":{"ha":887,"x_min":355,"x_max":531,"o":"m 355 0 l 355 1004 l 531 1004 l 531 0 l 355 0 z "},"٢":{"ha":887,"x_min":184,"x_max":820,"o":"m 359 0 l 184 0 l 184 1004 l 359 1004 q 404 841 359 899 q 528 783 448 783 q 651 841 607 783 q 694 1004 694 899 l 820 1004 q 743 699 820 804 q 517 594 665 594 q 359 642 439 594 l 359 0 z "},"٣":{"ha":887,"x_min":96,"x_max":870,"o":"m 272 0 l 96 0 l 96 1004 l 272 1004 l 273 945 q 358 807 273 807 q 434 847 413 807 q 456 988 456 887 l 456 1004 l 590 1004 q 591 974 591 978 q 607 860 591 892 q 665 828 623 828 q 735 977 735 828 l 736 1004 l 870 1004 q 823 730 870 812 q 666 648 776 648 q 524 758 566 648 q 367 610 479 610 q 272 648 317 610 l 272 0 z "},"٤":{"ha":887,"x_min":178,"x_max":686,"o":"m 686 166 l 686 -25 q 325 75 471 -8 q 178 264 178 159 q 232 394 178 325 q 376 519 286 463 q 201 734 201 629 q 315 920 201 841 q 623 1029 429 1000 l 623 835 q 374 764 504 835 q 631 615 480 655 l 631 484 q 460 400 531 450 q 389 310 389 349 q 481 223 389 268 q 686 166 574 178 z "},"٥":{"ha":887,"x_min":101,"x_max":786,"o":"m 441 710 q 786 319 786 570 q 668 80 786 184 q 396 -25 549 -25 q 183 52 264 -25 q 101 254 101 130 q 441 710 101 508 m 409 513 q 283 302 283 410 q 325 197 283 235 q 441 159 368 159 q 618 214 526 159 q 573 377 618 313 q 409 513 528 441 z "},"٦":{"ha":887,"x_min":142,"x_max":682,"o":"m 682 0 l 507 0 l 507 801 q 311 766 414 766 q 142 807 216 766 l 142 1029 q 392 966 271 966 q 682 1029 545 966 l 682 0 z "},"٧":{"ha":887,"x_min":8,"x_max":878,"o":"m 378 0 q 222 495 327 210 q 8 1004 117 781 l 226 1004 l 250 951 q 458 412 347 737 l 481 347 l 498 400 q 600 703 567 615 l 654 844 l 697 958 q 718 1004 703 974 l 878 1004 q 793 793 842 926 l 707 564 q 551 91 626 344 l 525 0 l 378 0 z "},"٨":{"ha":887,"x_min":8,"x_max":878,"o":"m 508 1004 q 666 506 560 791 q 878 0 771 220 l 661 0 l 636 53 q 428 592 540 266 l 406 658 l 389 604 q 286 302 320 389 l 232 160 l 189 45 q 170 0 183 31 l 8 0 q 94 210 46 81 l 179 441 q 335 913 260 662 l 361 1004 l 508 1004 z "},"٩":{"ha":887,"x_min":148,"x_max":638,"o":"m 638 0 l 463 0 l 463 488 q 223 538 298 488 q 148 696 148 587 q 235 927 148 824 q 431 1029 323 1029 q 584 958 529 1029 q 638 759 638 886 l 638 0 m 463 678 q 385 841 452 841 q 290 713 324 841 q 429 675 353 675 q 463 678 439 675 z "},"٪":{"ha":1088,"x_min":78,"x_max":1010,"o":"m 78 753 l 255 930 l 433 753 l 255 576 l 78 753 m 81 -25 l 870 1029 l 1006 1029 l 218 -25 l 81 -25 m 655 251 l 833 429 l 1010 251 l 833 74 l 655 251 z "},"٫":{"ha":418,"x_min":100,"x_max":318,"o":"m 184 0 l 100 0 l 100 218 l 318 218 l 318 49 q 100 -218 318 -218 l 100 -142 q 161 -109 138 -142 q 184 -22 184 -76 l 184 0 z "},"٬":{"ha":418,"x_min":100,"x_max":318,"o":"m 234 1004 l 318 1004 l 318 787 l 100 787 l 100 955 q 318 1221 100 1221 l 318 1146 q 257 1113 280 1146 q 234 1025 234 1080 l 234 1004 z "},"٭":{"ha":687,"x_min":75,"x_max":612,"o":"m 316 439 l 277 640 l 410 640 l 371 439 q 343 444 356 444 q 316 439 331 444 m 269 380 l 75 447 l 142 563 l 296 428 q 269 380 274 409 m 296 311 l 142 176 l 75 292 l 269 358 q 296 311 275 329 m 371 299 l 410 98 l 277 98 l 316 299 q 343 294 331 294 q 371 299 356 294 m 390 428 l 545 563 l 612 447 l 418 380 q 390 428 412 410 m 418 358 l 612 292 l 545 176 l 390 311 q 418 358 413 330 z "},"ٹ":{"ha":1455,"x_min":58,"x_max":1396,"o":"m 1159 636 l 1370 636 q 1396 419 1396 519 q 1227 75 1396 162 q 552 -17 1046 -17 q 175 60 292 -17 q 58 310 58 138 q 72 486 58 371 l 205 486 l 204 427 q 241 273 204 319 q 624 184 312 184 q 1212 254 977 184 l 1213 286 l 1215 340 q 1159 636 1215 493 m 464 594 l 464 673 l 564 673 l 564 937 l 640 937 l 640 766 q 780 836 711 836 q 871 799 837 836 q 905 702 905 763 q 741 594 905 594 l 464 594 m 637 673 l 823 673 l 822 687 q 769 758 819 758 q 637 673 705 758 z "},"پ":{"ha":1455,"x_min":58,"x_max":1396,"o":"m 1159 636 l 1370 636 q 1396 419 1396 519 q 1227 75 1396 162 q 552 -17 1046 -17 q 175 60 292 -17 q 58 310 58 138 q 72 486 58 371 l 205 486 l 204 427 q 241 273 204 319 q 624 184 312 184 q 1212 254 977 184 l 1213 286 l 1215 340 q 1159 636 1215 493 m 463 -234 l 563 -134 l 663 -234 l 563 -334 l 463 -234 m 696 -234 l 797 -134 l 897 -234 l 797 -334 l 696 -234 m 580 -410 l 680 -309 l 781 -410 l 680 -511 l 580 -410 z "},"چ":{"ha":908,"x_min":54,"x_max":903,"o":"m 903 -290 l 903 -441 q 574 -536 744 -536 q 200 -406 340 -536 q 60 -58 60 -276 q 404 447 60 275 l 370 449 l 290 455 q 199 458 237 458 q 54 431 135 458 l 54 603 q 194 627 119 627 q 319 623 251 627 l 450 614 q 830 602 623 602 l 886 602 l 886 410 l 813 410 q 549 389 629 410 q 387 298 469 368 q 236 -31 236 169 q 606 -335 236 -335 q 903 -290 734 -335 m 370 83 l 471 184 l 571 83 l 471 -17 l 370 83 m 604 83 l 705 184 l 805 83 l 705 -17 l 604 83 m 488 -92 l 588 8 l 688 -92 l 588 -193 l 488 -92 z "},"ڈ":{"ha":771,"x_min":29,"x_max":712,"o":"m 530 208 q 463 476 530 355 q 278 658 395 596 q 376 766 341 738 q 448 795 412 795 q 629 629 545 795 q 712 269 712 463 q 631 56 712 115 q 331 -17 532 -17 q 29 26 180 -17 l 29 233 q 329 184 173 184 q 530 208 444 184 m 199 837 l 199 916 l 300 916 l 300 1180 l 375 1180 l 375 1008 q 515 1078 448 1078 q 607 1042 572 1078 q 641 945 641 1006 q 477 837 641 837 l 199 837 m 373 916 l 559 916 l 558 930 q 505 1001 555 1001 q 373 916 440 1001 z "},"ڑ":{"ha":661,"x_min":-184,"x_max":602,"o":"m 204 519 l 450 519 q 602 106 602 261 q 493 -208 602 -33 q 188 -536 409 -342 l -184 -536 l -81 -460 q 456 60 323 -160 q 204 519 378 265 m 41 652 l 41 732 l 141 732 l 141 996 l 216 996 l 216 825 q 357 894 288 894 q 448 858 414 894 q 482 760 482 821 q 319 652 482 652 l 41 652 m 214 732 l 400 732 l 399 745 q 346 817 396 817 q 214 732 281 817 z "},"ژ":{"ha":661,"x_min":-184,"x_max":602,"o":"m 204 519 l 450 519 q 602 106 602 261 q 493 -208 602 -33 q 188 -536 409 -342 l -184 -536 l -81 -460 q 456 60 323 -160 q 204 519 378 265 m 100 753 l 201 853 l 301 753 l 201 652 l 100 753 m 335 753 l 435 853 l 536 753 l 435 652 l 335 753 m 218 928 l 318 1029 l 418 928 l 318 828 l 218 928 z "},"ڤ":{"ha":1771,"x_min":58,"x_max":1731,"o":"m 77 486 l 212 486 q 201 370 201 410 q 312 195 201 244 q 711 146 423 146 q 1158 168 924 146 q 1508 219 1392 189 q 1518 275 1514 248 q 1437 268 1474 268 q 1173 440 1173 268 q 1275 714 1173 591 q 1501 837 1376 837 q 1718 461 1718 837 q 1566 85 1718 186 q 1224 -14 1478 27 q 696 -54 971 -54 q 201 24 344 -54 q 58 296 58 103 q 77 486 58 381 m 1537 470 l 1539 501 q 1461 662 1539 662 q 1333 492 1374 662 q 1499 469 1386 469 l 1537 470 m 1296 937 l 1396 1038 l 1497 937 l 1396 837 l 1296 937 m 1530 937 l 1630 1038 l 1731 937 l 1630 837 l 1530 937 m 1413 1080 l 1514 1180 l 1614 1080 l 1514 979 l 1413 1080 z "},"گ":{"ha":1484,"x_min":58,"x_max":1500,"o":"m 72 486 l 205 486 l 203 427 q 241 273 203 319 q 632 184 312 184 q 1207 242 891 184 q 797 644 1097 519 l 797 762 l 1500 1012 l 1500 868 l 1042 705 q 1276 493 1192 603 q 1361 290 1361 382 q 1158 53 1361 125 q 528 -17 960 -17 q 58 310 58 -17 q 72 486 58 371 m 797 930 l 1500 1180 l 1500 1073 l 797 823 l 797 930 z "},"ں":{"ha":1260,"x_min":58,"x_max":1201,"o":"m 100 239 l 233 239 q 213 41 213 150 q 558 -251 213 -251 q 982 -136 810 -251 q 1008 68 1008 -22 q 958 351 1008 209 l 1170 351 q 1201 115 1201 228 q 1018 -301 1201 -151 q 511 -452 834 -452 q 58 -37 58 -452 q 100 239 58 91 z "},"ۑ":{"ha":1407,"x_min":58,"x_max":1402,"o":"m 122 494 l 256 494 q 206 169 206 291 q 297 -21 206 41 q 575 -83 387 -83 q 925 -24 770 -83 q 1170 146 1080 36 l 1095 146 q 810 177 874 146 q 720 334 720 220 q 880 656 720 509 q 1229 804 1039 804 q 1321 796 1261 804 l 1321 608 q 1209 619 1260 619 q 1015 573 1089 619 q 940 451 940 526 q 987 372 940 396 q 1140 347 1034 347 l 1173 347 q 1311 318 1273 347 q 1349 214 1349 290 q 1216 -54 1349 80 q 932 -229 1096 -174 q 533 -284 768 -284 q 58 93 58 -284 q 122 494 58 247 m 1101 -444 l 1193 -351 l 1284 -444 l 1193 -536 l 1101 -444 m 983 -284 l 1076 -193 l 1168 -284 l 1076 -376 l 983 -284 m 1218 -284 l 1310 -193 l 1402 -284 l 1310 -376 l 1218 -284 z "},"ے":{"ha":1198,"x_min":58,"x_max":1181,"o":"m 1045 662 l 1045 475 q 966 486 1000 486 q 784 404 865 486 l 766 386 l 724 340 q 437 129 597 201 l 404 113 l 355 91 q 238 11 276 54 q 369 5 283 5 l 479 1 l 581 0 l 1181 0 l 1181 -201 l 490 -201 l 348 -201 q 58 -11 58 -201 q 284 263 58 148 l 329 286 q 595 471 500 372 l 639 517 l 659 538 q 792 641 728 612 q 954 669 857 669 q 1045 662 1000 669 z "},"ە":{"ha":753,"x_min":58,"x_max":694,"o":"m 372 669 q 620 486 545 573 q 694 295 694 399 q 590 74 694 164 q 333 -17 485 -17 q 131 46 204 -17 q 58 222 58 110 q 372 669 58 457 m 339 465 q 247 267 247 361 q 357 168 247 168 q 526 227 460 168 q 339 465 526 338 z "},"۰":{"ha":888,"x_min":254,"x_max":633,"o":"m 254 480 l 444 669 l 633 480 l 444 291 l 254 480 z "},"۱":{"ha":888,"x_min":355,"x_max":531,"o":"m 355 0 l 355 1004 l 531 1004 l 531 0 l 355 0 z "},"۲":{"ha":888,"x_min":184,"x_max":820,"o":"m 359 0 l 184 0 l 184 1004 l 359 1004 q 404 841 359 899 q 528 783 448 783 q 651 841 607 783 q 694 1004 694 899 l 820 1004 q 743 699 820 804 q 517 594 665 594 q 359 642 439 594 l 359 0 z "},"۳":{"ha":888,"x_min":96,"x_max":870,"o":"m 272 0 l 96 0 l 96 1004 l 272 1004 l 273 945 q 358 807 273 807 q 434 847 413 807 q 456 988 456 887 l 456 1004 l 590 1004 q 591 974 591 978 q 607 860 591 892 q 665 828 623 828 q 735 977 735 828 l 736 1004 l 870 1004 q 823 730 870 812 q 666 648 776 648 q 524 758 566 648 q 367 610 479 610 q 272 648 317 610 l 272 0 z "},"۴":{"ha":887,"x_min":184,"x_max":828,"o":"m 828 1004 l 828 845 l 795 846 q 500 738 623 846 q 828 577 642 595 l 828 418 q 359 622 558 459 l 359 0 l 184 0 l 184 937 q 410 714 239 869 q 388 781 388 753 q 492 933 388 874 q 774 1002 597 993 l 828 1004 z "},"۵":{"ha":894,"x_min":25,"x_max":869,"o":"m 479 1029 q 726 686 637 859 q 869 249 869 412 q 804 49 869 123 q 628 -25 739 -25 q 424 83 512 -25 q 222 -25 347 -25 q 80 41 135 -25 q 25 212 25 106 q 143 603 25 391 q 479 1029 261 815 m 424 784 q 202 282 202 473 q 291 176 202 176 q 453 300 368 176 q 622 176 533 176 q 726 223 669 176 q 424 784 624 526 z "},"۶":{"ha":878,"x_min":170,"x_max":711,"o":"m 711 1004 l 711 837 q 459 768 552 825 q 309 587 367 711 q 486 532 385 532 q 711 585 595 532 l 711 393 l 176 -25 l 176 176 l 412 361 q 236 427 302 366 q 170 583 170 487 q 390 916 170 775 q 711 1004 527 1004 z "},"۷":{"ha":888,"x_min":8,"x_max":878,"o":"m 378 0 q 222 495 327 210 q 8 1004 117 781 l 226 1004 l 250 951 q 458 412 347 737 l 481 347 l 498 400 q 600 703 567 615 l 654 844 l 697 958 q 718 1004 703 974 l 878 1004 q 793 793 842 926 l 707 564 q 551 91 626 344 l 525 0 l 378 0 z "},"۸":{"ha":888,"x_min":8,"x_max":878,"o":"m 508 1004 q 666 506 560 791 q 878 0 771 220 l 661 0 l 636 53 q 428 592 540 266 l 406 658 l 389 604 q 286 302 320 389 l 232 160 l 189 45 q 170 0 183 31 l 8 0 q 94 210 46 81 l 179 441 q 335 913 260 662 l 361 1004 l 508 1004 z "},"۹":{"ha":888,"x_min":148,"x_max":638,"o":"m 638 0 l 463 0 l 463 488 q 223 538 298 488 q 148 696 148 587 q 235 927 148 824 q 431 1029 323 1029 q 584 958 529 1029 q 638 759 638 886 l 638 0 m 463 678 q 385 841 452 841 q 290 713 324 841 q 429 675 353 675 q 463 678 439 675 z "},"ก":{"ha":912,"x_min":75,"x_max":787,"o":"m 227 542 l 416 487 q 326 398 342 435 q 309 245 309 361 l 309 0 l 142 0 l 142 290 q 156 378 142 349 q 214 438 170 407 l 75 478 l 75 595 q 468 762 256 762 q 703 686 618 762 q 787 474 787 610 l 787 0 l 610 0 l 610 421 q 569 573 610 528 q 431 619 528 619 q 227 542 323 619 z "},"ข":{"ha":891,"x_min":58,"x_max":766,"o":"m 146 0 l 146 142 l 213 142 l 213 166 q 245 298 213 254 l 277 342 l 294 365 l 317 396 q 366 536 366 466 q 279 627 366 627 q 209 559 209 627 q 263 508 209 508 l 263 376 l 251 376 q 222 374 233 374 q 105 424 152 374 q 58 547 58 473 q 124 703 58 644 q 297 762 190 762 q 517 547 517 762 q 465 387 517 463 l 441 353 l 425 328 l 408 302 q 380 169 380 262 l 380 142 l 498 142 q 574 157 558 142 q 589 230 589 172 l 590 296 l 590 745 l 766 745 l 766 277 q 734 44 766 89 q 567 0 702 0 l 146 0 z "},"ฃ":{"ha":958,"x_min":0,"x_max":832,"o":"m 656 745 l 832 745 l 832 277 q 800 44 832 89 q 633 0 768 0 l 213 0 l 213 142 l 279 142 l 279 166 q 284 251 279 231 q 315 304 290 271 l 343 342 l 360 364 q 433 527 433 462 q 361 627 433 610 l 282 565 l 203 627 q 151 564 151 610 q 216 510 151 510 l 238 511 l 238 376 l 210 376 q 0 553 0 376 q 54 695 0 640 q 203 762 108 751 l 282 699 l 361 762 q 583 547 583 747 q 528 380 583 460 l 508 351 l 491 326 l 474 302 q 447 169 447 264 l 447 142 l 565 142 q 640 157 625 142 q 656 230 656 172 l 656 296 l 656 745 z "},"ค":{"ha":930,"x_min":83,"x_max":804,"o":"m 160 0 l 160 29 q 136 208 160 110 l 123 259 l 114 296 l 105 330 q 83 463 83 416 q 188 680 83 598 q 467 762 293 762 q 804 458 804 762 l 804 0 l 629 0 l 629 404 q 587 571 629 523 q 441 619 545 619 q 280 574 338 619 q 223 446 223 528 q 259 250 223 387 q 335 448 290 395 q 470 502 380 502 q 519 498 491 502 l 519 358 q 493 360 501 360 q 375 230 424 360 q 328 14 328 102 l 328 0 l 160 0 z "},"ฅ":{"ha":930,"x_min":83,"x_max":804,"o":"m 342 762 l 447 699 l 551 762 q 804 458 804 736 l 804 0 l 629 0 l 629 404 q 551 627 629 572 l 447 565 l 342 627 q 223 445 223 566 q 259 250 223 387 q 335 448 290 395 q 470 502 380 502 q 519 498 491 502 l 519 358 q 493 360 501 360 q 375 230 424 360 q 328 14 328 102 l 328 0 l 160 0 l 160 29 q 136 208 160 110 l 123 259 l 114 296 l 105 330 q 83 462 83 416 q 152 653 83 574 q 342 762 220 732 z "},"ฆ":{"ha":1053,"x_min":0,"x_max":928,"o":"m 361 627 l 282 565 l 203 627 q 151 564 151 610 q 216 510 151 510 l 238 511 l 238 376 l 210 376 q 0 553 0 376 q 54 695 0 640 q 203 762 108 751 l 282 699 l 361 762 q 532 706 472 754 q 592 576 592 658 q 534 434 592 512 l 517 412 l 502 392 l 479 361 q 459 311 459 334 l 459 303 q 752 200 616 273 l 752 745 l 928 745 l 928 0 l 752 0 q 459 155 652 104 l 459 137 q 439 0 459 84 l 272 0 q 292 137 292 84 l 292 169 q 141 123 224 162 l 141 277 q 292 312 217 309 l 292 318 q 351 428 292 374 l 367 442 l 392 465 q 441 548 441 510 q 361 627 441 607 z "}}}
